{
.appVersion = "945";
DisplayStrings = (
"OZHDOIIIIII/Placeholder O/Placeholder O/Placeholder I/Placeholder IIII\012OOOO/Placeholder/Placeholder/Placeholder/Placeholder IIIIIIII/Placeholder/Placeholder/Placeholder/Placeholder IIIIIIIII\012IIIIIII/Placeholder/Placeholder/Placeholder/Placeholder OOOO/Placeholder/Placeholder/Placeholder/Placeholder HHHH\012HHHH/Placeholder/Placeholder/Placeholder/Placeholder OOOO\012",
"HIIIIllllIIII/idotless/idotless/idotless/idotless llllnnnIIII"
);
classes = (
{
automatic = 1;

glyphs = (
{
color = 3;
glyphname = A;
lastChange = "2016-12-04 22:18:50 +0000";
layers = (
{
anchors = (
{
name = bottom;
position = "{283, 0}";
},
{
name = ogonek;
position = "{552, 0}";
},
{
name = top;
position = "{283, 760}";
}
);
background = {
paths = (
{
closed = 1;
nodes = (
"93 0 LINE",
"93 364 LINE",
"471 364 LINE",
"471 0 LINE",
"505 0 LINE",
"505 740 LINE",
"471 740 LINE",
"471 397 LINE",
"93 397 LINE",
"93 740 LINE",
"59 740 LINE",
"59 0 LINE"
);
}
);
};
color = 4;
layerId = "ECFF4977-BDCC-4836-B4AC-1801CF0EB460";
paths = (
{
closed = 1;
nodes = (
"49 0 LINE",
"288 720 LINE",
"276 720 LINE",
"515 0 LINE",
"552 0 LINE",
"304 740 LINE",
"261 740 LINE",
"13 0 LINE"
);
},
{
closed = 1;
nodes = (
"442 264 LINE",
"432 297 LINE",
"133 297 LINE",
"123 264 LINE"
);
}
);
width = 565;
},
{
anchors = (
{
name = bottom;
position = "{324, 0}";
},
{
name = ogonek;
position = "{653, 0}";
},
{
name = top;
position = "{324, 760}";
}
);
background = {
paths = (
{
closed = 1;
nodes = (
"185 0 LINE",
"332 647 LINE",
"314 647 LINE",
"461 0 LINE",
"653 0 LINE",
"471 740 LINE",
"177 740 LINE",
"-5 0 LINE"
);
},
{
closed = 1;
nodes = (
"525 172 LINE",
"489 337 LINE",
"158 337 LINE",
"122 172 LINE"
);
}
);
};
color = 4;
layerId = "C8FFBC04-9D7C-494A-A42D-BACB8E26599D";
paths = (
{
closed = 1;
nodes = (
"185 0 LINE",
"331 653 LINE",
"313 653 LINE",
"461 0 LINE",
"653 0 LINE",
"471 740 LINE",
"177 740 LINE",
"-5 0 LINE"
);
},
{
closed = 1;
nodes = (
"525 172 LINE",
"489 337 LINE",
"158 337 LINE",
"122 172 LINE"
);
}
);
width = 648;
},
{
anchors = (
{
name = bottom;
position = "{358, 0}";
},
{
name = ogonek;
position = "{694, 0}";
},
{
name = top;
position = "{358, 760}";
}
);
background = {
anchors = (
{
name = bottom;
position = "{358, 0}";
},
{
name = ogonek;
position = "{694, 0}";
},
{
name = top;
position = "{358, 760}";
}
);
paths = (
{
closed = 1;
nodes = (
"105 0 LINE",
"105 364 LINE",
"609 364 LINE",
"609 0 LINE",
"643 0 LINE",
"643 740 LINE",
"609 740 LINE",
"609 397 LINE",
"105 397 LINE",
"105 740 LINE",
"71 740 LINE",
"71 0 LINE"
);
}
);
};
color = 4;
layerId = "E28BEEB5-BD92-4E7A-B4EA-FC5E5BBBF580";
paths = (
{
closed = 1;
nodes = (
"58 0 LINE",
"363 720 LINE",
"351 720 LINE",
"656 0 LINE",
"694 0 LINE",
"379 740 LINE",
"336 740 LINE",
"21 0 LINE"
);
},
{
closed = 1;
nodes = (
"557 264 LINE",
"547 297 LINE",
"168 297 LINE",
"158 264 LINE"
);
}
);
width = 715;
},
{
anchors = (
{
name = bottom;
position = "{439, 0}";
},
{
name = ogonek;
position = "{871, 0}";
},
{
name = top;
position = "{438, 760}";
}
);
background = {
paths = (
{
closed = 1;
nodes = (
"237 0 LINE",
"448 642 LINE",
"428 642 LINE",
"639 0 LINE",
"871 0 LINE",
"611 740 LINE",
"267 740 LINE",
"7 0 LINE"
);
},
{
closed = 1;
nodes = (
"627 169 LINE",
"573 341 LINE",
"304 341 LINE",
"249 169 LINE"
);
}
);
};
color = 4;
layerId = "1E90A949-97C4-49F5-AA9A-AF35B6FD63CF";
paths = (
{
closed = 1;
nodes = (
"237 0 LINE",
"448 642 LINE",
"428 642 LINE",
"639 0 LINE",
"871 0 LINE",
"611 740 LINE",
"267 740 LINE",
"7 0 LINE"
);
},
{
closed = 1;
nodes = (
"627 167 LINE",
"573 342 LINE",
"304 342 LINE",
"249 167 LINE"
);
}
);
width = 877;
}
);
leftKerningGroup = KERN_A;
note = "\012    520\012  ";
rightKerningGroup = KERN_A;
unicode = 0041;
userData = {
com.typemytype.robofont.layerData = {
};
};
},
{
color = 0;
glyphname = Aringacute;
lastChange = "2016-12-04 20:38:56 +0000";
layers = (
{
background = {
paths = (
{
closed = 1;
nodes = (
"11 0 LINE",
"44 0 LINE",
"122 249 LINE",
"399 249 LINE",
"477 0 LINE",
"510 0 LINE",
"510 6 LINE",
"313 636 LINE",
"336 654 OFFCURVE",
"348 684 OFFCURVE",
"348 718 CURVE SMOOTH",
"348 764 OFFCURVE",
"326 803 OFFCURVE",
"284 814 CURVE",
"349 910 LINE",
"311 910 LINE",
"245 817 LINE",
"196 811 OFFCURVE",
"171 768 OFFCURVE",
"171 718 CURVE SMOOTH",
"171 683 OFFCURVE",
"183 652 OFFCURVE",
"207 634 CURVE",
"11 6 LINE"
);
},
{
closed = 1;
nodes = (
"259 652 CURVE SMOOTH",
"224 652 OFFCURVE",
"205 681 OFFCURVE",
"205 718 CURVE SMOOTH",
"205 755 OFFCURVE",
"223 784 OFFCURVE",
"259 784 CURVE SMOOTH",
"295 784 OFFCURVE",
"314 755 OFFCURVE",
"314 718 CURVE SMOOTH",
"314 681 OFFCURVE",
"294 652 OFFCURVE"
);
},
{
closed = 1;
nodes = (
"132 283 LINE",
"227 586 LINE",
"237 621 LINE",
"284 621 LINE",
"294 586 LINE",
"388 283 LINE"
);
}
);
};
color = -1;
components = (
{
name = A;
},
{
alignment = -1;
name = ringcomb_acutecomb.case;
transform = "{1, 0, 0, 1, 84, -90}";
}
);
layerId = "ECFF4977-BDCC-4836-B4AC-1801CF0EB460";
width = 565;
},
{
background = {
paths = (
{
closed = 1;
nodes = (
"179 0 LINE",
"215 156 LINE",
"428 156 LINE",
"465 0 LINE",
"648 0 LINE",
"648 7 LINE",
"473 681 LINE",
"487 703 OFFCURVE",
"494 730 OFFCURVE",
"494 760 CURVE SMOOTH",
"494 817 OFFCURVE",
"467 863 OFFCURVE",
"422 889 CURVE",
"510 1030 LINE",
"316 1030 LINE",
"275 911 LINE",
"196 896 OFFCURVE",
"147 839 OFFCURVE",
"147 760 CURVE SMOOTH",
"147 728 OFFCURVE",
"155 701 OFFCURVE",
"170 677 CURVE",
"-4 7 LINE",
"-4 0 LINE"
);
},
{
closed = 1;
nodes = (
"292 490 LINE",
"314 598 LINE",
"330 598 LINE",
"352 490 LINE",
"390 318 LINE",
"253 318 LINE"
);
},
{
closed = 1;
nodes = (
"279 694 OFFCURVE",
"251 720 OFFCURVE",
"251 760 CURVE SMOOTH",
"251 800 OFFCURVE",
"278 826 OFFCURVE",
"320 826 CURVE SMOOTH",
"362 826 OFFCURVE",
"390 800 OFFCURVE",
"390 760 CURVE SMOOTH",
"390 721 OFFCURVE",
"362 694 OFFCURVE",
"320 694 CURVE SMOOTH"
);
}
);
};
components = (
{
name = A;
},
{
name = ringcomb_acutecomb.case;
transform = "{1, 0, 0, 1, 31, 0}";
}
);
layerId = "C8FFBC04-9D7C-494A-A42D-BACB8E26599D";
width = 662;
},
{
background = {
components = (
{
name = A;
},
{
alignment = -1;
name = ringcomb_acutecomb.case;
transform = "{1, 0, 0, 1, 59, -90}";
}
);
};
color = -1;
components = (
{
name = A;
},
{
alignment = -1;
name = ringcomb_acutecomb.case;
transform = "{1, 0, 0, 1, 59, -90}";
}
);
layerId = "E28BEEB5-BD92-4E7A-B4EA-FC5E5BBBF580";
width = 715;
},
{
background = {
paths = (
{
closed = 1;
nodes = (
"-5 0 LINE",
"223 0 LINE",
"267 142 LINE",
"557 142 LINE",
"602 0 LINE",
"830 0 LINE",
"830 12 LINE",
"606 675 LINE",
"626 699 OFFCURVE",
"638 728 OFFCURVE",
"638 760 CURVE SMOOTH",
"638 821 OFFCURVE",
"598 869 OFFCURVE",
"533 895 CURVE",
"622 1030 LINE",
"387 1030 LINE",
"348 909 LINE",
"254 891 OFFCURVE",
"196 836 OFFCURVE",
"196 760 CURVE SMOOTH",
"196 731 OFFCURVE",
"204 705 OFFCURVE",
"220 683 CURVE",
"-5 12 LINE"
);
},
{
closed = 1;
nodes = (
"414 704 CURVE SMOOTH",
"364 704 OFFCURVE",
"330 726 OFFCURVE",
"330 760 CURVE SMOOTH",
"330 794 OFFCURVE",
"363 816 OFFCURVE",
"414 816 CURVE SMOOTH",
"468 816 OFFCURVE",
"504 794 OFFCURVE",
"504 760 CURVE SMOOTH",
"504 727 OFFCURVE",
"468 704 OFFCURVE"
);
},
{
closed = 1;
nodes = (
"325 328 LINE",
"351 410 LINE",
"402 583 LINE",
"422 583 LINE",
"473 412 LINE",
"499 328 LINE"
);
}
);
};
components = (
{
name = A;
},
{
name = ringcomb_acutecomb.case;
transform = "{1, 0, 0, 1, 138, 0}";
}
);
layerId = "1E90A949-97C4-49F5-AA9A-AF35B6FD63CF";
width = 877;
}
);
leftKerningGroup = KERN_A;
leftMetricsKey = A;
widthMetricsKey = A;
rightKerningGroup = KERN_A;
unicode = 01FA;
},
{
color = 3;
glyphname = AE;
lastChange = "2016-12-04 21:39:24 +0000";
layers = (
{
anchors = (
{
name = bottom;
position = "{426, 0}";
},
{
name = top;
position = "{395, 760}";
}
);
background = {
anchors = (
{
name = topUC;
position = "{482, 760}";
}
);
paths = (
{
closed = 1;
nodes = (
"756 0 LINE",
"756 33 LINE",
"416 33 LINE",
"416 707 LINE",
"751 707 LINE",
"751 740 LINE",
"382 740 LINE",
"382 0 LINE"
);
},
{
closed = 1;
nodes = (
"706 364 LINE",
"706 397 LINE",
"412 397 LINE",
"412 364 LINE"
);
},
{
closed = 1;
nodes = (
"438 297 LINE",
"139 297 LINE",
"129 264 LINE",
"448 264 LINE"
);
},
{
closed = 1;
nodes = (
"267 740 LINE",
"19 0 LINE",
"55 0 LINE",
"294 720 LINE",
"282 720 LINE",
"521 0 LINE",
"558 0 LINE",
"310 740 LINE"
);
}
);
};
color = 4;
layerId = "ECFF4977-BDCC-4836-B4AC-1801CF0EB460";
paths = (
{
closed = 1;
nodes = (
"49 0 LINE",
"290 707 LINE",
"399 707 LINE",
"399 740 LINE",
"267 740 LINE",
"13 0 LINE"
);
},
{
closed = 1;
nodes = (
"412 264 LINE",
"412 297 LINE",
"134 297 LINE",
"124 264 LINE"
);
},
{
closed = 1;
nodes = (
"756 0 LINE",
"756 33 LINE",
"442 33 LINE",
"412 707 LINE",
"751 707 LINE",
"751 740 LINE",
"377 740 LINE",
"409 0 LINE"
);
},
{
closed = 1;
nodes = (
"706 364 LINE",
"706 397 LINE",
"418 397 LINE",
"418 364 LINE"
);
}
);
width = 777;
},
{
anchors = (
{
name = bottom;
position = "{476, 0}";
},
{
name = top;
position = "{476, 760}";
}
);
background = {
paths = (
{
closed = 1;
nodes = (
"185 0 LINE",
"320 593 LINE",
"483 593 LINE",
"483 740 LINE",
"177 740 LINE",
"-5 0 LINE"
);
},
{
closed = 1;
nodes = (
"478 178 LINE",
"478 332 LINE",
"158 332 LINE",
"122 178 LINE"
);
},
{
closed = 1;
nodes = (
"891 0 LINE",
"891 169 LINE",
"619 169 LINE",
"585 571 LINE",
"886 571 LINE",
"886 740 LINE",
"388 740 LINE",
"442 0 LINE"
);
},
{
closed = 1;
nodes = (
"834 295 LINE",
"834 460 LINE",
"538 460 LINE",
"538 295 LINE"
);
}
);
};
color = 4;
layerId = "C8FFBC04-9D7C-494A-A42D-BACB8E26599D";
paths = (
{
closed = 1;
nodes = (
"188 0 LINE",
"318 571 LINE",
"483 571 LINE",
"483 740 LINE",
"177 740 LINE",
"-5 0 LINE"
);
},
{
closed = 1;
nodes = (
"478 172 LINE",
"478 337 LINE",
"158 337 LINE",
"122 172 LINE"
);
},
{
closed = 1;
nodes = (
"891 0 LINE",
"891 169 LINE",
"621 169 LINE",
"586 571 LINE",
"886 571 LINE",
"886 740 LINE",
"390 740 LINE",
"444 0 LINE"
);
},
{
closed = 1;
nodes = (
"834 294 LINE",
"834 461 LINE",
"538 461 LINE",
"538 294 LINE"
);
}
);
width = 919;
},
{
anchors = (
{
name = bottom;
position = "{522, 0}";
},
{
name = top;
position = "{462, 760}";
}
);
background = {
anchors = (
{
name = bottom;
position = "{522, 0}";
},
{
name = top;
position = "{462, 760}";
}
);
paths = (
{
closed = 1;
nodes = (
"58 0 LINE",
"362 707 LINE",
"455 707 LINE",
"457 740 LINE",
"341 740 LINE",
"21 0 LINE"
);
},
{
closed = 1;
nodes = (
"504 264 LINE",
"504 297 LINE",
"173 297 LINE",
"163 264 LINE"
);
},
{
closed = 1;
nodes = (
"925 0 LINE",
"925 33 LINE",
"538 33 LINE",
"480 707 LINE",
"920 707 LINE",
"920 740 LINE",
"444 740 LINE",
"506 0 LINE"
);
},
{
closed = 1;
nodes = (
"870 364 LINE",
"870 397 LINE",
"500 397 LINE",
"500 364 LINE"
);
}
);
};
color = 4;
layerId = "E28BEEB5-BD92-4E7A-B4EA-FC5E5BBBF580";
paths = (
{
closed = 1;
nodes = (
"58 0 LINE",
"362 707 LINE",
"455 707 LINE",
"457 740 LINE",
"341 740 LINE",
"21 0 LINE"
);
},
{
closed = 1;
nodes = (
"504 264 LINE",
"504 297 LINE",
"173 297 LINE",
"163 264 LINE"
);
},
{
closed = 1;
nodes = (
"925 0 LINE",
"925 33 LINE",
"538 33 LINE",
"480 707 LINE",
"920 707 LINE",
"920 740 LINE",
"444 740 LINE",
"506 0 LINE"
);
},
{
closed = 1;
nodes = (
"870 364 LINE",
"870 397 LINE",
"500 397 LINE",
"500 364 LINE"
);
}
);
width = 975;
},
{
anchors = (
{
name = bottom;
position = "{617, 0}";
},
{
name = top;
position = "{617, 760}";
}
);
background = {
anchors = (
{
name = topUC;
position = "{657, 885}";
}
);
paths = (
{
closed = 1;
nodes = (
"237 0 LINE",
"448 642 LINE",
"428 642 LINE",
"639 0 LINE",
"871 0 LINE",
"611 740 LINE",
"267 740 LINE",
"7 0 LINE"
);
},
{
closed = 1;
nodes = (
"627 167 LINE",
"573 342 LINE",
"304 342 LINE",
"249 167 LINE"
);
},
{
closed = 1;
nodes = (
"1186 0 LINE",
"1186 180 LINE",
"780 180 LINE",
"780 560 LINE",
"1181 560 LINE",
"1181 740 LINE",
"545 740 LINE",
"545 0 LINE"
);
},
{
closed = 1;
nodes = (
"1128 290 LINE",
"1128 465 LINE",
"659 465 LINE",
"659 290 LINE"
);
}
);
};
color = 4;
layerId = "1E90A949-97C4-49F5-AA9A-AF35B6FD63CF";
paths = (
{
closed = 1;
nodes = (
"237 0 LINE",
"421 560 LINE",
"600 560 LINE",
"600 740 LINE",
"267 740 LINE",
"7 0 LINE"
);
},
{
closed = 1;
nodes = (
"596 167 LINE",
"596 342 LINE",
"304 342 LINE",
"249 167 LINE"
);
},
{
closed = 1;
nodes = (
"1147 0 LINE",
"1147 180 LINE",
"780 180 LINE",
"741 560 LINE",
"1142 560 LINE",
"1142 740 LINE",
"493 740 LINE",
"557 0 LINE"
);
},
{
closed = 1;
nodes = (
"1089 290 LINE",
"1089 465 LINE",
"620 465 LINE",
"620 290 LINE"
);
}
);
width = 1188;
}
);
leftKerningGroup = KERN_AE_2ND;
leftMetricsKey = A;
rightKerningGroup = KERN_E_1ST;
rightMetricsKey = E;
unicode = 00C6;
},
{
color = 3;
glyphname = B;
lastChange = "2016-12-04 22:19:19 +0000";
layers = (
{
anchors = (
{
name = bottom;
position = "{282, 0}";
},
{
name = top;
position = "{282, 740}";
}
);
background = {
paths = (
{
closed = 1;
nodes = (
"425 -5 OFFCURVE",
"507 63 OFFCURVE",
"507 195 CURVE SMOOTH",
"507 298 OFFCURVE",
"453 372 OFFCURVE",
"330 385 CURVE",
"330 378 LINE",
"450 396 OFFCURVE",
"486 475 OFFCURVE",
"486 557 CURVE SMOOTH",
"486 687 OFFCURVE",
"412 747 OFFCURVE",
"238 747 CURVE SMOOTH",
"174 747 OFFCURVE",
"125 741 OFFCURVE",
"82 733 CURVE",
"82 2 LINE",
"129 -3 OFFCURVE",
"175 -5 OFFCURVE",
"224 -5 CURVE SMOOTH"
);
},
{
closed = 1;
nodes = (
"189 28 OFFCURVE",
"151 29 OFFCURVE",
"116 33 CURVE",
"116 705 LINE",
"151 711 OFFCURVE",
"187 714 OFFCURVE",
"236 714 CURVE SMOOTH",
"393 714 OFFCURVE",
"451 669 OFFCURVE",
"451 557 CURVE SMOOTH",
"451 456 OFFCURVE",
"403 397 OFFCURVE",
"243 397 CURVE SMOOTH",
"108 397 LINE",
"108 364 LINE",
"263 364 LINE SMOOTH",
"408 364 OFFCURVE",
"472 306 OFFCURVE",
"472 193 CURVE SMOOTH",
"472 80 OFFCURVE",
"405 28 OFFCURVE",
"225 28 CURVE SMOOTH"
);
}
);
};
color = 4;
layerId = "ECFF4977-BDCC-4836-B4AC-1801CF0EB460";
paths = (
{
closed = 1;
nodes = (
"425 -5 OFFCURVE",
"507 63 OFFCURVE",
"507 195 CURVE SMOOTH",
"507 298 OFFCURVE",
"453 372 OFFCURVE",
"332 386 CURVE",
"332 379 LINE",
"450 396 OFFCURVE",
"486 475 OFFCURVE",
"486 557 CURVE SMOOTH",
"486 687 OFFCURVE",
"412 747 OFFCURVE",
"238 747 CURVE SMOOTH",
"174 747 OFFCURVE",
"125 741 OFFCURVE",
"82 733 CURVE",
"82 2 LINE",
"129 -3 OFFCURVE",
"175 -5 OFFCURVE",
"224 -5 CURVE SMOOTH"
);
},
{
closed = 1;
nodes = (
"189 28 OFFCURVE",
"151 29 OFFCURVE",
"116 33 CURVE",
"116 705 LINE",
"151 711 OFFCURVE",
"187 714 OFFCURVE",
"236 714 CURVE SMOOTH",
"393 714 OFFCURVE",
"451 669 OFFCURVE",
"451 557 CURVE SMOOTH",
"451 456 OFFCURVE",
"403 397 OFFCURVE",
"243 397 CURVE SMOOTH",
"108 397 LINE",
"108 364 LINE",
"263 364 LINE SMOOTH",
"408 364 OFFCURVE",
"472 306 OFFCURVE",
"472 193 CURVE SMOOTH",
"472 80 OFFCURVE",
"405 28 OFFCURVE",
"225 28 CURVE SMOOTH"
);
}
);
width = 542;
},
{
anchors = (
{
name = bottom;
position = "{307, 0}";
},
{
name = top;
position = "{307, 740}";
}
);
background = {
paths = (
{
closed = 1;
nodes = (
"500 -10 OFFCURVE",
"607 65 OFFCURVE",
"607 209 CURVE SMOOTH",
"607 316 OFFCURVE",
"546 369 OFFCURVE",
"466 384 CURVE",
"466 378 LINE",
"538 396 OFFCURVE",
"586 460 OFFCURVE",
"586 541 CURVE SMOOTH",
"586 687 OFFCURVE",
"486 750 OFFCURVE",
"274 750 CURVE SMOOTH",
"184 750 OFFCURVE",
"111 740 OFFCURVE",
"43 725 CURVE",
"43 7 LINE",
"108 -4 OFFCURVE",
"190 -10 OFFCURVE",
"245 -10 CURVE SMOOTH"
);
},
{
closed = 1;
nodes = (
"283 143 OFFCURVE",
"264 144 OFFCURVE",
"236 147 CURVE",
"236 590 LINE",
"260 595 OFFCURVE",
"281 597 OFFCURVE",
"307 597 CURVE SMOOTH",
"375 597 OFFCURVE",
"401 576 OFFCURVE",
"401 526 CURVE SMOOTH",
"401 477 OFFCURVE",
"376 456 OFFCURVE",
"301 456 CURVE SMOOTH",
"220 456 LINE",
"220 299 LINE",
"314 299 LINE SMOOTH",
"389 299 OFFCURVE",
"422 276 OFFCURVE",
"422 222 CURVE SMOOTH",
"422 166 OFFCURVE",
"391 143 OFFCURVE",
"305 143 CURVE SMOOTH"
);
}
);
};
color = 4;
layerId = "C8FFBC04-9D7C-494A-A42D-BACB8E26599D";
paths = (
{
closed = 1;
nodes = (
"500 -10 OFFCURVE",
"607 65 OFFCURVE",
"607 209 CURVE SMOOTH",
"607 316 OFFCURVE",
"546 369 OFFCURVE",
"466 384 CURVE",
"466 378 LINE",
"538 396 OFFCURVE",
"586 460 OFFCURVE",
"586 541 CURVE SMOOTH",
"586 687 OFFCURVE",
"486 750 OFFCURVE",
"274 750 CURVE SMOOTH",
"199 750 OFFCURVE",
"111 740 OFFCURVE",
"43 725 CURVE",
"43 7 LINE",
"104 -3 OFFCURVE",
"190 -10 OFFCURVE",
"249 -10 CURVE SMOOTH"
);
},
{
closed = 1;
nodes = (
"283 141 OFFCURVE",
"264 142 OFFCURVE",
"236 144 CURVE",
"236 593 LINE",
"260 597 OFFCURVE",
"281 599 OFFCURVE",
"307 599 CURVE SMOOTH",
"375 599 OFFCURVE",
"401 578 OFFCURVE",
"401 527 CURVE SMOOTH",
"401 477 OFFCURVE",
"376 456 OFFCURVE",
"301 456 CURVE SMOOTH",
"220 456 LINE",
"220 299 LINE",
"314 299 LINE SMOOTH",
"389 299 OFFCURVE",
"422 276 OFFCURVE",
"422 221 CURVE SMOOTH",
"422 164 OFFCURVE",
"391 141 OFFCURVE",
"305 141 CURVE SMOOTH"
);
}
);
width = 616;
},
{
anchors = (
{
name = bottom;
position = "{339, 0}";
},
{
name = top;
position = "{339, 740}";
}
);
background = {
paths = (
{
closed = 1;
nodes = (
"139 0 LINE",
"139 266 LINE",
"189 261 OFFCURVE",
"227 259 OFFCURVE",
"275 259 CURVE SMOOTH",
"506 259 OFFCURVE",
"601 348 OFFCURVE",
"601 505 CURVE SMOOTH",
"601 673 OFFCURVE",
"494 747 OFFCURVE",
"302 747 CURVE SMOOTH",
"231 747 OFFCURVE",
"175 741 OFFCURVE",
"105 727 CURVE",
"105 0 LINE"
);
},
{
closed = 1;
nodes = (
"223 292 OFFCURVE",
"182 295 OFFCURVE",
"139 301 CURVE",
"139 700 LINE",
"187 709 OFFCURVE",
"238 714 OFFCURVE",
"302 714 CURVE SMOOTH",
"476 714 OFFCURVE",
"565 650 OFFCURVE",
"565 504 CURVE SMOOTH",
"565 365 OFFCURVE",
"485 292 OFFCURVE",
"275 292 CURVE SMOOTH"
);
}
);
};
color = 4;
layerId = "E28BEEB5-BD92-4E7A-B4EA-FC5E5BBBF580";
paths = (
{
closed = 1;
nodes = (
"533 -5 OFFCURVE",
"622 66 OFFCURVE",
"622 200 CURVE SMOOTH",
"622 299 OFFCURVE",
"568 372 OFFCURVE",
"433 385 CURVE",
"430 377 LINE",
"552 393 OFFCURVE",
"600 460 OFFCURVE",
"600 553 CURVE SMOOTH",
"600 682 OFFCURVE",
"516 747 OFFCURVE",
"316 747 CURVE SMOOTH",
"231 747 OFFCURVE",
"175 741 OFFCURVE",
"105 727 CURVE",
"105 8 LINE",
"182 -2 OFFCURVE",
"231 -5 OFFCURVE",
"298 -5 CURVE SMOOTH"
);
},
{
closed = 1;
nodes = (
"234 28 OFFCURVE",
"188 31 OFFCURVE",
"139 39 CURVE",
"139 700 LINE",
"187 709 OFFCURVE",
"238 714 OFFCURVE",
"317 714 CURVE SMOOTH",
"494 714 OFFCURVE",
"566 668 OFFCURVE",
"566 553 CURVE SMOOTH",
"566 443 OFFCURVE",
"493 397 OFFCURVE",
"347 397 CURVE SMOOTH",
"131 397 LINE",
"131 364 LINE",
"354 364 LINE SMOOTH",
"511 364 OFFCURVE",
"587 315 OFFCURVE",
"587 202 CURVE SMOOTH",
"587 87 OFFCURVE",
"521 28 OFFCURVE",
"299 28 CURVE SMOOTH"
);
}
);
width = 665;
},
{
anchors = (
{
name = bottom;
position = "{397, 0}";
},
{
name = top;
position = "{397, 740}";
}
);
background = {
paths = (
{
closed = 1;
nodes = (
"635 -10 OFFCURVE",
"734 72 OFFCURVE",
"734 205 CURVE SMOOTH",
"734 320 OFFCURVE",
"658 370 OFFCURVE",
"595 384 CURVE",
"595 378 LINE",
"657 396 OFFCURVE",
"715 462 OFFCURVE",
"715 545 CURVE SMOOTH",
"715 682 OFFCURVE",
"612 750 OFFCURVE",
"357 750 CURVE SMOOTH",
"263 750 OFFCURVE",
"144 735 OFFCURVE",
"65 716 CURVE",
"65 6 LINE",
"134 -3 OFFCURVE",
"244 -10 OFFCURVE",
"321 -10 CURVE SMOOTH"
);
},
{
closed = 1;
nodes = (
"352 154 OFFCURVE",
"328 154 OFFCURVE",
"298 156 CURVE",
"298 581 LINE",
"326 586 OFFCURVE",
"351 588 OFFCURVE",
"381 588 CURVE SMOOTH",
"463 588 OFFCURVE",
"492 566 OFFCURVE",
"492 523 CURVE SMOOTH",
"492 484 OFFCURVE",
"464 460 OFFCURVE",
"390 460 CURVE SMOOTH",
"272 460 LINE",
"272 295 LINE",
"410 295 LINE SMOOTH",
"491 295 OFFCURVE",
"518 272 OFFCURVE",
"518 225 CURVE SMOOTH",
"518 178 OFFCURVE",
"487 154 OFFCURVE",
"377 154 CURVE SMOOTH"
);
}
);
};
color = 4;
layerId = "1E90A949-97C4-49F5-AA9A-AF35B6FD63CF";
paths = (
{
closed = 1;
nodes = (
"635 -10 OFFCURVE",
"734 78 OFFCURVE",
"734 215 CURVE SMOOTH",
"734 318 OFFCURVE",
"670 371 OFFCURVE",
"590 384 CURVE",
"590 378 LINE",
"661 394 OFFCURVE",
"715 455 OFFCURVE",
"715 535 CURVE SMOOTH",
"715 672 OFFCURVE",
"612 750 OFFCURVE",
"354 750 CURVE SMOOTH",
"263 750 OFFCURVE",
"144 735 OFFCURVE",
"65 716 CURVE",
"65 6 LINE",
"134 -3 OFFCURVE",
"244 -10 OFFCURVE",
"311 -10 CURVE SMOOTH"
);
},
{
closed = 1;
nodes = (
"352 152 OFFCURVE",
"328 152 OFFCURVE",
"298 155 CURVE",
"298 579 LINE",
"322 584 OFFCURVE",
"353 588 OFFCURVE",
"381 588 CURVE SMOOTH",
"465 588 OFFCURVE",
"492 566 OFFCURVE",
"492 524 CURVE SMOOTH",
"492 484 OFFCURVE",
"466 460 OFFCURVE",
"390 460 CURVE SMOOTH",
"272 460 LINE",
"272 295 LINE",
"410 295 LINE SMOOTH",
"493 295 OFFCURVE",
"518 272 OFFCURVE",
"518 223 CURVE SMOOTH",
"518 178 OFFCURVE",
"489 152 OFFCURVE",
"377 152 CURVE SMOOTH"
);
}
);
width = 760;
}
);
leftKerningGroup = KERN_I_2ND;
leftMetricsKey = H;
unicode = 0042;
userData = {
com.typemytype.robofont.layerData = {
};
};
},
{
color = 3;
glyphname = C;
lastChange = "2016-12-04 22:19:46 +0000";
layers = (
{
anchors = (
{
name = bottom;
position = "{299, 0}";
},
{
name = top;
position = "{294, 760}";
}
);
background = {
paths = (
{
closed = 1;
nodes = (
"970 -9 OFFCURVE",
"1017 2 OFFCURVE",
"1056 16 CURVE",
"1056 50 LINE",
"1005 32 OFFCURVE",
"964 24 OFFCURVE",
"916 24 CURVE SMOOTH",
"773 24 OFFCURVE",
"685 100 OFFCURVE",
"685 371 CURVE SMOOTH",
"685 635 OFFCURVE",
"769 716 OFFCURVE",
"920 716 CURVE SMOOTH",
"965 716 OFFCURVE",
"1006 712 OFFCURVE",
"1056 695 CURVE",
"1056 729 LINE",
"1013 742 OFFCURVE",
"967 749 OFFCURVE",
"924 749 CURVE SMOOTH",
"750 749 OFFCURVE",
"649 652 OFFCURVE",
"649 369 CURVE SMOOTH",
"649 82 OFFCURVE",
"753 -9 OFFCURVE",
"917 -9 CURVE SMOOTH"
);
},
{
closed = 1;
nodes = (
"437 -9 OFFCURVE",
"533 91 OFFCURVE",
"533 370 CURVE SMOOTH",
"533 649 OFFCURVE",
"439 749 OFFCURVE",
"291 749 CURVE SMOOTH",
"143 749 OFFCURVE",
"49 649 OFFCURVE",
"49 370 CURVE SMOOTH",
"49 91 OFFCURVE",
"145 -9 OFFCURVE",
"291 -9 CURVE SMOOTH"
);
},
{
closed = 1;
nodes = (
"167 24 OFFCURVE",
"85 103 OFFCURVE",
"85 372 CURVE SMOOTH",
"85 637 OFFCURVE",
"167 716 OFFCURVE",
"291 716 CURVE SMOOTH",
"415 716 OFFCURVE",
"497 637 OFFCURVE",
"497 368 CURVE SMOOTH",
"497 103 OFFCURVE",
"415 24 OFFCURVE",
"291 24 CURVE SMOOTH"
);
}
);
};
color = 4;
layerId = "ECFF4977-BDCC-4836-B4AC-1801CF0EB460";
paths = (
{
closed = 1;
nodes = (
"370 -9 OFFCURVE",
"417 2 OFFCURVE",
"456 16 CURVE",
"456 50 LINE",
"405 32 OFFCURVE",
"364 24 OFFCURVE",
"316 24 CURVE SMOOTH",
"173 24 OFFCURVE",
"85 100 OFFCURVE",
"85 371 CURVE SMOOTH",
"85 635 OFFCURVE",
"169 716 OFFCURVE",
"320 716 CURVE SMOOTH",
"365 716 OFFCURVE",
"406 712 OFFCURVE",
"456 695 CURVE",
"456 729 LINE",
"413 742 OFFCURVE",
"367 749 OFFCURVE",
"324 749 CURVE SMOOTH",
"150 749 OFFCURVE",
"49 652 OFFCURVE",
"49 369 CURVE SMOOTH",
"49 82 OFFCURVE",
"153 -9 OFFCURVE",
"317 -9 CURVE SMOOTH"
);
}
);
width = 462;
},
{
anchors = (
{
name = bottom;
position = "{343, 0}";
},
{
name = top;
position = "{343, 760}";
}
);
background = {
paths = (
{
closed = 1;
nodes = (
"439 -10 OFFCURVE",
"495 -1 OFFCURVE",
"533 15 CURVE",
"533 179 LINE",
"485 162 OFFCURVE",
"446 155 OFFCURVE",
"413 155 CURVE SMOOTH",
"293 155 OFFCURVE",
"230 210 OFFCURVE",
"230 370 CURVE SMOOTH",
"230 525 OFFCURVE",
"300 585 OFFCURVE",
"423 585 CURVE SMOOTH",
"455 585 OFFCURVE",
"495 578 OFFCURVE",
"533 568 CURVE",
"533 732 LINE",
"494 744 OFFCURVE",
"446 750 OFFCURVE",
"397 750 CURVE SMOOTH",
"164 750 OFFCURVE",
"25 615 OFFCURVE",
"25 368 CURVE SMOOTH",
"25 106 OFFCURVE",
"165 -10 OFFCURVE",
"394 -10 CURVE SMOOTH"
);
}
);
};
color = 4;
layerId = "C8FFBC04-9D7C-494A-A42D-BACB8E26599D";
paths = (
{
closed = 1;
nodes = (
"436 -10 OFFCURVE",
"495 -1 OFFCURVE",
"533 14 CURVE",
"533 178 LINE",
"488 164 OFFCURVE",
"446 155 OFFCURVE",
"413 155 CURVE SMOOTH",
"288 155 OFFCURVE",
"231 205 OFFCURVE",
"231 370 CURVE SMOOTH",
"231 530 OFFCURVE",
"292 585 OFFCURVE",
"413 585 CURVE SMOOTH",
"455 585 OFFCURVE",
"495 579 OFFCURVE",
"533 571 CURVE",
"533 735 LINE",
"491 745 OFFCURVE",
"443 750 OFFCURVE",
"395 750 CURVE SMOOTH",
"164 750 OFFCURVE",
"26 627 OFFCURVE",
"26 368 CURVE SMOOTH",
"26 99 OFFCURVE",
"158 -10 OFFCURVE",
"384 -10 CURVE SMOOTH"
);
}
);
width = 549;
},
{
anchors = (
{
name = bottom;
position = "{387, 0}";
},
{
name = top;
position = "{377, 760}";
}
);
background = {
paths = (
{
closed = 1;
nodes = (
"482 -9 OFFCURVE",
"544 1 OFFCURVE",
"606 24 CURVE",
"606 58 LINE",
"532 32 OFFCURVE",
"476 24 OFFCURVE",
"410 24 CURVE SMOOTH",
"227 24 OFFCURVE",
"102 109 OFFCURVE",
"102 371 CURVE SMOOTH",
"102 619 OFFCURVE",
"221 716 OFFCURVE",
"417 716 CURVE SMOOTH",
"482 716 OFFCURVE",
"546 706 OFFCURVE",
"606 688 CURVE",
"606 722 LINE",
"545 740 OFFCURVE",
"489 749 OFFCURVE",
"418 749 CURVE SMOOTH",
"202 749 OFFCURVE",
"66 632 OFFCURVE",
"66 369 CURVE SMOOTH",
"66 91 OFFCURVE",
"209 -9 OFFCURVE",
"409 -9 CURVE SMOOTH"
);
}
);
};
color = 4;
layerId = "E28BEEB5-BD92-4E7A-B4EA-FC5E5BBBF580";
paths = (
{
closed = 1;
nodes = (
"482 -9 OFFCURVE",
"544 1 OFFCURVE",
"606 24 CURVE",
"606 58 LINE",
"532 32 OFFCURVE",
"476 24 OFFCURVE",
"410 24 CURVE SMOOTH",
"227 24 OFFCURVE",
"102 109 OFFCURVE",
"102 371 CURVE SMOOTH",
"102 619 OFFCURVE",
"221 716 OFFCURVE",
"417 716 CURVE SMOOTH",
"482 716 OFFCURVE",
"546 706 OFFCURVE",
"606 688 CURVE",
"606 722 LINE",
"545 740 OFFCURVE",
"489 749 OFFCURVE",
"418 749 CURVE SMOOTH",
"205 749 OFFCURVE",
"66 636 OFFCURVE",
"66 369 CURVE SMOOTH",
"66 88 OFFCURVE",
"212 -9 OFFCURVE",
"409 -9 CURVE SMOOTH"
);
}
);
width = 630;
},
{
anchors = (
{
name = bottom;
position = "{438, 0}";
},
{
name = top;
position = "{438, 760}";
}
);
background = {
paths = (
{
closed = 1;
nodes = (
"586 -10 OFFCURVE",
"652 -2 OFFCURVE",
"706 10 CURVE",
"706 198 LINE",
"657 188 OFFCURVE",
"599 180 OFFCURVE",
"537 180 CURVE SMOOTH",
"360 180 OFFCURVE",
"288 248 OFFCURVE",
"288 370 CURVE SMOOTH",
"288 492 OFFCURVE",
"360 560 OFFCURVE",
"547 560 CURVE SMOOTH",
"605 560 OFFCURVE",
"657 555 OFFCURVE",
"706 546 CURVE",
"706 734 LINE",
"649 745 OFFCURVE",
"590 750 OFFCURVE",
"527 750 CURVE SMOOTH",
"206 750 OFFCURVE",
"40 601 OFFCURVE",
"40 368 CURVE SMOOTH",
"40 121 OFFCURVE",
"203 -10 OFFCURVE",
"522 -10 CURVE SMOOTH"
);
}
);
};
color = 4;
layerId = "1E90A949-97C4-49F5-AA9A-AF35B6FD63CF";
paths = (
{
closed = 1;
nodes = (
"586 -10 OFFCURVE",
"652 -2 OFFCURVE",
"706 10 CURVE",
"706 198 LINE",
"657 188 OFFCURVE",
"599 180 OFFCURVE",
"537 180 CURVE SMOOTH",
"360 180 OFFCURVE",
"288 248 OFFCURVE",
"288 370 CURVE SMOOTH",
"288 492 OFFCURVE",
"360 560 OFFCURVE",
"547 560 CURVE SMOOTH",
"605 560 OFFCURVE",
"657 555 OFFCURVE",
"706 546 CURVE",
"706 734 LINE",
"649 745 OFFCURVE",
"590 750 OFFCURVE",
"527 750 CURVE SMOOTH",
"205 750 OFFCURVE",
"40 601 OFFCURVE",
"40 368 CURVE SMOOTH",
"40 121 OFFCURVE",
"202 -10 OFFCURVE",
"522 -10 CURVE SMOOTH"
);
}
);
width = 741;
}
);
leftKerningGroup = KERN_O_2ND;
leftMetricsKey = O;
rightKerningGroup = KERN_C_1ST;
unicode = 0043;
userData = {
com.typemytype.robofont.layerData = {
};
};
},
{
color = 3;
glyphname = D;
lastChange = "2016-12-04 22:10:30 +0000";
layers = (
{
anchors = (
{
name = bottom;
position = "{258, 0}";
},
{
name = center;
position = "{289, 370}";
},
{
name = stroke;
position = "{82, 381}";
},
{
name = top;
position = "{258, 760}";
}
);
background = {
paths = (
{
closed = 1;
nodes = (
"116 0 LINE",
"116 263 LINE",
"145 260 OFFCURVE",
"173 259 OFFCURVE",
"204 259 CURVE SMOOTH",
"395 259 OFFCURVE",
"481 343 OFFCURVE",
"481 502 CURVE SMOOTH",
"481 670 OFFCURVE",
"395 747 OFFCURVE",
"225 747 CURVE SMOOTH",
"174 747 OFFCURVE",
"125 741 OFFCURVE",
"82 734 CURVE",
"82 0 LINE"
);
},
{
closed = 1;
nodes = (
"176 292 OFFCURVE",
"146 293 OFFCURVE",
"116 297 CURVE",
"116 706 LINE",
"151 711 OFFCURVE",
"187 714 OFFCURVE",
"225 714 CURVE SMOOTH",
"375 714 OFFCURVE",
"445 650 OFFCURVE",
"445 500 CURVE SMOOTH",
"445 359 OFFCURVE",
"370 292 OFFCURVE",
"207 292 CURVE SMOOTH"
);
}
);
};
color = 4;
layerId = "ECFF4977-BDCC-4836-B4AC-1801CF0EB460";
paths = (
{
closed = 1;
nodes = (
"417 -5 OFFCURVE",
"529 103 OFFCURVE",
"529 370 CURVE SMOOTH",
"529 629 OFFCURVE",
"426 747 OFFCURVE",
"221 747 CURVE SMOOTH",
"174 747 OFFCURVE",
"125 741 OFFCURVE",
"82 734 CURVE",
"82 2 LINE",
"134 -3 OFFCURVE",
"169 -5 OFFCURVE",
"207 -5 CURVE SMOOTH"
);
},
{
closed = 1;
nodes = (
"177 28 OFFCURVE",
"149 29 OFFCURVE",
"116 33 CURVE",
"116 706 LINE",
"151 711 OFFCURVE",
"187 714 OFFCURVE",
"219 714 CURVE SMOOTH",
"408 714 OFFCURVE",
"493 612 OFFCURVE",
"493 370 CURVE SMOOTH",
"493 123 OFFCURVE",
"399 28 OFFCURVE",
"208 28 CURVE SMOOTH"
);
}
);
width = 578;
},
{
anchors = (
{
name = bottom;
position = "{318, 0}";
},
{
name = center;
position = "{325, 370}";
},
{
name = stroke;
position = "{43, 381}";
},
{
name = top;
position = "{308, 760}";
}
);
background = {
paths = (
{
closed = 1;
nodes = (
"239 0 LINE",
"239 198 LINE",
"256 198 OFFCURVE",
"268 197 OFFCURVE",
"288 197 CURVE SMOOTH",
"478 197 OFFCURVE",
"585 290 OFFCURVE",
"585 473 CURVE SMOOTH",
"585 665 OFFCURVE",
"477 750 OFFCURVE",
"264 750 CURVE SMOOTH",
"184 750 OFFCURVE",
"111 740 OFFCURVE",
"43 725 CURVE",
"43 0 LINE"
);
},
{
closed = 1;
nodes = (
"268 354 OFFCURVE",
"254 355 OFFCURVE",
"239 357 CURVE",
"239 589 LINE",
"252 592 OFFCURVE",
"263 593 OFFCURVE",
"283 593 CURVE SMOOTH",
"359 593 OFFCURVE",
"395 557 OFFCURVE",
"395 471 CURVE SMOOTH",
"395 385 OFFCURVE",
"359 354 OFFCURVE",
"288 354 CURVE SMOOTH"
);
}
);
};
color = 4;
layerId = "C8FFBC04-9D7C-494A-A42D-BACB8E26599D";
paths = (
{
closed = 1;
nodes = (
"506 -10 OFFCURVE",
"638 106 OFFCURVE",
"638 370 CURVE SMOOTH",
"638 632 OFFCURVE",
"513 750 OFFCURVE",
"262 750 CURVE SMOOTH",
"184 750 OFFCURVE",
"111 740 OFFCURVE",
"43 725 CURVE",
"43 1 LINE",
"103 -6 OFFCURVE",
"173 -10 OFFCURVE",
"235 -10 CURVE SMOOTH"
);
},
{
closed = 1;
nodes = (
"278 153 OFFCURVE",
"261 153 OFFCURVE",
"239 154 CURVE",
"239 583 LINE",
"251 586 OFFCURVE",
"272 588 OFFCURVE",
"286 588 CURVE SMOOTH",
"379 588 OFFCURVE",
"438 539 OFFCURVE",
"438 370 CURVE SMOOTH",
"438 202 OFFCURVE",
"383 153 OFFCURVE",
"289 153 CURVE SMOOTH"
);
}
);
width = 664;
},
{
anchors = (
{
name = bottom;
position = "{350, 0}";
},
{
name = center;
position = "{379, 370}";
},
{
name = stroke;
position = "{105, 381}";
},
{
name = top;
position = "{350, 760}";
}
);
background = {
paths = (
{
closed = 1;
nodes = (
"559 -5 OFFCURVE",
"693 119 OFFCURVE",
"693 370 CURVE SMOOTH",
"693 621 OFFCURVE",
"559 747 OFFCURVE",
"305 747 CURVE SMOOTH",
"244 747 OFFCURVE",
"175 741 OFFCURVE",
"105 727 CURVE",
"105 8 LINE",
"182 -2 OFFCURVE",
"231 -5 OFFCURVE",
"298 -5 CURVE SMOOTH"
);
},
{
closed = 1;
nodes = (
"229 28 OFFCURVE",
"182 32 OFFCURVE",
"139 39 CURVE",
"139 699 LINE",
"198 709 OFFCURVE",
"250 714 OFFCURVE",
"302 714 CURVE SMOOTH",
"537 714 OFFCURVE",
"657 604 OFFCURVE",
"657 370 CURVE SMOOTH",
"657 136 OFFCURVE",
"537 28 OFFCURVE",
"299 28 CURVE SMOOTH"
);
}
);
};
color = 4;
layerId = "E28BEEB5-BD92-4E7A-B4EA-FC5E5BBBF580";
paths = (
{
closed = 1;
nodes = (
"559 -5 OFFCURVE",
"693 119 OFFCURVE",
"693 370 CURVE SMOOTH",
"693 621 OFFCURVE",
"559 747 OFFCURVE",
"305 747 CURVE SMOOTH",
"244 747 OFFCURVE",
"172 741 OFFCURVE",
"105 727 CURVE",
"105 8 LINE",
"182 -2 OFFCURVE",
"231 -5 OFFCURVE",
"298 -5 CURVE SMOOTH"
);
},
{
closed = 1;
nodes = (
"229 28 OFFCURVE",
"182 32 OFFCURVE",
"139 39 CURVE",
"139 700 LINE",
"198 709 OFFCURVE",
"250 714 OFFCURVE",
"302 714 CURVE SMOOTH",
"537 714 OFFCURVE",
"657 604 OFFCURVE",
"657 370 CURVE SMOOTH",
"657 136 OFFCURVE",
"537 28 OFFCURVE",
"299 28 CURVE SMOOTH"
);
}
);
width = 759;
},
{
anchors = (
{
name = bottom;
position = "{397, 0}";
},
{
name = center;
position = "{443, 370}";
},
{
name = stroke;
position = "{65, 381}";
},
{
name = top;
position = "{387, 760}";
}
);
background = {
anchors = (
{
name = bottom;
position = "{397, -110}";
},
{
name = topUC;
position = "{387, 885}";
}
);
paths = (
{
closed = 1;
nodes = (
"1218 -5 OFFCURVE",
"1320 -10 OFFCURVE",
"1412 -10 CURVE SMOOTH",
"1776 -10 OFFCURVE",
"1918 96 OFFCURVE",
"1918 369 CURVE SMOOTH",
"1918 633 OFFCURVE",
"1780 750 OFFCURVE",
"1469 750 CURVE SMOOTH",
"1398 750 OFFCURVE",
"1304 746 OFFCURVE",
"1165 738 CURVE",
"1165 3 LINE"
);
},
{
closed = 1;
nodes = (
"1678 217 OFFCURVE",
"1640 173 OFFCURVE",
"1510 173 CURVE SMOOTH",
"1472 173 OFFCURVE",
"1429 176 OFFCURVE",
"1400 181 CURVE",
"1400 561 LINE",
"1452 565 OFFCURVE",
"1480 566 OFFCURVE",
"1504 566 CURVE SMOOTH",
"1635 566 OFFCURVE",
"1678 517 OFFCURVE",
"1678 369 CURVE SMOOTH"
);
},
{
closed = 1;
nodes = (
"678 -7 OFFCURVE",
"853 109 OFFCURVE",
"853 370 CURVE SMOOTH",
"853 629 OFFCURVE",
"687 747 OFFCURVE",
"355 747 CURVE SMOOTH",
"269 747 OFFCURVE",
"159 738 OFFCURVE",
"65 722 CURVE",
"65 4 LINE",
"145 -3 OFFCURVE",
"237 -7 OFFCURVE",
"320 -7 CURVE SMOOTH"
);
},
{
closed = 1;
nodes = (
"365 178 OFFCURVE",
"337 178 OFFCURVE",
"303 179 CURVE",
"303 559 LINE",
"322 561 OFFCURVE",
"355 563 OFFCURVE",
"376 563 CURVE SMOOTH",
"521 563 OFFCURVE",
"614 519 OFFCURVE",
"614 369 CURVE SMOOTH",
"614 222 OFFCURVE",
"528 178 OFFCURVE",
"381 178 CURVE SMOOTH"
);
}
);
};
color = 4;
layerId = "1E90A949-97C4-49F5-AA9A-AF35B6FD63CF";
paths = (
{
closed = 1;
nodes = (
"681 -7 OFFCURVE",
"857 99 OFFCURVE",
"857 370 CURVE SMOOTH",
"857 629 OFFCURVE",
"690 747 OFFCURVE",
"370 747 CURVE SMOOTH",
"270 747 OFFCURVE",
"146 735 OFFCURVE",
"65 716 CURVE",
"65 7 LINE",
"145 -3 OFFCURVE",
"247 -7 OFFCURVE",
"316 -7 CURVE SMOOTH"
);
},
{
closed = 1;
nodes = (
"352 179 OFFCURVE",
"327 179 OFFCURVE",
"303 181 CURVE",
"303 554 LINE",
"325 558 OFFCURVE",
"358 562 OFFCURVE",
"381 562 CURVE SMOOTH",
"541 562 OFFCURVE",
"618 504 OFFCURVE",
"618 372 CURVE SMOOTH",
"618 236 OFFCURVE",
"546 179 OFFCURVE",
"381 179 CURVE SMOOTH"
);
}
);
width = 897;
}
);
leftKerningGroup = KERN_I_2ND;
leftMetricsKey = H;
rightKerningGroup = KERN_D_1ST;
rightMetricsKey = O;
unicode = 0044;
userData = {
com.typemytype.robofont.layerData = {
};
};
},
{
color = 6;
glyphname = Eth;
lastChange = "2016-12-04 22:08:55 +0000";
layers = (
{
background = {
components = (
{
name = D;
transform = "{1, 0, 0, 1, 20, 0}";
}
);
paths = (
{
closed = 1;
nodes = (
"11 351 LINE",
"298 351 LINE",
"298 385 LINE",
"11 385 LINE"
);
}
);
};
color = 4;
components = (
{
alignment = 1;
name = D;
},
{
name = strokeshortcomb.D;
transform = "{1, 0, 0, 1, -148, -159}";
}
);
layerId = "ECFF4977-BDCC-4836-B4AC-1801CF0EB460";
width = 579;
},
{
background = {
components = (
{
name = D;
transform = "{1, 0, 0, 1, 10, 0}";
}
);
paths = (
{
closed = 1;
nodes = (
"322 301 LINE",
"322 446 LINE",
"-19 446 LINE",
"-19 301 LINE"
);
}
);
};
components = (
{
alignment = 1;
name = D;
},
{
name = strokeshortcomb.D;
transform = "{1, 0, 0, 1, -125, -169}";
}
);
layerId = "C8FFBC04-9D7C-494A-A42D-BACB8E26599D";
width = 664;
},
{
background = {
components = (
{
name = D;
},
{
name = strokeshortcomb.h;
transform = "{1, 0, 0, 1, -192, -158}";
}
);
};
color = 4;
components = (
{
alignment = 1;
name = D;
},
{
name = strokeshortcomb.D;
transform = "{1, 0, 0, 1, -115, -159}";
}
);
layerId = "E28BEEB5-BD92-4E7A-B4EA-FC5E5BBBF580";
width = 759;
},
{
background = {
components = (
{
name = D;
transform = "{1, 0, 0, 1, 10, 0}";
}
);
paths = (
{
closed = 1;
nodes = (
"-13 288 LINE",
"408 288 LINE",
"408 462 LINE",
"-13 462 LINE"
);
}
);
};
components = (
{
alignment = 1;
name = D;
},
{
name = strokeshortcomb.D;
transform = "{1, 0, 0, 1, -99, -169}";
}
);
layerId = "1E90A949-97C4-49F5-AA9A-AF35B6FD63CF";
width = 897;
}
);
leftKerningGroup = KERN_I_2ND;
widthMetricsKey = "=D+10";
rightKerningGroup = KERN_D_1ST;
rightMetricsKey = O;
unicode = 00D0;
},
{
color = 6;
glyphname = Dcroat;
lastChange = "2016-12-04 22:08:55 +0000";
layers = (
{
background = {
components = (
{
name = D;
transform = "{1, 0, 0, 1, 9, 0}";
}
);
paths = (
{
closed = 1;
nodes = (
"0 351 LINE",
"287 351 LINE",
"287 385 LINE",
"0 385 LINE"
);
}
);
};
color = -1;
components = (
{
name = Eth;
}
);
layerId = "ECFF4977-BDCC-4836-B4AC-1801CF0EB460";
width = 579;
},
{
background = {
components = (
{
name = Eth;
}
);
};
components = (
{
name = Eth;
}
);
layerId = "C8FFBC04-9D7C-494A-A42D-BACB8E26599D";
width = 664;
},
{
background = {
components = (
{
name = Eth;
}
);
};
color = -1;
components = (
{
name = Eth;
}
);
layerId = "E28BEEB5-BD92-4E7A-B4EA-FC5E5BBBF580";
width = 759;
},
{
background = {
components = (
{
name = D;
transform = "{1, 0, 0, 1, 28, 0}";
}
);
paths = (
{
closed = 1;
nodes = (
"5 288 LINE",
"426 288 LINE",
"426 462 LINE",
"5 462 LINE"
);
}
);
};
components = (
{
name = Eth;
}
);
layerId = "1E90A949-97C4-49F5-AA9A-AF35B6FD63CF";
width = 897;
}
);
leftKerningGroup = KERN_I_2ND;
rightKerningGroup = KERN_D_1ST;
unicode = 0110;
},
{
color = 3;
glyphname = E;
lastChange = "2016-12-04 22:22:43 +0000";
layers = (
{
anchors = (
{
name = bottom;
position = "{278, 0}";
},
{
name = ogonek;
position = "{416, 0}";
},
{
name = top;
position = "{278, 760}";
},
{
name = topleft;
position = "{18, 740}";
}
);
background = {
anchors = (
{
name = bottom;
position = "{278, 0}";
},
{
name = ogonek;
position = "{449, 0}";
},
{
name = topUC;
position = "{258, 760}";
}
);
paths = (
{
closed = 1;
nodes = (
"116 0 LINE",
"116 364 LINE",
"494 364 LINE",
"494 0 LINE",
"528 0 LINE",
"528 740 LINE",
"494 740 LINE",
"494 397 LINE",
"116 397 LINE",
"116 740 LINE",
"82 740 LINE",
"82 0 LINE"
);
}
);
};
color = 4;
layerId = "ECFF4977-BDCC-4836-B4AC-1801CF0EB460";
paths = (
{
closed = 1;
nodes = (
"456 0 LINE",
"456 33 LINE",
"116 33 LINE",
"116 707 LINE",
"451 707 LINE",
"451 740 LINE",
"82 740 LINE",
"82 0 LINE"
);
},
{
closed = 1;
nodes = (
"406 364 LINE",
"406 397 LINE",
"112 397 LINE",
"112 364 LINE"
);
}
);
width = 473;
},
{
anchors = (
{
name = bottom;
position = "{297, 0}";
},
{
name = ogonek;
position = "{494, 0}";
},
{
name = top;
position = "{297, 760}";
},
{
name = topleft;
position = "{17, 740}";
}
);
background = {
paths = (
{
closed = 1;
nodes = (
"239 0 LINE",
"239 288 LINE",
"442 288 LINE",
"442 0 LINE",
"638 0 LINE",
"638 740 LINE",
"442 740 LINE",
"442 467 LINE",
"239 467 LINE",
"239 740 LINE",
"43 740 LINE",
"43 0 LINE"
);
}
);
};
color = 4;
layerId = "C8FFBC04-9D7C-494A-A42D-BACB8E26599D";
paths = (
{
closed = 1;
nodes = (
"534 0 LINE",
"534 169 LINE",
"236 169 LINE",
"236 571 LINE",
"529 571 LINE",
"529 740 LINE",
"43 740 LINE",
"43 0 LINE"
);
},
{
closed = 1;
nodes = (
"477 294 LINE",
"477 461 LINE",
"182 461 LINE",
"182 294 LINE"
);
}
);
width = 562;
},
{
anchors = (
{
name = bottom;
position = "{355, 0}";
},
{
name = ogonek;
position = "{545, 0}";
},
{
name = top;
position = "{353, 760}";
},
{
name = topleft;
position = "{20, 740}";
}
);
background = {
anchors = (
{
name = bottom;
position = "{345, 0}";
},
{
name = ogonek;
position = "{545, 0}";
},
{
name = top;
position = "{343, 760}";
},
{
name = topleft;
position = "{20, 740}";
}
);
paths = (
{
closed = 1;
nodes = (
"139 0 LINE",
"139 364 LINE",
"643 364 LINE",
"643 0 LINE",
"677 0 LINE",
"677 740 LINE",
"643 740 LINE",
"643 397 LINE",
"139 397 LINE",
"139 740 LINE",
"105 740 LINE",
"105 0 LINE"
);
}
);
};
color = 4;
layerId = "E28BEEB5-BD92-4E7A-B4EA-FC5E5BBBF580";
paths = (
{
closed = 1;
nodes = (
"585 0 LINE",
"585 33 LINE",
"139 33 LINE",
"139 707 LINE",
"580 707 LINE",
"580 740 LINE",
"105 740 LINE",
"105 0 LINE"
);
},
{
closed = 1;
nodes = (
"530 364 LINE",
"530 397 LINE",
"125 397 LINE",
"125 364 LINE"
);
}
);
width = 636;
},
{
anchors = (
{
name = bottom;
position = "{394, 0}";
},
{
name = ogonek;
position = "{656, 0}";
},
{
name = top;
position = "{394, 760}";
},
{
name = topleft;
position = "{20, 740}";
}
);
background = {
paths = (
{
closed = 1;
nodes = (
"706 0 LINE",
"706 184 LINE",
"300 184 LINE",
"300 556 LINE",
"701 556 LINE",
"701 740 LINE",
"65 740 LINE",
"65 0 LINE"
);
},
{
closed = 1;
nodes = (
"648 289 LINE",
"648 466 LINE",
"179 466 LINE",
"179 289 LINE"
);
}
);
};
color = 4;
layerId = "1E90A949-97C4-49F5-AA9A-AF35B6FD63CF";
paths = (
{
closed = 1;
nodes = (
"706 0 LINE",
"706 180 LINE",
"300 180 LINE",
"300 560 LINE",
"701 560 LINE",
"701 740 LINE",
"65 740 LINE",
"65 0 LINE"
);
},
{
closed = 1;
nodes = (
"648 290 LINE",
"648 465 LINE",
"179 465 LINE",
"179 290 LINE"
);
}
);
width = 747;
}
);
leftKerningGroup = KERN_I_2ND;
leftMetricsKey = H;
rightKerningGroup = KERN_E_1ST;
unicode = 0045;
userData = {
com.typemytype.robofont.layerData = {
};
};
},
{
color = 3;
glyphname = F;
lastChange = "2016-12-04 22:22:50 +0000";
layers = (
{
background = {
paths = (
{
closed = 1;
nodes = (
"456 0 LINE",
"456 33 LINE",
"116 33 LINE",
"116 707 LINE",
"451 707 LINE",
"451 740 LINE",
"82 740 LINE",
"82 0 LINE"
);
},
{
closed = 1;
nodes = (
"406 364 LINE",
"406 397 LINE",
"112 397 LINE",
"112 364 LINE"
);
}
);
};
color = 4;
layerId = "ECFF4977-BDCC-4836-B4AC-1801CF0EB460";
paths = (
{
closed = 1;
nodes = (
"116 0 LINE",
"116 707 LINE",
"446 707 LINE",
"446 740 LINE",
"82 740 LINE",
"82 0 LINE"
);
},
{
closed = 1;
nodes = (
"401 364 LINE",
"401 397 LINE",
"112 397 LINE",
"112 364 LINE"
);
}
);
width = 455;
},
{
background = {
paths = (
{
closed = 1;
nodes = (
"534 0 LINE",
"534 169 LINE",
"236 169 LINE",
"236 571 LINE",
"529 571 LINE",
"529 740 LINE",
"43 740 LINE",
"43 0 LINE"
);
},
{
closed = 1;
nodes = (
"477 295 LINE",
"477 460 LINE",
"182 460 LINE",
"182 295 LINE"
);
}
);
};
color = 4;
layerId = "C8FFBC04-9D7C-494A-A42D-BACB8E26599D";
paths = (
{
closed = 1;
nodes = (
"239 0 LINE",
"239 567 LINE",
"529 567 LINE",
"529 740 LINE",
"43 740 LINE",
"43 0 LINE"
);
},
{
closed = 1;
nodes = (
"480 267 LINE",
"480 440 LINE",
"182 440 LINE",
"182 267 LINE"
);
}
);
width = 533;
},
{
background = {
anchors = (
{
name = bottom;
position = "{303, 0}";
},
{
name = top;
position = "{303, 740}";
}
);
paths = (
{
closed = 1;
nodes = (
"139 0 LINE",
"139 707 LINE",
"575 707 LINE",
"575 740 LINE",
"105 740 LINE",
"105 0 LINE"
);
},
{
closed = 1;
nodes = (
"525 364 LINE",
"525 397 LINE",
"135 397 LINE",
"135 364 LINE"
);
}
);
};
color = 4;
layerId = "E28BEEB5-BD92-4E7A-B4EA-FC5E5BBBF580";
paths = (
{
closed = 1;
nodes = (
"139 0 LINE",
"139 707 LINE",
"575 707 LINE",
"575 740 LINE",
"105 740 LINE",
"105 0 LINE"
);
},
{
closed = 1;
nodes = (
"525 364 LINE",
"525 397 LINE",
"135 397 LINE",
"135 364 LINE"
);
}
);
width = 613;
},
{
background = {
paths = (
{
closed = 1;
nodes = (
"300 0 LINE",
"300 560 LINE",
"701 560 LINE",
"701 740 LINE",
"65 740 LINE",
"65 0 LINE"
);
},
{
closed = 1;
nodes = (
"641 267 LINE",
"641 444 LINE",
"195 444 LINE",
"195 267 LINE"
);
}
);
};
color = 4;
layerId = "1E90A949-97C4-49F5-AA9A-AF35B6FD63CF";
paths = (
{
closed = 1;
nodes = (
"303 0 LINE",
"303 556 LINE",
"701 556 LINE",
"701 740 LINE",
"65 740 LINE",
"65 0 LINE"
);
},
{
closed = 1;
nodes = (
"645 265 LINE",
"645 445 LINE",
"195 445 LINE",
"195 265 LINE"
);
}
);
width = 736;
}
);
leftKerningGroup = KERN_I_2ND;
leftMetricsKey = H;
unicode = 0046;
userData = {
com.typemytype.robofont.layerData = {
};
};
},
{
color = 3;
glyphname = G;
lastChange = "2016-12-04 22:24:48 +0000";
layers = (
{
anchors = (
{
name = bottom;
position = "{309, 0}";
},
{
name = top;
position = "{309, 760}";
}
);
background = {
paths = (
{
closed = 1;
nodes = (
"405 -5 OFFCURVE",
"440 -2 OFFCURVE",
"489 7 CURVE",
"489 360 LINE",
"455 360 LINE",
"455 20 LINE",
"466 38 LINE",
"434 31 OFFCURVE",
"401 28 OFFCURVE",
"366 28 CURVE SMOOTH",
"175 28 OFFCURVE",
"85 106 OFFCURVE",
"85 369 CURVE SMOOTH",
"85 636 OFFCURVE",
"180 716 OFFCURVE",
"339 716 CURVE SMOOTH",
"385 716 OFFCURVE",
"430 711 OFFCURVE",
"480 695 CURVE",
"480 729 LINE",
"437 742 OFFCURVE",
"387 749 OFFCURVE",
"342 749 CURVE SMOOTH",
"161 749 OFFCURVE",
"49 654 OFFCURVE",
"49 369 CURVE SMOOTH",
"49 87 OFFCURVE",
"155 -5 OFFCURVE",
"365 -5 CURVE SMOOTH"
);
}
);
};
color = 4;
layerId = "ECFF4977-BDCC-4836-B4AC-1801CF0EB460";
paths = (
{
closed = 1;
nodes = (
"405 -5 OFFCURVE",
"440 -2 OFFCURVE",
"489 7 CURVE",
"489 360 LINE",
"455 360 LINE",
"455 20 LINE",
"466 38 LINE",
"434 31 OFFCURVE",
"401 28 OFFCURVE",
"366 28 CURVE SMOOTH",
"178 28 OFFCURVE",
"85 109 OFFCURVE",
"85 369 CURVE SMOOTH",
"85 636 OFFCURVE",
"180 716 OFFCURVE",
"339 716 CURVE SMOOTH",
"385 716 OFFCURVE",
"430 711 OFFCURVE",
"480 695 CURVE",
"480 729 LINE",
"437 742 OFFCURVE",
"387 749 OFFCURVE",
"342 749 CURVE SMOOTH",
"161 749 OFFCURVE",
"49 654 OFFCURVE",
"49 369 CURVE SMOOTH",
"49 90 OFFCURVE",
"159 -5 OFFCURVE",
"366 -5 CURVE SMOOTH"
);
}
);
width = 553;
},
{
anchors = (
{
name = bottom;
position = "{374, 0}";
},
{
name = top;
position = "{374, 760}";
}
);
background = {
paths = (
{
closed = 1;
nodes = (
"477 -10 OFFCURVE",
"540 -4 OFFCURVE",
"597 5 CURVE",
"597 360 LINE",
"416 360 LINE",
"416 112 LINE",
"475 159 LINE",
"455 156 OFFCURVE",
"427 154 OFFCURVE",
"402 154 CURVE SMOOTH",
"291 154 OFFCURVE",
"229 210 OFFCURVE",
"229 367 CURVE SMOOTH",
"229 530 OFFCURVE",
"292 585 OFFCURVE",
"447 585 CURVE SMOOTH",
"493 585 OFFCURVE",
"533 578 OFFCURVE",
"578 568 CURVE",
"578 732 LINE",
"531 744 OFFCURVE",
"486 750 OFFCURVE",
"424 750 CURVE SMOOTH",
"167 750 OFFCURVE",
"26 627 OFFCURVE",
"26 370 CURVE SMOOTH",
"26 109 OFFCURVE",
"161 -10 OFFCURVE",
"424 -10 CURVE SMOOTH"
);
}
);
};
color = 4;
layerId = "C8FFBC04-9D7C-494A-A42D-BACB8E26599D";
paths = (
{
closed = 1;
nodes = (
"477 -10 OFFCURVE",
"540 -4 OFFCURVE",
"597 5 CURVE",
"597 360 LINE",
"416 360 LINE",
"416 112 LINE",
"475 159 LINE",
"455 156 OFFCURVE",
"427 154 OFFCURVE",
"402 154 CURVE SMOOTH",
"291 154 OFFCURVE",
"229 210 OFFCURVE",
"229 367 CURVE SMOOTH",
"229 530 OFFCURVE",
"292 585 OFFCURVE",
"447 585 CURVE SMOOTH",
"493 585 OFFCURVE",
"533 578 OFFCURVE",
"578 568 CURVE",
"578 732 LINE",
"531 744 OFFCURVE",
"486 750 OFFCURVE",
"424 750 CURVE SMOOTH",
"167 750 OFFCURVE",
"26 627 OFFCURVE",
"26 370 CURVE SMOOTH",
"26 109 OFFCURVE",
"161 -10 OFFCURVE",
"424 -10 CURVE SMOOTH"
);
}
);
width = 624;
},
{
anchors = (
{
name = bottom;
position = "{397, 0}";
},
{
name = top;
position = "{397, 760}";
}
);
background = {
paths = (
{
closed = 1;
nodes = (
"520 -5 OFFCURVE",
"569 -2 OFFCURVE",
"644 10 CURVE",
"644 359 LINE",
"610 359 LINE",
"610 40 LINE",
"569 32 OFFCURVE",
"522 28 OFFCURVE",
"458 28 CURVE SMOOTH",
"225 28 OFFCURVE",
"103 139 OFFCURVE",
"102 371 CURVE SMOOTH",
"101 619 OFFCURVE",
"245 716 OFFCURVE",
"434 716 CURVE SMOOTH",
"488 716 OFFCURVE",
"545 710 OFFCURVE",
"624 688 CURVE",
"624 722 LINE",
"555 740 OFFCURVE",
"498 749 OFFCURVE",
"432 749 CURVE SMOOTH",
"226 749 OFFCURVE",
"65 637 OFFCURVE",
"66 369 CURVE SMOOTH",
"67 119 OFFCURVE",
"203 -5 OFFCURVE",
"458 -5 CURVE SMOOTH"
);
}
);
};
color = 4;
layerId = "E28BEEB5-BD92-4E7A-B4EA-FC5E5BBBF580";
paths = (
{
closed = 1;
nodes = (
"520 -5 OFFCURVE",
"569 -2 OFFCURVE",
"644 10 CURVE",
"644 360 LINE",
"610 360 LINE",
"610 25 LINE",
"621 42 LINE",
"576 33 OFFCURVE",
"526 28 OFFCURVE",
"458 28 CURVE SMOOTH",
"225 28 OFFCURVE",
"103 139 OFFCURVE",
"102 371 CURVE SMOOTH",
"101 619 OFFCURVE",
"245 716 OFFCURVE",
"434 716 CURVE SMOOTH",
"488 716 OFFCURVE",
"545 710 OFFCURVE",
"624 688 CURVE",
"624 722 LINE",
"555 740 OFFCURVE",
"498 749 OFFCURVE",
"432 749 CURVE SMOOTH",
"226 749 OFFCURVE",
"65 637 OFFCURVE",
"66 369 CURVE SMOOTH",
"67 119 OFFCURVE",
"203 -5 OFFCURVE",
"458 -5 CURVE SMOOTH"
);
}
);
width = 743;
},
{
anchors = (
{
name = bottom;
position = "{468, 0}";
},
{
name = top;
position = "{468, 760}";
}
);
background = {
paths = (
{
closed = 1;
nodes = (
"622 -10 OFFCURVE",
"695 -2 OFFCURVE",
"768 10 CURVE",
"768 360 LINE",
"547 360 LINE",
"547 77 LINE",
"676 188 LINE",
"633 182 OFFCURVE",
"578 178 OFFCURVE",
"532 178 CURVE SMOOTH",
"357 178 OFFCURVE",
"282 248 OFFCURVE",
"282 362 CURVE SMOOTH",
"282 491 OFFCURVE",
"360 559 OFFCURVE",
"576 560 CURVE SMOOTH",
"633 560 OFFCURVE",
"690 555 OFFCURVE",
"739 546 CURVE",
"739 734 LINE",
"681 745 OFFCURVE",
"613 750 OFFCURVE",
"558 750 CURVE SMOOTH",
"207 750 OFFCURVE",
"40 601 OFFCURVE",
"40 366 CURVE SMOOTH",
"40 121 OFFCURVE",
"202 -10 OFFCURVE",
"546 -10 CURVE SMOOTH"
);
}
);
};
color = 4;
layerId = "1E90A949-97C4-49F5-AA9A-AF35B6FD63CF";
paths = (
{
closed = 1;
nodes = (
"622 -10 OFFCURVE",
"695 -2 OFFCURVE",
"768 10 CURVE",
"768 360 LINE",
"547 360 LINE",
"547 77 LINE",
"676 188 LINE",
"633 182 OFFCURVE",
"578 178 OFFCURVE",
"532 178 CURVE SMOOTH",
"359 178 OFFCURVE",
"286 248 OFFCURVE",
"286 362 CURVE SMOOTH",
"286 491 OFFCURVE",
"362 559 OFFCURVE",
"576 560 CURVE SMOOTH",
"633 560 OFFCURVE",
"690 555 OFFCURVE",
"739 546 CURVE",
"739 734 LINE",
"681 745 OFFCURVE",
"613 750 OFFCURVE",
"558 750 CURVE SMOOTH",
"207 750 OFFCURVE",
"40 601 OFFCURVE",
"40 366 CURVE SMOOTH",
"40 121 OFFCURVE",
"202 -10 OFFCURVE",
"546 -10 CURVE SMOOTH"
);
}
);
width = 833;
}
);
leftKerningGroup = KERN_O_2ND;
leftMetricsKey = O;
rightKerningGroup = KERN_G_1ST;
unicode = 0047;
userData = {
com.typemytype.robofont.layerData = {
};
};
},
{
color = 3;
glyphname = H;
lastChange = "2016-12-04 22:08:46 +0000";
layers = (
{
anchors = (
{
name = bottom;
position = "{305, 0}";
},
{
name = center;
position = "{305, 570}";
},
{
name = top;
position = "{305, 760}";
},
{
name = topleft;
position = "{18, 740}";
}
);
background = {
paths = (
{
closed = 1;
nodes = (
"417 -5 OFFCURVE",
"529 103 OFFCURVE",
"529 370 CURVE SMOOTH",
"529 629 OFFCURVE",
"426 747 OFFCURVE",
"221 747 CURVE SMOOTH",
"174 747 OFFCURVE",
"127 741 OFFCURVE",
"82 734 CURVE",
"82 2 LINE",
"134 -3 OFFCURVE",
"169 -5 OFFCURVE",
"207 -5 CURVE SMOOTH"
);
},
{
closed = 1;
nodes = (
"177 28 OFFCURVE",
"149 29 OFFCURVE",
"116 33 CURVE",
"116 705 LINE",
"154 711 OFFCURVE",
"187 714 OFFCURVE",
"219 714 CURVE SMOOTH",
"408 714 OFFCURVE",
"493 612 OFFCURVE",
"493 370 CURVE SMOOTH",
"493 123 OFFCURVE",
"399 28 OFFCURVE",
"208 28 CURVE SMOOTH"
);
}
);
};
color = 4;
layerId = "ECFF4977-BDCC-4836-B4AC-1801CF0EB460";
paths = (
{
closed = 1;
nodes = (
"116 0 LINE",
"116 364 LINE",
"494 364 LINE",
"494 0 LINE",
"528 0 LINE",
"528 740 LINE",
"494 740 LINE",
"494 397 LINE",
"116 397 LINE",
"116 740 LINE",
"82 740 LINE",
"82 0 LINE"
);
}
);
width = 610;
},
{
anchors = (
{
name = bottom;
position = "{341, 0}";
},
{
name = center;
position = "{341, 600}";
},
{
name = top;
position = "{341, 760}";
},
{
name = topleft;
position = "{13, 740}";
}
);
background = {
paths = (
{
closed = 1;
nodes = (
"506 -7 OFFCURVE",
"638 109 OFFCURVE",
"638 370 CURVE SMOOTH",
"638 629 OFFCURVE",
"513 747 OFFCURVE",
"262 747 CURVE SMOOTH",
"197 747 OFFCURVE",
"114 738 OFFCURVE",
"43 722 CURVE",
"43 4 LINE",
"103 -3 OFFCURVE",
"173 -7 OFFCURVE",
"235 -7 CURVE SMOOTH"
);
},
{
closed = 1;
nodes = (
"278 156 OFFCURVE",
"261 156 OFFCURVE",
"239 157 CURVE",
"239 580 LINE",
"251 583 OFFCURVE",
"272 585 OFFCURVE",
"286 585 CURVE SMOOTH",
"379 585 OFFCURVE",
"438 536 OFFCURVE",
"438 370 CURVE SMOOTH",
"438 205 OFFCURVE",
"383 156 OFFCURVE",
"289 156 CURVE SMOOTH"
);
},
{
closed = 1;
nodes = (
"97 0 LINE",
"97 364 LINE",
"601 364 LINE",
"601 0 LINE",
"635 0 LINE",
"635 740 LINE",
"601 740 LINE",
"601 397 LINE",
"97 397 LINE",
"97 740 LINE",
"63 740 LINE",
"63 0 LINE"
);
}
);
};
color = 4;
layerId = "C8FFBC04-9D7C-494A-A42D-BACB8E26599D";
paths = (
{
closed = 1;
nodes = (
"239 0 LINE",
"239 288 LINE",
"442 288 LINE",
"442 0 LINE",
"638 0 LINE",
"638 740 LINE",
"442 740 LINE",
"442 467 LINE",
"239 467 LINE",
"239 740 LINE",
"43 740 LINE",
"43 0 LINE"
);
}
);
width = 681;
},
{
anchors = (
{
name = bottom;
position = "{391, 0}";
},
{
name = center;
position = "{391, 570}";
},
{
name = top;
position = "{391, 760}";
},
{
name = topleft;
position = "{20, 740}";
}
);
background = {
paths = (
{
closed = 1;
nodes = (
"559 -5 OFFCURVE",
"693 119 OFFCURVE",
"693 370 CURVE SMOOTH",
"693 621 OFFCURVE",
"559 747 OFFCURVE",
"305 747 CURVE SMOOTH",
"244 747 OFFCURVE",
"175 741 OFFCURVE",
"105 727 CURVE",
"105 8 LINE",
"182 -2 OFFCURVE",
"231 -5 OFFCURVE",
"298 -5 CURVE SMOOTH"
);
},
{
closed = 1;
nodes = (
"229 28 OFFCURVE",
"182 32 OFFCURVE",
"139 39 CURVE",
"139 699 LINE",
"198 709 OFFCURVE",
"250 714 OFFCURVE",
"302 714 CURVE SMOOTH",
"537 714 OFFCURVE",
"657 604 OFFCURVE",
"657 370 CURVE SMOOTH",
"657 136 OFFCURVE",
"537 28 OFFCURVE",
"299 28 CURVE SMOOTH"
);
}
);
};
color = 4;
layerId = "E28BEEB5-BD92-4E7A-B4EA-FC5E5BBBF580";
paths = (
{
closed = 1;
nodes = (
"139 0 LINE",
"139 364 LINE",
"643 364 LINE",
"643 0 LINE",
"677 0 LINE",
"677 740 LINE",
"643 740 LINE",
"643 397 LINE",
"139 397 LINE",
"139 740 LINE",
"105 740 LINE",
"105 0 LINE"
);
}
);
width = 782;
},
{
anchors = (
{
name = bottom;
position = "{449, 0}";
},
{
name = center;
position = "{449, 611}";
},
{
name = top;
position = "{449, 760}";
},
{
name = topleft;
position = "{22, 740}";
}
);
background = {
anchors = (
{
name = bottom;
position = "{447, -110}";
},
{
name = topUC;
position = "{447, 885}";
}
);
paths = (
{
closed = 1;
nodes = (
"681 -7 OFFCURVE",
"857 99 OFFCURVE",
"857 370 CURVE SMOOTH",
"857 629 OFFCURVE",
"690 747 OFFCURVE",
"368 747 CURVE SMOOTH",
"283 747 OFFCURVE",
"156 735 OFFCURVE",
"65 716 CURVE",
"65 7 LINE",
"145 -3 OFFCURVE",
"247 -7 OFFCURVE",
"316 -7 CURVE SMOOTH"
);
},
{
closed = 1;
nodes = (
"352 179 OFFCURVE",
"327 179 OFFCURVE",
"303 181 CURVE",
"303 556 LINE",
"325 559 OFFCURVE",
"358 562 OFFCURVE",
"381 562 CURVE SMOOTH",
"541 562 OFFCURVE",
"618 504 OFFCURVE",
"618 372 CURVE SMOOTH",
"618 236 OFFCURVE",
"546 179 OFFCURVE",
"381 179 CURVE SMOOTH"
);
}
);
};
color = 4;
layerId = "1E90A949-97C4-49F5-AA9A-AF35B6FD63CF";
paths = (
{
closed = 1;
nodes = (
"303 0 LINE",
"303 277 LINE",
"594 277 LINE",
"594 0 LINE",
"832 0 LINE",
"832 740 LINE",
"594 740 LINE",
"594 478 LINE",
"303 478 LINE",
"303 740 LINE",
"65 740 LINE",
"65 0 LINE"
);
}
);
width = 897;
}
);
leftKerningGroup = KERN_I_2ND;
rightKerningGroup = KERN_I_1ST;
unicode = 0048;
userData = {
com.typemytype.robofont.layerData = {
};
};
},
{
color = 6;
glyphname = Hbar;
lastChange = "2016-12-04 22:08:54 +0000";
layers = (
{
background = {
components = (
{
name = H;
transform = "{1, 0, 0, 1, 19, 0}";
}
);
paths = (
{
closed = 1;
nodes = (
"1 550 LINE",
"637 550 LINE",
"637 575 LINE",
"1 575 LINE"
);
}
);
};
color = 4;
components = (
{
name = H;
},
{
name = strokelongcomb.case;
transform = "{1, 0, 0, 1, -4, 30}";
}
);
layerId = "ECFF4977-BDCC-4836-B4AC-1801CF0EB460";
width = 610;
},
{
background = {
components = (
{
name = H;
},
{
name = strokelongcomb.case;
}
);
};
components = (
{
name = H;
},
{
name = strokelongcomb.case;
transform = "{1, 0, 0, 1, -3, 20}";
}
);
layerId = "C8FFBC04-9D7C-494A-A42D-BACB8E26599D";
width = 681;
},
{
background = {
components = (
{
name = H;
},
{
name = strokelongcomb.case;
transform = "{1, 0, 0, 1, -20, 30}";
}
);
};
color = 4;
components = (
{
name = H;
},
{
name = strokelongcomb.case;
transform = "{1, 0, 0, 1, -3, 30}";
}
);
layerId = "E28BEEB5-BD92-4E7A-B4EA-FC5E5BBBF580";
width = 782;
},
{
background = {
components = (
{
name = H;
transform = "{1, 0, 0, 1, 7, 0}";
}
);
paths = (
{
closed = 1;
nodes = (
"8 534 LINE",
"907 534 LINE",
"907 637 LINE",
"8 637 LINE"
);
}
);
};
components = (
{
name = H;
},
{
name = strokelongcomb.case;
transform = "{1, 0, 0, 1, 0, 25}";
}
);
layerId = "1E90A949-97C4-49F5-AA9A-AF35B6FD63CF";
width = 897;
}
);
leftKerningGroup = KERN_I_2ND;
rightKerningGroup = KERN_I_1ST;
unicode = 0126;
},
{
color = 3;
glyphname = I;
lastChange = "2016-12-04 22:08:48 +0000";
layers = (
{
anchors = (
{
name = bottom;
position = "{99, 0}";
},
{
name = ogonek;
position = "{116, 0}";
},
{
name = top;
position = "{99, 760}";
}
);
background = {
anchors = (
{
name = bottom;
position = "{102, 0}";
},
{
name = ogonek;
position = "{116, 0}";
},
{
name = topUC;
position = "{102, 760}";
}
);
paths = (
{
closed = 1;
nodes = (
"82 0 LINE",
"116 0 LINE",
"116 740 LINE",
"82 740 LINE"
);
}
);
};
color = -1;
layerId = "ECFF4977-BDCC-4836-B4AC-1801CF0EB460";
paths = (
{
closed = 1;
nodes = (
"116 0 LINE",
"116 740 LINE",
"82 740 LINE",
"82 0 LINE"
);
}
);
width = 198;
},
{
anchors = (
{
name = bottom;
position = "{141, 0}";
},
{
name = ogonek;
position = "{238, 0}";
},
{
name = top;
position = "{141, 760}";
}
);
background = {
anchors = (
{
name = bottom;
position = "{141, 0}";
},
{
name = ogonek;
position = "{238, 0}";
},
{
name = top;
position = "{141, 805}";
}
);
paths = (
{
closed = 1;
nodes = (
"238 0 LINE",
"238 740 LINE",
"43 740 LINE",
"43 0 LINE"
);
}
);
};
color = 4;
layerId = "C8FFBC04-9D7C-494A-A42D-BACB8E26599D";
paths = (
{
closed = 1;
nodes = (
"239 0 LINE",
"239 740 LINE",
"43 740 LINE",
"43 0 LINE"
);
}
);
width = 282;
},
{
anchors = (
{
name = bottom;
position = "{122, 0}";
},
{
name = ogonek;
position = "{139, 0}";
},
{
name = top;
position = "{122, 760}";
}
);
background = {
anchors = (
{
name = bottom;
position = "{122, 0}";
},
{
name = ogonek;
position = "{139, 0}";
},
{
name = top;
position = "{122, 760}";
}
);
paths = (
{
closed = 1;
nodes = (
"139 0 LINE",
"139 740 LINE",
"105 740 LINE",
"105 0 LINE"
);
}
);
};
color = -1;
layerId = "E28BEEB5-BD92-4E7A-B4EA-FC5E5BBBF580";
paths = (
{
closed = 1;
nodes = (
"139 0 LINE",
"139 740 LINE",
"105 740 LINE",
"105 0 LINE"
);
}
);
width = 244;
},
{
anchors = (
{
name = bottom;
position = "{183, 0}";
},
{
name = ogonek;
position = "{303, 0}";
},
{
name = top;
position = "{184, 760}";
}
);
background = {
anchors = (
{
name = bottom;
position = "{183, -110}";
},
{
name = ogonek;
position = "{183, 54}";
},
{
name = topUC;
position = "{188, 885}";
}
);
paths = (
{
closed = 1;
nodes = (
"65 0 LINE",
"300 0 LINE",
"300 740 LINE",
"65 740 LINE"
);
}
);
};
color = 4;
layerId = "1E90A949-97C4-49F5-AA9A-AF35B6FD63CF";
paths = (
{
closed = 1;
nodes = (
"303 0 LINE",
"303 740 LINE",
"65 740 LINE",
"65 0 LINE"
);
}
);
width = 368;
}
);
leftKerningGroup = KERN_I_2ND;
leftMetricsKey = H;
rightKerningGroup = KERN_I_1ST;
rightMetricsKey = H;
unicode = 0049;
userData = {
com.typemytype.robofont.layerData = {
};
};
},
{
color = 3;
glyphname = J;
lastChange = "2016-12-04 22:08:53 +0000";
layers = (
{
anchors = (
{
name = bottom;
position = "{136, 0}";
},
{
name = top;
position = "{99, 760}";
}
);
background = {
anchors = (
{
name = topUC;
position = "{94, 760}";
}
);
paths = (
{
closed = 1;
nodes = (
"21 -175 LINE",
"86 -54 OFFCURVE",
"116 57 OFFCURVE",
"116 180 CURVE SMOOTH",
"116 740 LINE",
"82 740 LINE",
"82 180 LINE SMOOTH",
"82 50 OFFCURVE",
"66 -12 OFFCURVE",
"-3 -159 CURVE"
);
}
);
};
color = 4;
layerId = "ECFF4977-BDCC-4836-B4AC-1801CF0EB460";
paths = (
{
closed = 1;
nodes = (
"87 -68 OFFCURVE",
"112 11 OFFCURVE",
"116 128 CURVE",
"116 740 LINE",
"82 740 LINE",
"82 143 LINE SMOOTH",
"82 18 OFFCURVE",
"57 -58 OFFCURVE",
"-3 -153 CURVE",
"22 -170 LINE"
);
}
);
width = 198;
},
{
anchors = (
{
name = bottom;
position = "{239, 0}";
},
{
name = top;
position = "{141, 760}";
}
);
background = {
paths = (
{
closed = 1;
nodes = (
"208 -62 OFFCURVE",
"246 40 OFFCURVE",
"246 180 CURVE SMOOTH",
"246 740 LINE",
"50 740 LINE",
"50 198 LINE SMOOTH",
"50 56 OFFCURVE",
"33 -28 OFFCURVE",
"-24 -160 CURVE",
"98 -214 LINE"
);
}
);
};
color = 4;
layerId = "C8FFBC04-9D7C-494A-A42D-BACB8E26599D";
paths = (
{
closed = 1;
nodes = (
"204 -66 OFFCURVE",
"239 36 OFFCURVE",
"239 161 CURVE SMOOTH",
"239 740 LINE",
"43 740 LINE",
"43 153 LINE SMOOTH",
"43 50 OFFCURVE",
"28 -13 OFFCURVE",
"-26 -91 CURVE",
"102 -175 LINE"
);
}
);
width = 282;
},
{
anchors = (
{
name = bottom;
position = "{171, 0}";
},
{
name = top;
position = "{122, 760}";
}
);
background = {
anchors = (
{
name = bottom;
position = "{171, 0}";
},
{
name = top;
position = "{122, 760}";
}
);
paths = (
{
closed = 1;
nodes = (
"103 -74 OFFCURVE",
"132 11 OFFCURVE",
"139 125 CURVE",
"139 740 LINE",
"105 740 LINE",
"105 143 LINE SMOOTH",
"105 28 OFFCURVE",
"72 -64 OFFCURVE",
"-1 -152 CURVE",
"23 -170 LINE"
);
}
);
};
color = 4;
layerId = "E28BEEB5-BD92-4E7A-B4EA-FC5E5BBBF580";
paths = (
{
closed = 1;
nodes = (
"103 -74 OFFCURVE",
"132 11 OFFCURVE",
"139 125 CURVE",
"139 740 LINE",
"105 740 LINE",
"105 143 LINE SMOOTH",
"105 28 OFFCURVE",
"72 -64 OFFCURVE",
"-1 -152 CURVE",
"23 -170 LINE"
);
}
);
width = 244;
},
{
anchors = (
{
name = bottom;
position = "{303, 0}";
},
{
name = top;
position = "{185, 760}";
}
);
background = {
paths = (
{
closed = 1;
nodes = (
"262 -62 OFFCURVE",
"303 42 OFFCURVE",
"303 184 CURVE SMOOTH",
"303 740 LINE",
"68 740 LINE",
"68 202 LINE SMOOTH",
"68 64 OFFCURVE",
"50 -21 OFFCURVE",
"-7 -156 CURVE",
"142 -220 LINE"
);
}
);
};
color = 4;
layerId = "1E90A949-97C4-49F5-AA9A-AF35B6FD63CF";
paths = (
{
closed = 1;
nodes = (
"262 -70 OFFCURVE",
"303 34 OFFCURVE",
"303 159 CURVE SMOOTH",
"303 740 LINE",
"67 740 LINE",
"67 151 LINE SMOOTH",
"67 48 OFFCURVE",
"49 -15 OFFCURVE",
"-6 -81 CURVE",
"140 -179 LINE"
);
}
);
width = 368;
}
);
leftKerningGroup = KERN_J_2ND;
widthMetricsKey = I;
rightKerningGroup = KERN_J_1ST;
rightMetricsKey = H;
unicode = 004A;
userData = {
com.typemytype.robofont.layerData = {
};
};
},
{
color = 3;
glyphname = K;
lastChange = "2016-12-04 22:25:41 +0000";
layers = (
{
anchors = (
{
name = bottom;
position = "{278, 0}";
},
{
name = top;
position = "{278, 740}";
}
);
background = {
paths = (
{
closed = 1;
nodes = (
"539 0 LINE",
"236 387 LINE",
"236 375 LINE",
"518 740 LINE",
"476 740 LINE",
"199 379 LINE",
"496 0 LINE"
);
},
{
closed = 1;
nodes = (
"116 0 LINE",
"116 740 LINE",
"82 740 LINE",
"82 0 LINE"
);
},
{
closed = 1;
nodes = (
"220 364 LINE",
"220 396 LINE",
"108 396 LINE",
"108 364 LINE"
);
}
);
};
color = 4;
layerId = "ECFF4977-BDCC-4836-B4AC-1801CF0EB460";
paths = (
{
closed = 1;
nodes = (
"539 0 LINE",
"236 387 LINE",
"236 375 LINE",
"518 740 LINE",
"478 740 LINE",
"201 379 LINE",
"498 0 LINE"
);
},
{
closed = 1;
nodes = (
"116 0 LINE",
"116 740 LINE",
"82 740 LINE",
"82 0 LINE"
);
},
{
closed = 1;
nodes = (
"222 364 LINE",
"222 396 LINE",
"108 396 LINE",
"108 364 LINE"
);
}
);
width = 520;
},
{
anchors = (
{
name = bottom;
position = "{322, 0}";
},
{
name = top;
position = "{316, 740}";
}
);
background = {
paths = (
{
closed = 1;
nodes = (
"653 0 LINE",
"423 406 LINE",
"421 351 LINE",
"635 740 LINE",
"430 740 LINE",
"231 377 LINE",
"444 0 LINE"
);
},
{
closed = 1;
nodes = (
"239 0 LINE",
"239 740 LINE",
"43 740 LINE",
"43 0 LINE"
);
},
{
closed = 1;
nodes = (
"300 288 LINE",
"300 467 LINE",
"213 467 LINE",
"213 288 LINE"
);
}
);
};
color = 4;
layerId = "C8FFBC04-9D7C-494A-A42D-BACB8E26599D";
paths = (
{
closed = 1;
nodes = (
"653 0 LINE",
"423 408 LINE",
"421 353 LINE",
"635 740 LINE",
"432 740 LINE",
"231 375 LINE",
"444 0 LINE"
);
},
{
closed = 1;
nodes = (
"239 0 LINE",
"239 740 LINE",
"43 740 LINE",
"43 0 LINE"
);
},
{
closed = 1;
nodes = (
"300 288 LINE",
"300 467 LINE",
"213 467 LINE",
"213 288 LINE"
);
}
);
width = 617;
},
{
anchors = (
{
name = bottom;
position = "{335, 0}";
},
{
name = top;
position = "{335, 740}";
}
);
background = {
paths = (
{
closed = 1;
nodes = (
"139 0 LINE",
"139 364 LINE",
"643 364 LINE",
"643 0 LINE",
"677 0 LINE",
"677 740 LINE",
"643 740 LINE",
"643 397 LINE",
"139 397 LINE",
"139 740 LINE",
"105 740 LINE",
"105 0 LINE"
);
}
);
};
color = 4;
layerId = "E28BEEB5-BD92-4E7A-B4EA-FC5E5BBBF580";
paths = (
{
closed = 1;
nodes = (
"651 0 LINE",
"322 387 LINE",
"322 375 LINE",
"630 740 LINE",
"587 740 LINE",
"284 379 LINE",
"607 0 LINE"
);
},
{
closed = 1;
nodes = (
"139 0 LINE",
"139 740 LINE",
"105 740 LINE",
"105 0 LINE"
);
},
{
closed = 1;
nodes = (
"307 364 LINE",
"307 397 LINE",
"131 397 LINE",
"131 364 LINE"
);
}
);
width = 657;
},
{
anchors = (
{
name = bottom;
position = "{408, 0}";
},
{
name = top;
position = "{405, 740}";
}
);
background = {
anchors = (
{
name = bottom;
position = "{408, -110}";
}
);
paths = (
{
closed = 1;
nodes = (
"303 0 LINE",
"303 277 LINE",
"594 277 LINE",
"594 0 LINE",
"832 0 LINE",
"832 740 LINE",
"594 740 LINE",
"594 478 LINE",
"303 478 LINE",
"303 740 LINE",
"65 740 LINE",
"65 0 LINE"
);
}
);
};
color = 4;
layerId = "1E90A949-97C4-49F5-AA9A-AF35B6FD63CF";
paths = (
{
closed = 1;
nodes = (
"799 0 LINE",
"519 406 LINE",
"513 351 LINE",
"774 740 LINE",
"525 740 LINE",
"281 377 LINE",
"541 0 LINE"
);
},
{
closed = 1;
nodes = (
"303 0 LINE",
"303 740 LINE",
"65 740 LINE",
"65 0 LINE"
);
},
{
closed = 1;
nodes = (
"376 277 LINE",
"376 478 LINE",
"271 478 LINE",
"271 277 LINE"
);
}
);
width = 781;
}
);
leftKerningGroup = KERN_I_2ND;
leftMetricsKey = H;
rightKerningGroup = KERN_K_1ST;
unicode = 004B;
userData = {
com.typemytype.robofont.layerData = {
};
};
},
{
color = 3;
glyphname = L;
lastChange = "2016-12-04 22:25:52 +0000";
layers = (
{
anchors = (
{
name = bottom;
position = "{263, 0}";
},
{
name = caronalt;
position = "{289, 740}";
},
{
name = periodcentered;
position = "{320, 387}";
},
{
name = slash;
position = "{99, 387}";
},
{
name = top;
position = "{99, 760}";
}
);
background = {
anchors = (
{
name = bottom;
position = "{229, 0}";
},
{
name = caronalt;
position = "{333, 740}";
},
{
name = periodcentered;
position = "{285, 370}";
},
{
name = topUC;
position = "{115, 760}";
}
);
paths = (
{
closed = 1;
nodes = (
"456 0 LINE",
"456 33 LINE",
"116 33 LINE",
"116 707 LINE",
"451 707 LINE",
"451 740 LINE",
"82 740 LINE",
"82 0 LINE"
);
},
{
closed = 1;
nodes = (
"406 364 LINE",
"406 397 LINE",
"112 397 LINE",
"112 364 LINE"
);
}
);
};
color = 4;
layerId = "ECFF4977-BDCC-4836-B4AC-1801CF0EB460";
paths = (
{
closed = 1;
nodes = (
"443 0 LINE",
"443 33 LINE",
"116 33 LINE",
"116 740 LINE",
"82 740 LINE",
"82 0 LINE"
);
}
);
width = 445;
},
{
anchors = (
{
name = bottom;
position = "{279, 0}";
},
{
name = caronalt;
position = "{337, 740}";
},
{
name = periodcentered;
position = "{397, 447}";
},
{
name = slash;
position = "{145, 427}";
},
{
name = top;
position = "{145, 760}";
}
);
background = {
paths = (
{
closed = 1;
nodes = (
"519 0 LINE",
"519 173 LINE",
"239 173 LINE",
"239 740 LINE",
"43 740 LINE",
"43 0 LINE"
);
}
);
};
color = 4;
layerId = "C8FFBC04-9D7C-494A-A42D-BACB8E26599D";
paths = (
{
closed = 1;
nodes = (
"515 0 LINE",
"515 173 LINE",
"239 173 LINE",
"239 740 LINE",
"43 740 LINE",
"43 0 LINE"
);
}
);
width = 516;
},
{
anchors = (
{
name = bottom;
position = "{337, 0}";
},
{
name = caronalt;
position = "{374, 740}";
},
{
name = periodcentered;
position = "{404, 387}";
},
{
name = slash;
position = "{122, 387}";
},
{
name = top;
position = "{122, 760}";
}
);
background = {
anchors = (
{
name = bottom;
position = "{337, 0}";
},
{
name = caronalt;
position = "{364, 740}";
},
{
name = periodcentered;
position = "{404, 387}";
},
{
name = slash;
position = "{122, 387}";
},
{
name = top;
position = "{122, 760}";
}
);
paths = (
{
closed = 1;
nodes = (
"585 0 LINE",
"585 33 LINE",
"139 33 LINE",
"139 707 LINE",
"580 707 LINE",
"580 740 LINE",
"105 740 LINE",
"105 0 LINE"
);
},
{
closed = 1;
nodes = (
"530 364 LINE",
"530 397 LINE",
"125 397 LINE",
"125 364 LINE"
);
}
);
};
color = 4;
layerId = "E28BEEB5-BD92-4E7A-B4EA-FC5E5BBBF580";
paths = (
{
closed = 1;
nodes = (
"568 0 LINE",
"568 33 LINE",
"139 33 LINE",
"139 740 LINE",
"105 740 LINE",
"105 0 LINE"
);
}
);
width = 576;
},
{
anchors = (
{
name = bottom;
position = "{370, 0}";
},
{
name = caronalt;
position = "{458, 740}";
},
{
name = periodcentered;
position = "{519, 465}";
},
{
name = slash;
position = "{184, 427}";
},
{
name = top;
position = "{184, 760}";
}
);
background = {
paths = (
{
closed = 1;
nodes = (
"686 0 LINE",
"686 184 LINE",
"303 184 LINE",
"303 740 LINE",
"65 740 LINE",
"65 0 LINE"
);
}
);
};
color = 4;
layerId = "1E90A949-97C4-49F5-AA9A-AF35B6FD63CF";
paths = (
{
closed = 1;
nodes = (
"675 0 LINE",
"675 184 LINE",
"303 184 LINE",
"303 740 LINE",
"65 740 LINE",
"65 0 LINE"
);
}
);
width = 687;
}
);
leftKerningGroup = KERN_I_2ND;
leftMetricsKey = H;
rightKerningGroup = KERN_L_1ST;
unicode = 004C;
userData = {
com.typemytype.robofont.layerData = {
};
};
},
{
color = 3;
glyphname = Lslash;
lastChange = "2016-12-04 22:26:05 +0000";
layers = (
{
background = {
components = (
{
name = L;
transform = "{1, 0, 0, 1, 25, 0}";
}
);
paths = (
{
closed = 1;
nodes = (
"13 220 LINE",
"237 440 LINE",
"237 487 LINE",
"13 267 LINE"
);
}
);
};
color = 4;
components = (
{
name = L;
},
{
name = slashshortcomb.case;
transform = "{1, 0, 0, 1, -101, 0}";
}
);
layerId = "ECFF4977-BDCC-4836-B4AC-1801CF0EB460";
width = 445;
},
{
background = {
components = (
{
name = L;
transform = "{1, 0, 0, 1, 19, 0}";
},
{
name = slashshortcomb.case;
transform = "{1, 0, 0, 1, -29, 37}";
}
);
};
color = 4;
components = (
{
alignment = -1;
name = L;
transform = "{1, 0, 0, 1, 19, 0}";
},
{
name = slashshortcomb.case;
transform = "{1, 0, 0, 1, -36, 40}";
}
);
layerId = "C8FFBC04-9D7C-494A-A42D-BACB8E26599D";
width = 535;
},
{
background = {
components = (
{
name = L;
},
{
name = slashshortcomb.case;
transform = "{1, 0, 0, 1, -75, 0}";
}
);
};
color = 4;
components = (
{
name = L;
},
{
name = slashshortcomb.case;
transform = "{1, 0, 0, 1, -78, 0}";
}
);
layerId = "E28BEEB5-BD92-4E7A-B4EA-FC5E5BBBF580";
width = 576;
},
{
background = {
components = (
{
name = L;
transform = "{1, 0, 0, 1, 18, 0}";
}
);
paths = (
{
closed = 1;
nodes = (
"11 226 LINE",
"449 412 LINE",
"449 576 LINE",
"11 390 LINE"
);
}
);
};
color = 4;
components = (
{
name = L;
},
{
name = slashshortcomb.case;
transform = "{1, 0, 0, 1, -16, 40}";
}
);
layerId = "1E90A949-97C4-49F5-AA9A-AF35B6FD63CF";
width = 687;
}
);
leftKerningGroup = KERN_I_2ND;
rightKerningGroup = KERN_L_1ST;
rightMetricsKey = L;
unicode = 0141;
},
{
color = 3;
glyphname = M;
lastChange = "2016-12-04 22:08:53 +0000";
layers = (
{
anchors = (
{
name = bottom;
position = "{379, 0}";
},
{
name = top;
position = "{379, 740}";
}
);
background = {
paths = (
{
closed = 1;
nodes = (
"118 0 LINE",
"118 710 LINE",
"99 710 LINE",
"360 100 LINE",
"398 100 LINE",
"658 710 LINE",
"640 710 LINE",
"640 0 LINE",
"674 0 LINE",
"674 740 LINE",
"636 740 LINE",
"371 116 LINE",
"388 116 LINE",
"122 740 LINE",
"84 740 LINE",
"84 0 LINE"
);
}
);
};
color = 4;
layerId = "ECFF4977-BDCC-4836-B4AC-1801CF0EB460";
paths = (
{
closed = 1;
nodes = (
"117 0 LINE",
"117 710 LINE",
"99 710 LINE",
"360 100 LINE",
"398 100 LINE",
"658 710 LINE",
"641 710 LINE",
"641 0 LINE",
"674 0 LINE",
"674 740 LINE",
"636 740 LINE",
"372 116 LINE",
"388 116 LINE",
"122 740 LINE",
"84 740 LINE",
"84 0 LINE"
);
}
);
width = 758;
},
{
anchors = (
{
name = bottom;
position = "{446, 0}";
},
{
name = top;
position = "{446, 740}";
}
);
background = {
paths = (
{
closed = 1;
nodes = (
"230 0 LINE",
"230 541 LINE",
"189 541 LINE",
"355 110 LINE",
"511 110 LINE",
"670 541 LINE",
"636 541 LINE",
"636 0 LINE",
"821 0 LINE",
"821 740 LINE",
"575 740 LINE",
"427 314 LINE",
"446 314 LINE",
"291 740 LINE",
"45 740 LINE",
"45 0 LINE"
);
}
);
};
color = 4;
layerId = "C8FFBC04-9D7C-494A-A42D-BACB8E26599D";
paths = (
{
closed = 1;
nodes = (
"228 0 LINE",
"228 544 LINE",
"189 544 LINE",
"357 110 LINE",
"509 110 LINE",
"670 544 LINE",
"638 544 LINE",
"638 0 LINE",
"821 0 LINE",
"821 740 LINE",
"579 740 LINE",
"429 316 LINE",
"444 316 LINE",
"287 740 LINE",
"45 740 LINE",
"45 0 LINE"
);
}
);
width = 866;
},
{
anchors = (
{
name = bottom;
position = "{464, 0}";
},
{
name = top;
position = "{464, 740}";
}
);
background = {
anchors = (
{
name = bottom;
position = "{464, 0}";
},
{
name = top;
position = "{464, 740}";
}
);
paths = (
{
closed = 1;
nodes = (
"140 0 LINE",
"140 712 LINE",
"120 712 LINE",
"445 100 LINE",
"483 100 LINE",
"807 712 LINE",
"788 712 LINE",
"788 0 LINE",
"821 0 LINE",
"821 740 LINE",
"784 740 LINE",
"457 116 LINE",
"473 116 LINE",
"144 740 LINE",
"107 740 LINE",
"107 0 LINE"
);
}
);
};
color = 4;
layerId = "E28BEEB5-BD92-4E7A-B4EA-FC5E5BBBF580";
paths = (
{
closed = 1;
nodes = (
"140 0 LINE",
"140 712 LINE",
"120 712 LINE",
"445 100 LINE",
"483 100 LINE",
"807 712 LINE",
"788 712 LINE",
"788 0 LINE",
"821 0 LINE",
"821 740 LINE",
"784 740 LINE",
"457 116 LINE",
"473 116 LINE",
"144 740 LINE",
"107 740 LINE",
"107 0 LINE"
);
}
);
width = 928;
},
{
anchors = (
{
name = bottom;
position = "{560, 0}";
},
{
name = top;
position = "{560, 740}";
}
);
background = {
paths = (
{
closed = 1;
nodes = (
"294 0 LINE",
"294 541 LINE",
"244 541 LINE",
"448 110 LINE",
"640 110 LINE",
"835 541 LINE",
"793 541 LINE",
"793 0 LINE",
"1021 0 LINE",
"1021 740 LINE",
"718 740 LINE",
"537 314 LINE",
"560 314 LINE",
"369 740 LINE",
"67 740 LINE",
"67 0 LINE"
);
}
);
};
color = 4;
layerId = "1E90A949-97C4-49F5-AA9A-AF35B6FD63CF";
paths = (
{
closed = 1;
nodes = (
"295 0 LINE",
"295 541 LINE",
"238 541 LINE",
"448 110 LINE",
"640 110 LINE",
"838 541 LINE",
"793 541 LINE",
"793 0 LINE",
"1021 0 LINE",
"1021 740 LINE",
"722 740 LINE",
"535 313 LINE",
"561 313 LINE",
"366 740 LINE",
"67 740 LINE",
"67 0 LINE"
);
}
);
width = 1088;
}
);
leftKerningGroup = KERN_I_2ND;
leftMetricsKey = "=H+2";
rightKerningGroup = KERN_I_1ST;
rightMetricsKey = "=H+2";
unicode = 004D;
userData = {
com.typemytype.robofont.layerData = {
};
};
},
{
color = 3;
glyphname = N;
lastChange = "2016-12-04 22:08:53 +0000";
layers = (
{
anchors = (
{
name = bottom;
position = "{312, 0}";
},
{
name = top;
position = "{312, 760}";
}
);
background = {
paths = (
{
closed = 1;
nodes = (
"116 0 LINE",
"116 710 LINE",
"99 710 LINE",
"504 0 LINE",
"542 0 LINE",
"542 740 LINE",
"508 740 LINE",
"508 30 LINE",
"525 30 LINE",
"120 740 LINE",
"82 740 LINE",
"82 0 LINE"
);
}
);
};
color = 4;
layerId = "ECFF4977-BDCC-4836-B4AC-1801CF0EB460";
paths = (
{
closed = 1;
nodes = (
"115 0 LINE",
"115 710 LINE",
"99 710 LINE",
"504 0 LINE",
"542 0 LINE",
"542 740 LINE",
"509 740 LINE",
"509 30 LINE",
"525 30 LINE",
"120 740 LINE",
"82 740 LINE",
"82 0 LINE"
);
}
);
width = 624;
},
{
anchors = (
{
name = bottom;
position = "{344, 0}";
},
{
name = top;
position = "{344, 760}";
}
);
background = {
paths = (
{
closed = 1;
nodes = (
"228 0 LINE",
"228 457 LINE",
"199 457 LINE",
"450 0 LINE",
"645 0 LINE",
"645 740 LINE",
"460 740 LINE",
"460 283 LINE",
"489 283 LINE",
"238 740 LINE",
"43 740 LINE",
"43 0 LINE"
);
}
);
};
color = 4;
layerId = "C8FFBC04-9D7C-494A-A42D-BACB8E26599D";
paths = (
{
closed = 1;
nodes = (
"226 0 LINE",
"226 460 LINE",
"197 460 LINE",
"450 0 LINE",
"645 0 LINE",
"645 740 LINE",
"462 740 LINE",
"462 280 LINE",
"491 280 LINE",
"238 740 LINE",
"43 740 LINE",
"43 0 LINE"
);
}
);
width = 688;
},
{
anchors = (
{
name = bottom;
position = "{399, 0}";
},
{
name = top;
position = "{399, 760}";
}
);
background = {
anchors = (
{
name = bottom;
position = "{399, 0}";
},
{
name = top;
position = "{399, 760}";
}
);
paths = (
{
closed = 1;
nodes = (
"138 0 LINE",
"138 710 LINE",
"122 710 LINE",
"655 0 LINE",
"692 0 LINE",
"692 740 LINE",
"659 740 LINE",
"659 30 LINE",
"675 30 LINE",
"142 740 LINE",
"105 740 LINE",
"105 0 LINE"
);
}
);
};
color = 4;
layerId = "E28BEEB5-BD92-4E7A-B4EA-FC5E5BBBF580";
paths = (
{
closed = 1;
nodes = (
"138 0 LINE",
"138 710 LINE",
"123 710 LINE",
"655 0 LINE",
"692 0 LINE",
"692 740 LINE",
"659 740 LINE",
"659 30 LINE",
"674 30 LINE",
"142 740 LINE",
"105 740 LINE",
"105 0 LINE"
);
}
);
width = 797;
},
{
anchors = (
{
name = bottom;
position = "{451, 0}";
},
{
name = top;
position = "{451, 760}";
}
);
background = {
paths = (
{
closed = 1;
nodes = (
"293 0 LINE",
"293 454 LINE",
"256 454 LINE",
"596 0 LINE",
"837 0 LINE",
"837 740 LINE",
"609 740 LINE",
"609 286 LINE",
"646 286 LINE",
"306 740 LINE",
"65 740 LINE",
"65 0 LINE"
);
}
);
};
color = 4;
layerId = "1E90A949-97C4-49F5-AA9A-AF35B6FD63CF";
paths = (
{
closed = 1;
nodes = (
"293 0 LINE",
"293 457 LINE",
"256 457 LINE",
"599 0 LINE",
"837 0 LINE",
"837 740 LINE",
"609 740 LINE",
"609 283 LINE",
"646 283 LINE",
"303 740 LINE",
"65 740 LINE",
"65 0 LINE"
);
}
);
width = 902;
}
);
leftKerningGroup = KERN_I_2ND;
leftMetricsKey = H;
rightKerningGroup = KERN_I_1ST;
rightMetricsKey = H;
unicode = 004E;
userData = {
com.typemytype.robofont.layerData = {
};
};
},
{
color = 3;
glyphname = Eng;
lastChange = "2016-12-04 22:08:53 +0000";
layers = (
{
background = {
paths = (
{
closed = 1;
nodes = (
"513 -128 OFFCURVE",
"542 -49 OFFCURVE",
"542 88 CURVE SMOOTH",
"542 540 LINE",
"508 540 LINE",
"508 83 LINE SMOOTH",
"508 -42 OFFCURVE",
"483 -118 OFFCURVE",
"423 -213 CURVE",
"448 -230 LINE"
);
}
);
};
color = 4;
layerId = "ECFF4977-BDCC-4836-B4AC-1801CF0EB460";
paths = (
{
closed = 1;
nodes = (
"534 14 LINE",
"120 740 LINE",
"82 740 LINE",
"82 0 LINE",
"115 0 LINE",
"115 710 LINE",
"99 710 LINE",
"513 -16 LINE"
);
},
{
closed = 1;
nodes = (
"513 -128 OFFCURVE",
"542 -49 OFFCURVE",
"542 88 CURVE SMOOTH",
"542 740 LINE",
"509 740 LINE",
"509 83 LINE SMOOTH",
"509 -42 OFFCURVE",
"483 -118 OFFCURVE",
"423 -213 CURVE",
"448 -230 LINE"
);
}
);
width = 624;
},
{
background = {
paths = (
{
closed = 1;
nodes = (
"226 0 LINE",
"226 460 LINE",
"197 460 LINE",
"450 0 LINE",
"645 0 LINE",
"645 740 LINE",
"462 740 LINE",
"462 280 LINE",
"491 280 LINE",
"238 740 LINE",
"43 740 LINE",
"43 0 LINE"
);
}
);
};
color = 4;
layerId = "C8FFBC04-9D7C-494A-A42D-BACB8E26599D";
paths = (
{
closed = 1;
nodes = (
"489 283 LINE",
"238 740 LINE",
"43 740 LINE",
"43 0 LINE",
"226 0 LINE",
"226 460 LINE",
"197 460 LINE",
"490 -73 LINE"
);
},
{
closed = 1;
nodes = (
"611 -129 OFFCURVE",
"645 -27 OFFCURVE",
"645 118 CURVE SMOOTH",
"645 740 LINE",
"462 740 LINE",
"462 90 LINE SMOOTH",
"462 -13 OFFCURVE",
"442 -76 OFFCURVE",
"382 -154 CURVE",
"510 -238 LINE"
);
}
);
width = 688;
},
{
background = {
paths = (
{
closed = 1;
nodes = (
"656 -134 OFFCURVE",
"692 -39 OFFCURVE",
"692 85 CURVE SMOOTH",
"692 540 LINE",
"658 540 LINE",
"658 83 LINE SMOOTH",
"658 -32 OFFCURVE",
"625 -124 OFFCURVE",
"552 -212 CURVE",
"576 -230 LINE"
);
}
);
};
color = 4;
layerId = "E28BEEB5-BD92-4E7A-B4EA-FC5E5BBBF580";
paths = (
{
closed = 1;
nodes = (
"679 25 LINE",
"142 740 LINE",
"105 740 LINE",
"105 0 LINE",
"138 0 LINE",
"138 710 LINE",
"122 710 LINE",
"659 -5 LINE"
);
},
{
closed = 1;
nodes = (
"656 -134 OFFCURVE",
"692 -39 OFFCURVE",
"692 85 CURVE SMOOTH",
"692 740 LINE",
"659 740 LINE",
"659 83 LINE SMOOTH",
"659 -32 OFFCURVE",
"625 -124 OFFCURVE",
"552 -212 CURVE",
"576 -230 LINE"
);
}
);
width = 797;
},
{
background = {
paths = (
{
closed = 1;
nodes = (
"293 0 LINE",
"293 457 LINE",
"256 457 LINE",
"599 0 LINE",
"837 0 LINE",
"837 740 LINE",
"609 740 LINE",
"609 283 LINE",
"646 283 LINE",
"303 740 LINE",
"65 740 LINE",
"65 0 LINE"
);
}
);
};
color = 4;
layerId = "1E90A949-97C4-49F5-AA9A-AF35B6FD63CF";
paths = (
{
closed = 1;
nodes = (
"686 230 LINE",
"303 740 LINE",
"65 740 LINE",
"65 0 LINE",
"293 0 LINE",
"293 457 LINE",
"256 457 LINE",
"639 -53 LINE"
);
},
{
closed = 1;
nodes = (
"796 -129 OFFCURVE",
"837 -27 OFFCURVE",
"837 118 CURVE SMOOTH",
"837 740 LINE",
"609 740 LINE",
"609 90 LINE SMOOTH",
"609 -13 OFFCURVE",
"587 -76 OFFCURVE",
"532 -142 CURVE",
"676 -238 LINE"
);
}
);
width = 902;
}
);
leftKerningGroup = KERN_I_2ND;
leftMetricsKey = H;
rightKerningGroup = KERN_I_1ST;
rightMetricsKey = H;
unicode = 014A;
},
{
color = 3;
glyphname = O;
lastChange = "2016-12-04 22:10:31 +0000";
layers = (
{
anchors = (
{
name = bottom;
position = "{291, 0}";
},
{
name = center;
position = "{291, 370}";
},
{
name = ogonek;
position = "{361, 0}";
},
{
name = top;
position = "{291, 760}";
},
{
name = topleft;
position = "{19, 740}";
},
{
name = topright;
position = "{361, 740}";
}
);
background = {
paths = (
{
closed = 1;
nodes = (
"437 -9 OFFCURVE",
"533 91 OFFCURVE",
"533 370 CURVE SMOOTH",
"533 649 OFFCURVE",
"439 749 OFFCURVE",
"291 749 CURVE SMOOTH",
"143 749 OFFCURVE",
"49 649 OFFCURVE",
"49 370 CURVE SMOOTH",
"49 91 OFFCURVE",
"145 -9 OFFCURVE",
"291 -9 CURVE SMOOTH"
);
},
{
closed = 1;
nodes = (
"167 24 OFFCURVE",
"85 103 OFFCURVE",
"85 372 CURVE SMOOTH",
"85 637 OFFCURVE",
"167 716 OFFCURVE",
"291 716 CURVE SMOOTH",
"415 716 OFFCURVE",
"497 637 OFFCURVE",
"497 368 CURVE SMOOTH",
"497 103 OFFCURVE",
"415 24 OFFCURVE",
"291 24 CURVE SMOOTH"
);
}
);
};
color = 4;
layerId = "ECFF4977-BDCC-4836-B4AC-1801CF0EB460";
paths = (
{
closed = 1;
nodes = (
"437 -9 OFFCURVE",
"533 91 OFFCURVE",
"533 370 CURVE SMOOTH",
"533 649 OFFCURVE",
"439 749 OFFCURVE",
"291 749 CURVE SMOOTH",
"143 749 OFFCURVE",
"49 649 OFFCURVE",
"49 370 CURVE SMOOTH",
"49 91 OFFCURVE",
"145 -9 OFFCURVE",
"291 -9 CURVE SMOOTH"
);
},
{
closed = 1;
nodes = (
"167 24 OFFCURVE",
"85 103 OFFCURVE",
"85 372 CURVE SMOOTH",
"85 637 OFFCURVE",
"167 716 OFFCURVE",
"291 716 CURVE SMOOTH",
"415 716 OFFCURVE",
"497 637 OFFCURVE",
"497 368 CURVE SMOOTH",
"497 103 OFFCURVE",
"415 24 OFFCURVE",
"291 24 CURVE SMOOTH"
);
}
);
width = 582;
},
{
anchors = (
{
name = bottom;
position = "{348, 0}";
},
{
name = center;
position = "{348, 370}";
},
{
name = ogonek;
position = "{444, 0}";
},
{
name = top;
position = "{348, 760}";
},
{
name = topleft;
position = "{20, 740}";
},
{
name = topright;
position = "{440, 740}";
}
);
background = {
paths = (
{
closed = 1;
nodes = (
"541 -11 OFFCURVE",
"670 98 OFFCURVE",
"670 370 CURVE SMOOTH",
"670 642 OFFCURVE",
"538 751 OFFCURVE",
"348 751 CURVE SMOOTH",
"158 751 OFFCURVE",
"26 636 OFFCURVE",
"26 370 CURVE SMOOTH",
"26 104 OFFCURVE",
"155 -11 OFFCURVE",
"348 -11 CURVE SMOOTH"
);
},
{
closed = 1;
nodes = (
"267 146 OFFCURVE",
"226 199 OFFCURVE",
"226 374 CURVE SMOOTH",
"226 541 OFFCURVE",
"267 594 OFFCURVE",
"348 594 CURVE SMOOTH",
"429 594 OFFCURVE",
"470 541 OFFCURVE",
"470 366 CURVE SMOOTH",
"470 199 OFFCURVE",
"429 146 OFFCURVE",
"348 146 CURVE SMOOTH"
);
}
);
};
color = 4;
layerId = "C8FFBC04-9D7C-494A-A42D-BACB8E26599D";
paths = (
{
closed = 1;
nodes = (
"541 -10 OFFCURVE",
"670 102 OFFCURVE",
"670 370 CURVE SMOOTH",
"670 638 OFFCURVE",
"538 750 OFFCURVE",
"348 750 CURVE SMOOTH",
"158 750 OFFCURVE",
"26 638 OFFCURVE",
"26 370 CURVE SMOOTH",
"26 102 OFFCURVE",
"155 -10 OFFCURVE",
"348 -10 CURVE SMOOTH"
);
},
{
closed = 1;
nodes = (
"269 152 OFFCURVE",
"226 207 OFFCURVE",
"226 374 CURVE SMOOTH",
"226 533 OFFCURVE",
"269 588 OFFCURVE",
"348 588 CURVE SMOOTH",
"427 588 OFFCURVE",
"470 533 OFFCURVE",
"470 366 CURVE SMOOTH",
"470 207 OFFCURVE",
"427 152 OFFCURVE",
"348 152 CURVE SMOOTH"
);
}
);
width = 696;
},
{
anchors = (
{
name = bottom;
position = "{390, 0}";
},
{
name = center;
position = "{390, 370}";
},
{
name = ogonek;
position = "{480, 0}";
},
{
name = top;
position = "{390, 760}";
},
{
name = topleft;
position = "{22, 740}";
},
{
name = topright;
position = "{479, 740}";
}
);
background = {
anchors = (
{
name = bottom;
position = "{390, 0}";
},
{
name = center;
position = "{390, 370}";
},
{
name = ogonek;
position = "{480, 0}";
},
{
name = top;
position = "{390, 760}";
},
{
name = topleft;
position = "{22, 740}";
},
{
name = topright;
position = "{479, 740}";
}
);
paths = (
{
closed = 1;
nodes = (
"581 -9 OFFCURVE",
"714 98 OFFCURVE",
"714 370 CURVE SMOOTH",
"714 642 OFFCURVE",
"578 749 OFFCURVE",
"390 749 CURVE SMOOTH",
"202 749 OFFCURVE",
"66 636 OFFCURVE",
"66 370 CURVE SMOOTH",
"66 104 OFFCURVE",
"199 -9 OFFCURVE",
"390 -9 CURVE SMOOTH"
);
},
{
closed = 1;
nodes = (
"220 25 OFFCURVE",
"102 121 OFFCURVE",
"102 372 CURVE SMOOTH",
"102 619 OFFCURVE",
"220 715 OFFCURVE",
"390 715 CURVE SMOOTH",
"560 715 OFFCURVE",
"678 619 OFFCURVE",
"678 368 CURVE SMOOTH",
"678 121 OFFCURVE",
"560 25 OFFCURVE",
"390 25 CURVE SMOOTH"
);
}
);
};
color = 4;
layerId = "E28BEEB5-BD92-4E7A-B4EA-FC5E5BBBF580";
paths = (
{
closed = 1;
nodes = (
"581 -9 OFFCURVE",
"714 98 OFFCURVE",
"714 370 CURVE SMOOTH",
"714 642 OFFCURVE",
"578 749 OFFCURVE",
"390 749 CURVE SMOOTH",
"202 749 OFFCURVE",
"66 636 OFFCURVE",
"66 370 CURVE SMOOTH",
"66 104 OFFCURVE",
"199 -9 OFFCURVE",
"390 -9 CURVE SMOOTH"
);
},
{
closed = 1;
nodes = (
"220 25 OFFCURVE",
"102 121 OFFCURVE",
"102 372 CURVE SMOOTH",
"102 619 OFFCURVE",
"220 715 OFFCURVE",
"390 715 CURVE SMOOTH",
"560 715 OFFCURVE",
"678 619 OFFCURVE",
"678 368 CURVE SMOOTH",
"678 121 OFFCURVE",
"560 25 OFFCURVE",
"390 25 CURVE SMOOTH"
);
}
);
width = 780;
},
{
anchors = (
{
name = bottom;
position = "{471, 0}";
},
{
name = center;
position = "{471, 370}";
},
{
name = ogonek;
position = "{550, 0}";
},
{
name = top;
position = "{471, 760}";
},
{
name = topleft;
position = "{28, 740}";
},
{
name = topright;
position = "{586, 740}";
}
);
background = {
paths = (
{
closed = 1;
nodes = (
"738 -10 OFFCURVE",
"902 137 OFFCURVE",
"902 370 CURVE SMOOTH",
"902 603 OFFCURVE",
"739 750 OFFCURVE",
"471 750 CURVE SMOOTH",
"203 750 OFFCURVE",
"40 605 OFFCURVE",
"40 370 CURVE SMOOTH",
"40 135 OFFCURVE",
"204 -10 OFFCURVE",
"471 -10 CURVE SMOOTH"
);
},
{
closed = 1;
nodes = (
"346 174 OFFCURVE",
"280 240 OFFCURVE",
"280 370 CURVE SMOOTH",
"280 500 OFFCURVE",
"349 566 OFFCURVE",
"471 566 CURVE SMOOTH",
"593 566 OFFCURVE",
"662 497 OFFCURVE",
"662 370 CURVE SMOOTH",
"662 243 OFFCURVE",
"596 174 OFFCURVE",
"471 174 CURVE SMOOTH"
);
}
);
};
color = 4;
layerId = "1E90A949-97C4-49F5-AA9A-AF35B6FD63CF";
paths = (
{
closed = 1;
nodes = (
"738 -10 OFFCURVE",
"902 137 OFFCURVE",
"902 370 CURVE SMOOTH",
"902 603 OFFCURVE",
"739 750 OFFCURVE",
"471 750 CURVE SMOOTH",
"203 750 OFFCURVE",
"40 605 OFFCURVE",
"40 370 CURVE SMOOTH",
"40 135 OFFCURVE",
"204 -10 OFFCURVE",
"471 -10 CURVE SMOOTH"
);
},
{
closed = 1;
nodes = (
"346 174 OFFCURVE",
"280 240 OFFCURVE",
"280 374 CURVE SMOOTH",
"280 500 OFFCURVE",
"349 566 OFFCURVE",
"471 566 CURVE SMOOTH",
"593 566 OFFCURVE",
"662 497 OFFCURVE",
"662 366 CURVE SMOOTH",
"662 243 OFFCURVE",
"596 174 OFFCURVE",
"471 174 CURVE SMOOTH"
);
}
);
width = 942;
}
);
leftKerningGroup = KERN_O_2ND;
rightKerningGroup = KERN_O_1ST;
unicode = 004F;
userData = {
com.typemytype.robofont.layerData = {
};
};
},
{
color = 3;
glyphname = Ohorn;
lastChange = "2016-12-04 21:25:49 +0000";
layers = (
{
anchors = (
{
name = bottom;
position = "{291, 0}";
},
{
name = top;
position = "{291, 760}";
}
);
background = {
paths = (
{
closed = 1;
nodes = (
"437 -9 OFFCURVE",
"533 91 OFFCURVE",
"533 370 CURVE SMOOTH",
"533 649 OFFCURVE",
"439 749 OFFCURVE",
"291 749 CURVE SMOOTH",
"143 749 OFFCURVE",
"49 649 OFFCURVE",
"49 370 CURVE SMOOTH",
"49 91 OFFCURVE",
"145 -9 OFFCURVE",
"291 -9 CURVE SMOOTH"
);
},
{
closed = 1;
nodes = (
"167 24 OFFCURVE",
"85 103 OFFCURVE",
"85 372 CURVE SMOOTH",
"85 637 OFFCURVE",
"167 716 OFFCURVE",
"291 716 CURVE SMOOTH",
"415 716 OFFCURVE",
"497 637 OFFCURVE",
"497 368 CURVE SMOOTH",
"497 103 OFFCURVE",
"415 24 OFFCURVE",
"291 24 CURVE SMOOTH"
);
},
{
closed = 1;
nodes = (
"419 707 LINE SMOOTH",
"483 707 OFFCURVE",
"533 747 OFFCURVE",
"533 821 CURVE SMOOTH",
"533 851 OFFCURVE",
"529 870 OFFCURVE",
"521 893 CURVE",
"488 893 LINE",
"495 870 OFFCURVE",
"500 850 OFFCURVE",
"500 822 CURVE SMOOTH",
"500 764 OFFCURVE",
"461 740 OFFCURVE",
"411 740 CURVE SMOOTH",
"380 740 OFFCURVE",
"332 749 OFFCURVE",
"291 749 CURVE",
"395 707 LINE"
);
}
);
};
color = 4;
layerId = "ECFF4977-BDCC-4836-B4AC-1801CF0EB460";
paths = (
{
closed = 1;
nodes = (
"437 -9 OFFCURVE",
"533 91 OFFCURVE",
"533 370 CURVE SMOOTH",
"533 554 OFFCURVE",
"492 661 OFFCURVE",
"421 711 CURVE",
"416 705 LINE",
"483 705 OFFCURVE",
"533 745 OFFCURVE",
"533 816 CURVE SMOOTH",
"533 846 OFFCURVE",
"529 865 OFFCURVE",
"521 888 CURVE",
"488 888 LINE",
"495 865 OFFCURVE",
"500 845 OFFCURVE",
"500 817 CURVE SMOOTH",
"500 762 OFFCURVE",
"461 738 OFFCURVE",
"411 738 CURVE SMOOTH",
"372 738 OFFCURVE",
"345 749 OFFCURVE",
"291 749 CURVE SMOOTH",
"143 749 OFFCURVE",
"49 649 OFFCURVE",
"49 370 CURVE SMOOTH",
"49 91 OFFCURVE",
"145 -9 OFFCURVE",
"291 -9 CURVE SMOOTH"
);
},
{
closed = 1;
nodes = (
"167 24 OFFCURVE",
"85 103 OFFCURVE",
"85 372 CURVE SMOOTH",
"85 637 OFFCURVE",
"167 716 OFFCURVE",
"291 716 CURVE SMOOTH",
"415 716 OFFCURVE",
"497 637 OFFCURVE",
"497 368 CURVE SMOOTH",
"497 103 OFFCURVE",
"415 24 OFFCURVE",
"291 24 CURVE SMOOTH"
);
}
);
width = 582;
},
{
anchors = (
{
name = bottom;
position = "{348, 0}";
},
{
name = top;
position = "{348, 760}";
}
);
background = {
paths = (
{
closed = 1;
nodes = (
"541 -10 OFFCURVE",
"670 102 OFFCURVE",
"670 370 CURVE SMOOTH",
"670 638 OFFCURVE",
"538 750 OFFCURVE",
"348 750 CURVE SMOOTH",
"158 750 OFFCURVE",
"26 638 OFFCURVE",
"26 370 CURVE SMOOTH",
"26 102 OFFCURVE",
"155 -10 OFFCURVE",
"348 -10 CURVE SMOOTH"
);
},
{
closed = 1;
nodes = (
"269 152 OFFCURVE",
"226 207 OFFCURVE",
"226 374 CURVE SMOOTH",
"226 533 OFFCURVE",
"269 588 OFFCURVE",
"348 588 CURVE SMOOTH",
"427 588 OFFCURVE",
"470 533 OFFCURVE",
"470 366 CURVE SMOOTH",
"470 207 OFFCURVE",
"427 152 OFFCURVE",
"348 152 CURVE SMOOTH"
);
},
{
closed = 1;
nodes = (
"504 652 LINE SMOOTH",
"600 652 OFFCURVE",
"670 692 OFFCURVE",
"670 804 CURVE SMOOTH",
"670 832 OFFCURVE",
"668 859 OFFCURVE",
"660 884 CURVE",
"537 884 LINE",
"543 858 OFFCURVE",
"545 835 OFFCURVE",
"545 816 CURVE SMOOTH",
"545 759 OFFCURVE",
"519 740 OFFCURVE",
"472 740 CURVE SMOOTH",
"429 740 LINE",
"429 652 LINE"
);
}
);
};
color = 4;
layerId = "C8FFBC04-9D7C-494A-A42D-BACB8E26599D";
paths = (
{
closed = 1;
nodes = (
"541 -10 OFFCURVE",
"670 102 OFFCURVE",
"670 370 CURVE SMOOTH",
"670 530 OFFCURVE",
"623 635 OFFCURVE",
"544 692 CURVE",
"514 652 LINE",
"610 652 OFFCURVE",
"680 692 OFFCURVE",
"680 806 CURVE SMOOTH",
"680 836 OFFCURVE",
"678 863 OFFCURVE",
"670 888 CURVE",
"537 888 LINE",
"543 862 OFFCURVE",
"545 839 OFFCURVE",
"545 818 CURVE SMOOTH",
"545 759 OFFCURVE",
"519 740 OFFCURVE",
"472 740 CURVE SMOOTH",
"430 740 OFFCURVE",
"401 750 OFFCURVE",
"348 750 CURVE SMOOTH",
"158 750 OFFCURVE",
"26 638 OFFCURVE",
"26 370 CURVE SMOOTH",
"26 102 OFFCURVE",
"155 -10 OFFCURVE",
"348 -10 CURVE SMOOTH"
);
},
{
closed = 1;
nodes = (
"269 152 OFFCURVE",
"226 207 OFFCURVE",
"226 374 CURVE SMOOTH",
"226 533 OFFCURVE",
"269 588 OFFCURVE",
"348 588 CURVE SMOOTH",
"427 588 OFFCURVE",
"470 533 OFFCURVE",
"470 366 CURVE SMOOTH",
"470 207 OFFCURVE",
"427 152 OFFCURVE",
"348 152 CURVE SMOOTH"
);
}
);
width = 696;
},
{
anchors = (
{
name = bottom;
position = "{390, 0}";
},
{
name = top;
position = "{390, 760}";
}
);
background = {
paths = (
{
closed = 1;
nodes = (
"581 -9 OFFCURVE",
"714 98 OFFCURVE",
"714 370 CURVE SMOOTH",
"714 642 OFFCURVE",
"578 749 OFFCURVE",
"390 749 CURVE SMOOTH",
"202 749 OFFCURVE",
"66 636 OFFCURVE",
"66 370 CURVE SMOOTH",
"66 104 OFFCURVE",
"199 -9 OFFCURVE",
"390 -9 CURVE SMOOTH"
);
},
{
closed = 1;
nodes = (
"220 25 OFFCURVE",
"102 121 OFFCURVE",
"102 372 CURVE SMOOTH",
"102 619 OFFCURVE",
"220 715 OFFCURVE",
"390 715 CURVE SMOOTH",
"560 715 OFFCURVE",
"678 619 OFFCURVE",
"678 368 CURVE SMOOTH",
"678 121 OFFCURVE",
"560 25 OFFCURVE",
"390 25 CURVE SMOOTH"
);
},
{
closed = 1;
nodes = (
"569 706 LINE SMOOTH",
"664 706 OFFCURVE",
"714 751 OFFCURVE",
"714 824 CURVE SMOOTH",
"714 854 OFFCURVE",
"710 873 OFFCURVE",
"701 896 CURVE",
"668 896 LINE",
"676 873 OFFCURVE",
"681 853 OFFCURVE",
"681 825 CURVE SMOOTH",
"681 767 OFFCURVE",
"642 740 OFFCURVE",
"571 740 CURVE SMOOTH",
"479 740 LINE",
"509 706 LINE"
);
}
);
};
color = 4;
layerId = "E28BEEB5-BD92-4E7A-B4EA-FC5E5BBBF580";
paths = (
{
closed = 1;
nodes = (
"581 -9 OFFCURVE",
"714 98 OFFCURVE",
"714 370 CURVE SMOOTH",
"714 550 OFFCURVE",
"654 658 OFFCURVE",
"560 710 CURVE",
"562 702 LINE",
"663 702 OFFCURVE",
"714 746 OFFCURVE",
"714 816 CURVE SMOOTH",
"714 846 OFFCURVE",
"710 865 OFFCURVE",
"701 888 CURVE",
"668 888 LINE",
"676 865 OFFCURVE",
"681 845 OFFCURVE",
"681 817 CURVE SMOOTH",
"681 763 OFFCURVE",
"642 736 OFFCURVE",
"571 736 CURVE SMOOTH",
"493 736 OFFCURVE",
"450 749 OFFCURVE",
"390 749 CURVE SMOOTH",
"202 749 OFFCURVE",
"66 636 OFFCURVE",
"66 370 CURVE SMOOTH",
"66 104 OFFCURVE",
"199 -9 OFFCURVE",
"390 -9 CURVE SMOOTH"
);
},
{
closed = 1;
nodes = (
"220 25 OFFCURVE",
"102 121 OFFCURVE",
"102 372 CURVE SMOOTH",
"102 619 OFFCURVE",
"220 715 OFFCURVE",
"390 715 CURVE SMOOTH",
"560 715 OFFCURVE",
"678 619 OFFCURVE",
"678 368 CURVE SMOOTH",
"678 121 OFFCURVE",
"560 25 OFFCURVE",
"390 25 CURVE SMOOTH"
);
}
);
width = 780;
},
{
anchors = (
{
name = bottom;
position = "{471, 0}";
},
{
name = top;
position = "{471, 760}";
}
);
background = {
paths = (
{
closed = 1;
nodes = (
"738 -10 OFFCURVE",
"902 137 OFFCURVE",
"902 370 CURVE SMOOTH",
"902 603 OFFCURVE",
"739 750 OFFCURVE",
"471 750 CURVE SMOOTH",
"203 750 OFFCURVE",
"40 605 OFFCURVE",
"40 370 CURVE SMOOTH",
"40 135 OFFCURVE",
"204 -10 OFFCURVE",
"471 -10 CURVE SMOOTH"
);
},
{
closed = 1;
nodes = (
"346 174 OFFCURVE",
"280 240 OFFCURVE",
"280 374 CURVE SMOOTH",
"280 500 OFFCURVE",
"349 566 OFFCURVE",
"471 566 CURVE SMOOTH",
"593 566 OFFCURVE",
"662 497 OFFCURVE",
"662 366 CURVE SMOOTH",
"662 243 OFFCURVE",
"596 174 OFFCURVE",
"471 174 CURVE SMOOTH"
);
},
{
closed = 1;
nodes = (
"734 641 LINE SMOOTH",
"842 641 OFFCURVE",
"911 697 OFFCURVE",
"911 812 CURVE SMOOTH",
"911 833 OFFCURVE",
"910 856 OFFCURVE",
"902 888 CURVE",
"766 888 LINE",
"771 855 OFFCURVE",
"772 836 OFFCURVE",
"772 818 CURVE SMOOTH",
"772 759 OFFCURVE",
"737 740 OFFCURVE",
"673 740 CURVE SMOOTH",
"644 740 OFFCURVE",
"615 740 OFFCURVE",
"586 740 CURVE",
"586 641 LINE"
);
}
);
};
color = 4;
layerId = "1E90A949-97C4-49F5-AA9A-AF35B6FD63CF";
paths = (
{
closed = 1;
nodes = (
"738 -10 OFFCURVE",
"902 137 OFFCURVE",
"902 370 CURVE SMOOTH",
"902 512 OFFCURVE",
"842 623 OFFCURVE",
"733 685 CURVE",
"733 641 LINE",
"841 641 OFFCURVE",
"910 697 OFFCURVE",
"910 812 CURVE SMOOTH",
"910 833 OFFCURVE",
"909 856 OFFCURVE",
"901 888 CURVE",
"756 888 LINE",
"761 855 OFFCURVE",
"762 836 OFFCURVE",
"762 818 CURVE SMOOTH",
"762 759 OFFCURVE",
"727 740 OFFCURVE",
"653 740 CURVE SMOOTH",
"605 740 OFFCURVE",
"529 750 OFFCURVE",
"471 750 CURVE SMOOTH",
"203 750 OFFCURVE",
"40 605 OFFCURVE",
"40 370 CURVE SMOOTH",
"40 135 OFFCURVE",
"204 -10 OFFCURVE",
"471 -10 CURVE SMOOTH"
);
},
{
closed = 1;
nodes = (
"346 174 OFFCURVE",
"280 240 OFFCURVE",
"280 374 CURVE SMOOTH",
"280 500 OFFCURVE",
"349 566 OFFCURVE",
"471 566 CURVE SMOOTH",
"593 566 OFFCURVE",
"662 497 OFFCURVE",
"662 366 CURVE SMOOTH",
"662 243 OFFCURVE",
"596 174 OFFCURVE",
"471 174 CURVE SMOOTH"
);
}
);
width = 942;
}
);
leftMetricsKey = O;
widthMetricsKey = O;
unicode = 01A0;
},
{
color = 3;
glyphname = Oogonek;
lastChange = "2016-12-04 21:25:49 +0000";
layers = (
{
background = {
paths = (
{
closed = 1;
nodes = (
"437 -9 OFFCURVE",
"533 91 OFFCURVE",
"533 370 CURVE SMOOTH",
"533 649 OFFCURVE",
"439 749 OFFCURVE",
"291 749 CURVE SMOOTH",
"143 749 OFFCURVE",
"49 649 OFFCURVE",
"49 370 CURVE SMOOTH",
"49 91 OFFCURVE",
"145 -9 OFFCURVE",
"291 -9 CURVE SMOOTH"
);
},
{
closed = 1;
nodes = (
"167 24 OFFCURVE",
"85 103 OFFCURVE",
"85 372 CURVE SMOOTH",
"85 637 OFFCURVE",
"167 716 OFFCURVE",
"291 716 CURVE SMOOTH",
"415 716 OFFCURVE",
"497 637 OFFCURVE",
"497 368 CURVE SMOOTH",
"497 103 OFFCURVE",
"415 24 OFFCURVE",
"291 24 CURVE SMOOTH"
);
},
{
closed = 1;
nodes = (
"368 -200 OFFCURVE",
"392 -194 OFFCURVE",
"417 -181 CURVE",
"417 -154 LINE",
"386 -169 OFFCURVE",
"364 -174 OFFCURVE",
"343 -174 CURVE SMOOTH",
"297 -174 OFFCURVE",
"273 -155 OFFCURVE",
"273 -114 CURVE SMOOTH",
"273 -74 OFFCURVE",
"296 -40 OFFCURVE",
"361 0 CURVE",
"347 23 LINE",
"276 -21 OFFCURVE",
"245 -64 OFFCURVE",
"245 -116 CURVE SMOOTH",
"245 -171 OFFCURVE",
"281 -200 OFFCURVE",
"344 -200 CURVE SMOOTH"
);
}
);
};
color = 4;
layerId = "ECFF4977-BDCC-4836-B4AC-1801CF0EB460";
paths = (
{
closed = 1;
nodes = (
"368 -200 OFFCURVE",
"392 -194 OFFCURVE",
"417 -181 CURVE",
"417 -154 LINE",
"386 -169 OFFCURVE",
"364 -174 OFFCURVE",
"343 -174 CURVE SMOOTH",
"297 -174 OFFCURVE",
"273 -155 OFFCURVE",
"273 -114 CURVE SMOOTH",
"273 -70 OFFCURVE",
"304 -27 OFFCURVE",
"378 5 CURVE SMOOTH",
"475 47 OFFCURVE",
"533 150 OFFCURVE",
"533 370 CURVE SMOOTH",
"533 649 OFFCURVE",
"439 749 OFFCURVE",
"291 749 CURVE SMOOTH",
"143 749 OFFCURVE",
"49 649 OFFCURVE",
"49 370 CURVE SMOOTH",
"49 91 OFFCURVE",
"145 -9 OFFCURVE",
"291 -9 CURVE SMOOTH",
"317 -9 LINE",
"317 -1 LINE",
"264 -34 OFFCURVE",
"244 -74 OFFCURVE",
"244 -116 CURVE SMOOTH",
"244 -171 OFFCURVE",
"281 -200 OFFCURVE",
"344 -200 CURVE SMOOTH"
);
},
{
closed = 1;
nodes = (
"167 24 OFFCURVE",
"85 103 OFFCURVE",
"85 372 CURVE SMOOTH",
"85 637 OFFCURVE",
"167 716 OFFCURVE",
"291 716 CURVE SMOOTH",
"415 716 OFFCURVE",
"497 637 OFFCURVE",
"497 368 CURVE SMOOTH",
"497 103 OFFCURVE",
"415 24 OFFCURVE",
"291 24 CURVE SMOOTH"
);
}
);
width = 582;
},
{
background = {
paths = (
{
closed = 1;
nodes = (
"541 -10 OFFCURVE",
"670 102 OFFCURVE",
"670 370 CURVE SMOOTH",
"670 638 OFFCURVE",
"538 750 OFFCURVE",
"348 750 CURVE SMOOTH",
"158 750 OFFCURVE",
"26 638 OFFCURVE",
"26 370 CURVE SMOOTH",
"26 102 OFFCURVE",
"155 -10 OFFCURVE",
"348 -10 CURVE SMOOTH"
);
},
{
closed = 1;
nodes = (
"269 152 OFFCURVE",
"226 207 OFFCURVE",
"226 374 CURVE SMOOTH",
"226 533 OFFCURVE",
"269 588 OFFCURVE",
"348 588 CURVE SMOOTH",
"427 588 OFFCURVE",
"470 533 OFFCURVE",
"470 366 CURVE SMOOTH",
"470 207 OFFCURVE",
"427 152 OFFCURVE",
"348 152 CURVE SMOOTH"
);
},
{
closed = 1;
nodes = (
"416 -230 OFFCURVE",
"444 -224 OFFCURVE",
"470 -215 CURVE",
"470 -140 LINE",
"446 -149 OFFCURVE",
"424 -153 OFFCURVE",
"405 -153 CURVE SMOOTH",
"359 -153 OFFCURVE",
"341 -136 OFFCURVE",
"341 -108 CURVE SMOOTH",
"341 -72 OFFCURVE",
"360 -36 OFFCURVE",
"464 0 CURVE",
"408 43 LINE",
"276 -4 OFFCURVE",
"233 -52 OFFCURVE",
"233 -119 CURVE SMOOTH",
"233 -187 OFFCURVE",
"279 -230 OFFCURVE",
"379 -230 CURVE SMOOTH"
);
}
);
};
color = 4;
layerId = "C8FFBC04-9D7C-494A-A42D-BACB8E26599D";
paths = (
{
closed = 1;
nodes = (
"416 -230 OFFCURVE",
"444 -224 OFFCURVE",
"470 -215 CURVE",
"470 -140 LINE",
"446 -149 OFFCURVE",
"424 -153 OFFCURVE",
"405 -153 CURVE SMOOTH",
"359 -153 OFFCURVE",
"341 -136 OFFCURVE",
"341 -108 CURVE SMOOTH",
"341 -65 OFFCURVE",
"375 -27 OFFCURVE",
"476 10 CURVE SMOOTH",
"581 48 OFFCURVE",
"670 149 OFFCURVE",
"670 370 CURVE SMOOTH",
"670 638 OFFCURVE",
"538 750 OFFCURVE",
"348 750 CURVE SMOOTH",
"158 750 OFFCURVE",
"26 638 OFFCURVE",
"26 370 CURVE SMOOTH",
"26 102 OFFCURVE",
"155 -10 OFFCURVE",
"348 -10 CURVE SMOOTH",
"362 -10 LINE",
"382 32 LINE",
"271 -9 OFFCURVE",
"233 -57 OFFCURVE",
"233 -119 CURVE SMOOTH",
"233 -187 OFFCURVE",
"279 -230 OFFCURVE",
"379 -230 CURVE SMOOTH"
);
},
{
closed = 1;
nodes = (
"269 152 OFFCURVE",
"226 207 OFFCURVE",
"226 374 CURVE SMOOTH",
"226 533 OFFCURVE",
"269 588 OFFCURVE",
"348 588 CURVE SMOOTH",
"427 588 OFFCURVE",
"470 533 OFFCURVE",
"470 366 CURVE SMOOTH",
"470 207 OFFCURVE",
"427 152 OFFCURVE",
"348 152 CURVE SMOOTH"
);
}
);
width = 696;
},
{
background = {
paths = (
{
closed = 1;
nodes = (
"581 -9 OFFCURVE",
"714 98 OFFCURVE",
"714 370 CURVE SMOOTH",
"714 642 OFFCURVE",
"578 749 OFFCURVE",
"390 749 CURVE SMOOTH",
"202 749 OFFCURVE",
"66 636 OFFCURVE",
"66 370 CURVE SMOOTH",
"66 104 OFFCURVE",
"199 -9 OFFCURVE",
"390 -9 CURVE SMOOTH"
);
},
{
closed = 1;
nodes = (
"220 25 OFFCURVE",
"102 121 OFFCURVE",
"102 372 CURVE SMOOTH",
"102 619 OFFCURVE",
"220 715 OFFCURVE",
"390 715 CURVE SMOOTH",
"560 715 OFFCURVE",
"678 619 OFFCURVE",
"678 368 CURVE SMOOTH",
"678 121 OFFCURVE",
"560 25 OFFCURVE",
"390 25 CURVE SMOOTH"
);
},
{
closed = 1;
nodes = (
"486 -200 OFFCURVE",
"518 -193 OFFCURVE",
"549 -180 CURVE",
"549 -153 LINE",
"510 -167 OFFCURVE",
"484 -174 OFFCURVE",
"453 -174 CURVE SMOOTH",
"401 -174 OFFCURVE",
"373 -152 OFFCURVE",
"373 -114 CURVE SMOOTH",
"373 -74 OFFCURVE",
"395 -40 OFFCURVE",
"480 0 CURVE",
"468 24 LINE",
"374 -20 OFFCURVE",
"345 -64 OFFCURVE",
"345 -115 CURVE SMOOTH",
"345 -168 OFFCURVE",
"384 -200 OFFCURVE",
"455 -200 CURVE SMOOTH"
);
}
);
};
color = 4;
layerId = "E28BEEB5-BD92-4E7A-B4EA-FC5E5BBBF580";
paths = (
{
closed = 1;
nodes = (
"486 -200 OFFCURVE",
"518 -193 OFFCURVE",
"549 -180 CURVE",
"549 -153 LINE",
"510 -167 OFFCURVE",
"484 -174 OFFCURVE",
"453 -174 CURVE SMOOTH",
"401 -174 OFFCURVE",
"373 -152 OFFCURVE",
"373 -114 CURVE SMOOTH",
"373 -71 OFFCURVE",
"399 -29 OFFCURVE",
"515 10 CURVE SMOOTH",
"628 48 OFFCURVE",
"714 154 OFFCURVE",
"714 370 CURVE SMOOTH",
"714 642 OFFCURVE",
"578 749 OFFCURVE",
"390 749 CURVE SMOOTH",
"202 749 OFFCURVE",
"66 636 OFFCURVE",
"66 370 CURVE SMOOTH",
"66 104 OFFCURVE",
"198 -9 OFFCURVE",
"394 -9 CURVE SMOOTH",
"429 -9 LINE",
"429 -1 LINE",
"365 -33 OFFCURVE",
"344 -71 OFFCURVE",
"344 -115 CURVE SMOOTH",
"344 -168 OFFCURVE",
"384 -200 OFFCURVE",
"455 -200 CURVE SMOOTH"
);
},
{
closed = 1;
nodes = (
"220 25 OFFCURVE",
"102 121 OFFCURVE",
"102 372 CURVE SMOOTH",
"102 619 OFFCURVE",
"220 715 OFFCURVE",
"390 715 CURVE SMOOTH",
"560 715 OFFCURVE",
"678 619 OFFCURVE",
"678 368 CURVE SMOOTH",
"678 121 OFFCURVE",
"560 25 OFFCURVE",
"390 25 CURVE SMOOTH"
);
}
);
width = 780;
},
{
background = {
paths = (
{
closed = 1;
nodes = (
"738 -10 OFFCURVE",
"902 137 OFFCURVE",
"902 370 CURVE SMOOTH",
"902 603 OFFCURVE",
"739 750 OFFCURVE",
"471 750 CURVE SMOOTH",
"203 750 OFFCURVE",
"40 605 OFFCURVE",
"40 370 CURVE SMOOTH",
"40 135 OFFCURVE",
"204 -10 OFFCURVE",
"471 -10 CURVE SMOOTH"
);
},
{
closed = 1;
nodes = (
"346 174 OFFCURVE",
"280 240 OFFCURVE",
"280 374 CURVE SMOOTH",
"280 500 OFFCURVE",
"349 566 OFFCURVE",
"471 566 CURVE SMOOTH",
"593 566 OFFCURVE",
"662 497 OFFCURVE",
"662 366 CURVE SMOOTH",
"662 243 OFFCURVE",
"596 174 OFFCURVE",
"471 174 CURVE SMOOTH"
);
},
{
closed = 1;
nodes = (
"534 -230 OFFCURVE",
"565 -224 OFFCURVE",
"594 -215 CURVE",
"594 -135 LINE",
"566 -144 OFFCURVE",
"544 -147 OFFCURVE",
"528 -147 CURVE SMOOTH",
"476 -147 OFFCURVE",
"454 -128 OFFCURVE",
"454 -98 CURVE SMOOTH",
"454 -61 OFFCURVE",
"485 -30 OFFCURVE",
"577 0 CURVE",
"521 39 LINE",
"373 7 OFFCURVE",
"326 -52 OFFCURVE",
"326 -117 CURVE SMOOTH",
"326 -185 OFFCURVE",
"379 -230 OFFCURVE",
"492 -230 CURVE SMOOTH"
);
}
);
};
color = 4;
layerId = "1E90A949-97C4-49F5-AA9A-AF35B6FD63CF";
paths = (
{
closed = 1;
nodes = (
"534 -230 OFFCURVE",
"565 -224 OFFCURVE",
"594 -215 CURVE",
"594 -135 LINE",
"566 -144 OFFCURVE",
"544 -147 OFFCURVE",
"528 -147 CURVE SMOOTH",
"476 -147 OFFCURVE",
"454 -128 OFFCURVE",
"454 -98 CURVE SMOOTH",
"454 -62 OFFCURVE",
"487 -22 OFFCURVE",
"602 3 CURVE SMOOTH",
"764 38 OFFCURVE",
"902 154 OFFCURVE",
"902 370 CURVE SMOOTH",
"902 603 OFFCURVE",
"739 750 OFFCURVE",
"471 750 CURVE SMOOTH",
"203 750 OFFCURVE",
"40 605 OFFCURVE",
"40 370 CURVE SMOOTH",
"40 139 OFFCURVE",
"198 -5 OFFCURVE",
"456 -10 CURVE SMOOTH",
"476 -10 LINE",
"487 30 LINE",
"371 -1 OFFCURVE",
"326 -55 OFFCURVE",
"326 -117 CURVE SMOOTH",
"326 -185 OFFCURVE",
"379 -230 OFFCURVE",
"492 -230 CURVE SMOOTH"
);
},
{
closed = 1;
nodes = (
"346 174 OFFCURVE",
"280 240 OFFCURVE",
"280 374 CURVE SMOOTH",
"280 500 OFFCURVE",
"349 566 OFFCURVE",
"471 566 CURVE SMOOTH",
"593 566 OFFCURVE",
"662 497 OFFCURVE",
"662 366 CURVE SMOOTH",
"662 243 OFFCURVE",
"596 174 OFFCURVE",
"471 174 CURVE SMOOTH"
);
}
);
width = 942;
}
);
leftMetricsKey = O;
widthMetricsKey = O;
unicode = 01EA;
},
{
color = 3;
glyphname = Oslash;
lastChange = "2016-12-04 21:25:45 +0000";
layers = (
{
anchors = (
{
name = bottom;
position = "{292, 0}";
},
{
name = top;
position = "{292, 760}";
}
);
background = {
anchors = (
{
name = topUC;
position = "{297, 760}";
}
);
paths = (
{
closed = 1;
nodes = (
"300 -10 CURVE SMOOTH",
"462 -10 OFFCURVE",
"544 117 OFFCURVE",
"544 369 CURVE SMOOTH",
"544 624 OFFCURVE",
"463 750 OFFCURVE",
"300 750 CURVE SMOOTH",
"136 750 OFFCURVE",
"56 625 OFFCURVE",
"56 369 CURVE SMOOTH",
"56 115 OFFCURVE",
"136 -10 OFFCURVE"
);
},
{
closed = 1;
nodes = (
"300 24 CURVE SMOOTH",
"154 24 OFFCURVE",
"90 129 OFFCURVE",
"90 369 CURVE SMOOTH",
"90 609 OFFCURVE",
"155 716 OFFCURVE",
"300 716 CURVE SMOOTH",
"442 716 OFFCURVE",
"510 604 OFFCURVE",
"510 369 CURVE SMOOTH",
"510 131 OFFCURVE",
"445 24 OFFCURVE"
);
},
{
closed = 1;
nodes = (
"25 0 LINE",
"65 0 LINE",
"575 740 LINE",
"536 740 LINE"
);
}
);
};
color = 4;
components = (
{
name = O;
},
{
name = slashcomb.case;
transform = "{1, 0, 0, 1, -9, 0}";
}
);
layerId = "ECFF4977-BDCC-4836-B4AC-1801CF0EB460";
width = 582;
},
{
anchors = (
{
name = bottom;
position = "{350, 0}";
},
{
name = top;
position = "{350, 760}";
}
);
background = {
anchors = (
{
name = top;
position = "{345, 805}";
}
);
components = (
{
name = slashcomb.case;
}
);
paths = (
{
closed = 1;
nodes = (
"561 -10 OFFCURVE",
"663 111 OFFCURVE",
"663 369 CURVE SMOOTH",
"663 628 OFFCURVE",
"561 750 OFFCURVE",
"344 750 CURVE SMOOTH",
"131 750 OFFCURVE",
"27 625 OFFCURVE",
"27 369 CURVE SMOOTH",
"27 114 OFFCURVE",
"131 -10 OFFCURVE",
"344 -10 CURVE SMOOTH"
);
},
{
closed = 1;
nodes = (
"256 149 OFFCURVE",
"227 204 OFFCURVE",
"227 369 CURVE SMOOTH",
"227 537 OFFCURVE",
"256 591 OFFCURVE",
"344 591 CURVE SMOOTH",
"436 591 OFFCURVE",
"463 540 OFFCURVE",
"463 369 CURVE SMOOTH",
"463 202 OFFCURVE",
"434 149 OFFCURVE",
"344 149 CURVE SMOOTH"
);
}
);
};
color = 4;
components = (
{
name = O;
},
{
name = slashcomb.case;
transform = "{1, 0, 0, 1, 48, 0}";
}
);
layerId = "C8FFBC04-9D7C-494A-A42D-BACB8E26599D";
width = 696;
},
{
anchors = (
{
name = bottom;
position = "{390, 0}";
},
{
name = top;
position = "{388, 760}";
}
);
background = {
anchors = (
{
name = bottom;
position = "{388, 0}";
},
{
name = top;
position = "{388, 760}";
}
);
components = (
{
name = O;
},
{
name = slashcomb.case;
transform = "{1, 0, 0, 1, -10, 0}";
}
);
};
color = 4;
components = (
{
name = O;
},
{
name = slashcomb.case;
transform = "{1, 0, 0, 1, -10, 0}";
}
);
layerId = "E28BEEB5-BD92-4E7A-B4EA-FC5E5BBBF580";
width = 780;
},
{
anchors = (
{
name = bottom;
position = "{471, 0}";
},
{
name = top;
position = "{471, 760}";
}
);
background = {
anchors = (
{
name = topUC;
position = "{434, 885}";
}
);
paths = (
{
closed = 1;
nodes = (
"434 -10 CURVE",
"693 -10 OFFCURVE",
"835 124 OFFCURVE",
"835 369 CURVE SMOOTH",
"835 615 OFFCURVE",
"693 750 OFFCURVE",
"434 750 CURVE SMOOTH",
"173 750 OFFCURVE",
"33 617 OFFCURVE",
"33 369 CURVE SMOOTH",
"33 123 OFFCURVE",
"174 -10 OFFCURVE"
);
},
{
closed = 1;
nodes = (
"434 174 CURVE SMOOTH",
"307 174 OFFCURVE",
"273 207 OFFCURVE",
"273 369 CURVE SMOOTH",
"273 529 OFFCURVE",
"310 566 OFFCURVE",
"434 566 CURVE SMOOTH",
"557 566 OFFCURVE",
"595 526 OFFCURVE",
"595 369 CURVE SMOOTH",
"595 206 OFFCURVE",
"563 174 OFFCURVE"
);
},
{
closed = 1;
nodes = (
"5 0 LINE",
"166 0 LINE",
"863 740 LINE",
"702 740 LINE"
);
}
);
};
color = 4;
components = (
{
name = O;
},
{
name = slashcomb.case;
transform = "{1, 0, 0, 1, 21, 0}";
}
);
layerId = "1E90A949-97C4-49F5-AA9A-AF35B6FD63CF";
width = 942;
}
);
leftKerningGroup = KERN_O_2ND;
rightKerningGroup = KERN_O_1ST;
unicode = 00D8;
userData = {
com.typemytype.robofont.layerData = {
};
};
},
{
color = 3;
glyphname = OE;
lastChange = "2016-12-04 22:26:58 +0000";
layers = (
{
anchors = (
{
name = bottom;
position = "{467, 0}";
},
{
name = top;
position = "{467, 760}";
}
);
background = {
paths = (
{
closed = 1;
nodes = (
"409 -5 OFFCURVE",
"444 -3 OFFCURVE",
"496 2 CURVE",
"496 734 LINE",
"451 741 OFFCURVE",
"404 747 OFFCURVE",
"357 747 CURVE SMOOTH",
"152 747 OFFCURVE",
"49 629 OFFCURVE",
"49 370 CURVE SMOOTH",
"49 103 OFFCURVE",
"161 -5 OFFCURVE",
"371 -5 CURVE SMOOTH"
);
},
{
closed = 1;
nodes = (
"179 28 OFFCURVE",
"85 123 OFFCURVE",
"85 370 CURVE SMOOTH",
"85 612 OFFCURVE",
"170 714 OFFCURVE",
"359 714 CURVE SMOOTH",
"391 714 OFFCURVE",
"424 711 OFFCURVE",
"462 705 CURVE",
"462 33 LINE",
"429 29 OFFCURVE",
"401 28 OFFCURVE",
"370 28 CURVE SMOOTH"
);
},
{
closed = 1;
nodes = (
"836 0 LINE",
"836 33 LINE",
"496 33 LINE",
"496 707 LINE",
"831 707 LINE",
"831 740 LINE",
"462 740 LINE",
"462 0 LINE"
);
},
{
closed = 1;
nodes = (
"786 364 LINE",
"786 397 LINE",
"492 397 LINE",
"492 364 LINE"
);
}
);
};
color = 4;
layerId = "ECFF4977-BDCC-4836-B4AC-1801CF0EB460";
paths = (
{
closed = 1;
nodes = (
"416 -5 OFFCURVE",
"443 0 OFFCURVE",
"473 0 CURVE SMOOTH",
"812 0 LINE",
"812 33 LINE",
"484 33 LINE",
"484 707 LINE",
"807 707 LINE",
"807 740 LINE",
"470 740 LINE SMOOTH",
"441 740 OFFCURVE",
"405 747 OFFCURVE",
"350 747 CURVE SMOOTH",
"152 747 OFFCURVE",
"49 629 OFFCURVE",
"49 370 CURVE SMOOTH",
"49 103 OFFCURVE",
"161 -5 OFFCURVE",
"364 -5 CURVE SMOOTH"
);
},
{
closed = 1;
nodes = (
"179 28 OFFCURVE",
"85 123 OFFCURVE",
"85 370 CURVE SMOOTH",
"85 612 OFFCURVE",
"170 714 OFFCURVE",
"352 714 CURVE SMOOTH",
"384 714 OFFCURVE",
"417 712 OFFCURVE",
"450 707 CURVE",
"450 33 LINE",
"422 29 OFFCURVE",
"394 28 OFFCURVE",
"363 28 CURVE SMOOTH"
);
},
{
closed = 1;
nodes = (
"762 364 LINE",
"762 397 LINE",
"480 397 LINE",
"480 364 LINE"
);
}
);
width = 829;
},
{
anchors = (
{
name = bottom;
position = "{520, 0}";
},
{
name = top;
position = "{520, 760}";
}
);
background = {
paths = (
{
closed = 1;
nodes = (
"1258 747 OFFCURVE",
"1126 631 OFFCURVE",
"1126 370 CURVE SMOOTH",
"1126 111 OFFCURVE",
"1251 -7 OFFCURVE",
"1502 -7 CURVE SMOOTH",
"1569 -7 OFFCURVE",
"1652 2 OFFCURVE",
"1721 18 CURVE",
"1721 736 LINE",
"1661 743 OFFCURVE",
"1591 747 OFFCURVE",
"1529 747 CURVE SMOOTH"
);
},
{
closed = 1;
nodes = (
"1381 155 OFFCURVE",
"1326 204 OFFCURVE",
"1326 369 CURVE SMOOTH",
"1326 535 OFFCURVE",
"1385 584 OFFCURVE",
"1478 584 CURVE SMOOTH",
"1492 584 OFFCURVE",
"1513 582 OFFCURVE",
"1525 579 CURVE",
"1525 156 LINE",
"1503 155 OFFCURVE",
"1486 155 OFFCURVE",
"1475 155 CURVE SMOOTH"
);
},
{
closed = 1;
nodes = (
"916 0 LINE",
"916 169 LINE",
"618 169 LINE",
"618 571 LINE",
"911 571 LINE",
"911 740 LINE",
"425 740 LINE",
"425 0 LINE"
);
},
{
closed = 1;
nodes = (
"859 295 LINE",
"859 460 LINE",
"564 460 LINE",
"564 295 LINE"
);
}
);
};
color = 4;
layerId = "C8FFBC04-9D7C-494A-A42D-BACB8E26599D";
paths = (
{
closed = 1;
nodes = (
"446 -5 OFFCURVE",
"505 0 OFFCURVE",
"548 0 CURVE SMOOTH",
"902 0 LINE",
"902 169 LINE",
"616 169 LINE",
"616 571 LINE",
"897 571 LINE",
"897 740 LINE",
"548 740 LINE SMOOTH",
"505 740 OFFCURVE",
"456 745 OFFCURVE",
"410 745 CURVE SMOOTH",
"172 745 OFFCURVE",
"26 629 OFFCURVE",
"26 370 CURVE SMOOTH",
"26 115 OFFCURVE",
"154 -5 OFFCURVE",
"400 -5 CURVE SMOOTH"
);
},
{
closed = 1;
nodes = (
"281 157 OFFCURVE",
"226 206 OFFCURVE",
"226 370 CURVE SMOOTH",
"226 533 OFFCURVE",
"281 582 OFFCURVE",
"373 582 CURVE SMOOTH",
"384 582 OFFCURVE",
"401 582 OFFCURVE",
"423 581 CURVE",
"423 158 LINE",
"401 157 OFFCURVE",
"387 157 OFFCURVE",
"373 157 CURVE SMOOTH"
);
},
{
closed = 1;
nodes = (
"845 295 LINE",
"845 460 LINE",
"562 460 LINE",
"562 295 LINE"
);
}
);
width = 930;
},
{
anchors = (
{
name = bottom;
position = "{617, 0}";
},
{
name = top;
position = "{617, 760}";
}
);
background = {
anchors = (
{
name = bottom;
position = "{617, 0}";
},
{
name = top;
position = "{617, 760}";
}
);
paths = (
{
closed = 1;
nodes = (
"508 -5 OFFCURVE",
"591 0 OFFCURVE",
"640 0 CURVE SMOOTH",
"1060 0 LINE",
"1060 33 LINE",
"634 33 LINE",
"634 707 LINE",
"1055 707 LINE",
"1055 740 LINE",
"630 740 LINE SMOOTH",
"574 740 OFFCURVE",
"504 747 OFFCURVE",
"447 747 CURVE SMOOTH",
"200 747 OFFCURVE",
"66 621 OFFCURVE",
"66 370 CURVE SMOOTH",
"66 119 OFFCURVE",
"200 -5 OFFCURVE",
"451 -5 CURVE SMOOTH"
);
},
{
closed = 1;
nodes = (
"222 28 OFFCURVE",
"102 136 OFFCURVE",
"102 370 CURVE SMOOTH",
"102 604 OFFCURVE",
"222 714 OFFCURVE",
"450 714 CURVE SMOOTH",
"509 714 OFFCURVE",
"551 711 OFFCURVE",
"600 706 CURVE",
"600 34 LINE",
"567 30 OFFCURVE",
"520 28 OFFCURVE",
"450 28 CURVE SMOOTH"
);
},
{
closed = 1;
nodes = (
"1005 364 LINE",
"1005 397 LINE",
"630 397 LINE",
"630 364 LINE"
);
}
);
};
color = 4;
layerId = "E28BEEB5-BD92-4E7A-B4EA-FC5E5BBBF580";
paths = (
{
closed = 1;
nodes = (
"508 -5 OFFCURVE",
"591 0 OFFCURVE",
"640 0 CURVE SMOOTH",
"1060 0 LINE",
"1060 33 LINE",
"634 33 LINE",
"634 707 LINE",
"1055 707 LINE",
"1055 740 LINE",
"630 740 LINE SMOOTH",
"574 740 OFFCURVE",
"504 747 OFFCURVE",
"447 747 CURVE SMOOTH",
"200 747 OFFCURVE",
"66 621 OFFCURVE",
"66 370 CURVE SMOOTH",
"66 119 OFFCURVE",
"200 -5 OFFCURVE",
"451 -5 CURVE SMOOTH"
);
},
{
closed = 1;
nodes = (
"222 28 OFFCURVE",
"102 136 OFFCURVE",
"102 370 CURVE SMOOTH",
"102 604 OFFCURVE",
"222 714 OFFCURVE",
"450 714 CURVE SMOOTH",
"509 714 OFFCURVE",
"551 711 OFFCURVE",
"600 706 CURVE",
"600 34 LINE",
"567 30 OFFCURVE",
"520 28 OFFCURVE",
"450 28 CURVE SMOOTH"
);
},
{
closed = 1;
nodes = (
"1005 364 LINE",
"1005 397 LINE",
"630 397 LINE",
"630 364 LINE"
);
}
);
width = 1111;
},
{
anchors = (
{
name = bottom;
position = "{705, 0}";
},
{
name = top;
position = "{705, 760}";
}
);
background = {
paths = (
{
closed = 1;
nodes = (
"650 -7 OFFCURVE",
"752 -3 OFFCURVE",
"832 7 CURVE",
"832 716 LINE",
"751 735 OFFCURVE",
"627 747 OFFCURVE",
"527 747 CURVE SMOOTH",
"207 747 OFFCURVE",
"40 629 OFFCURVE",
"40 370 CURVE SMOOTH",
"40 99 OFFCURVE",
"216 -7 OFFCURVE",
"581 -7 CURVE SMOOTH"
);
},
{
closed = 1;
nodes = (
"351 179 OFFCURVE",
"279 236 OFFCURVE",
"279 372 CURVE SMOOTH",
"279 504 OFFCURVE",
"356 562 OFFCURVE",
"516 562 CURVE SMOOTH",
"539 562 OFFCURVE",
"572 558 OFFCURVE",
"594 554 CURVE",
"594 181 LINE",
"570 179 OFFCURVE",
"545 179 OFFCURVE",
"516 179 CURVE SMOOTH"
);
}
);
};
color = 4;
layerId = "1E90A949-97C4-49F5-AA9A-AF35B6FD63CF";
paths = (
{
closed = 1;
nodes = (
"624 -7 OFFCURVE",
"689 0 OFFCURVE",
"752 0 CURVE SMOOTH",
"1208 0 LINE",
"1208 180 LINE",
"822 180 LINE",
"822 560 LINE",
"1203 560 LINE",
"1203 740 LINE",
"752 740 LINE SMOOTH",
"688 740 OFFCURVE",
"621 747 OFFCURVE",
"564 747 CURVE SMOOTH",
"216 747 OFFCURVE",
"40 631 OFFCURVE",
"40 370 CURVE SMOOTH",
"40 99 OFFCURVE",
"206 -7 OFFCURVE",
"574 -7 CURVE SMOOTH"
);
},
{
closed = 1;
nodes = (
"351 179 OFFCURVE",
"279 236 OFFCURVE",
"279 368 CURVE SMOOTH",
"279 504 OFFCURVE",
"351 561 OFFCURVE",
"509 561 CURVE SMOOTH",
"538 561 OFFCURVE",
"563 561 OFFCURVE",
"587 559 CURVE",
"587 181 LINE",
"563 179 OFFCURVE",
"532 179 OFFCURVE",
"509 179 CURVE SMOOTH"
);
},
{
closed = 1;
nodes = (
"1150 290 LINE",
"1150 465 LINE",
"701 465 LINE",
"701 290 LINE"
);
}
);
width = 1249;
}
);
leftKerningGroup = KERN_O_2ND;
leftMetricsKey = O;
rightKerningGroup = KERN_E_1ST;
rightMetricsKey = E;
unicode = 0152;
},
{
color = 3;
glyphname = P;
lastChange = "2016-12-04 22:27:56 +0000";
layers = (
{
background = {
paths = (
{
closed = 1;
nodes = (
"116 0 LINE",
"116 262 LINE",
"145 260 OFFCURVE",
"173 259 OFFCURVE",
"197 259 CURVE SMOOTH",
"382 259 OFFCURVE",
"467 343 OFFCURVE",
"467 502 CURVE SMOOTH",
"467 670 OFFCURVE",
"382 747 OFFCURVE",
"218 747 CURVE SMOOTH",
"174 747 OFFCURVE",
"127 741 OFFCURVE",
"82 734 CURVE",
"82 0 LINE"
);
},
{
closed = 1;
nodes = (
"166 292 OFFCURVE",
"146 293 OFFCURVE",
"116 296 CURVE",
"116 706 LINE",
"154 711 OFFCURVE",
"187 714 OFFCURVE",
"218 714 CURVE SMOOTH",
"362 714 OFFCURVE",
"431 650 OFFCURVE",
"431 500 CURVE SMOOTH",
"431 359 OFFCURVE",
"357 292 OFFCURVE",
"200 292 CURVE SMOOTH"
);
}
);
};
color = 4;
layerId = "ECFF4977-BDCC-4836-B4AC-1801CF0EB460";
paths = (
{
closed = 1;
nodes = (
"116 0 LINE",
"116 263 LINE",
"145 260 OFFCURVE",
"173 259 OFFCURVE",
"204 259 CURVE SMOOTH",
"395 259 OFFCURVE",
"481 343 OFFCURVE",
"481 502 CURVE SMOOTH",
"481 670 OFFCURVE",
"395 747 OFFCURVE",
"225 747 CURVE SMOOTH",
"174 747 OFFCURVE",
"125 741 OFFCURVE",
"82 734 CURVE",
"82 0 LINE"
);
},
{
closed = 1;
nodes = (
"176 292 OFFCURVE",
"146 293 OFFCURVE",
"116 297 CURVE",
"116 706 LINE",
"151 711 OFFCURVE",
"187 714 OFFCURVE",
"225 714 CURVE SMOOTH",
"375 714 OFFCURVE",
"445 650 OFFCURVE",
"445 500 CURVE SMOOTH",
"445 359 OFFCURVE",
"370 292 OFFCURVE",
"207 292 CURVE SMOOTH"
);
}
);
width = 527;
},
{
background = {
paths = (
{
closed = 1;
nodes = (
"239 0 LINE",
"239 198 LINE",
"256 198 OFFCURVE",
"268 197 OFFCURVE",
"288 197 CURVE SMOOTH",
"478 197 OFFCURVE",
"585 290 OFFCURVE",
"585 473 CURVE SMOOTH",
"585 665 OFFCURVE",
"477 750 OFFCURVE",
"264 750 CURVE SMOOTH",
"184 750 OFFCURVE",
"111 740 OFFCURVE",
"43 725 CURVE",
"43 0 LINE"
);
},
{
closed = 1;
nodes = (
"268 354 OFFCURVE",
"254 355 OFFCURVE",
"239 357 CURVE",
"239 589 LINE",
"252 592 OFFCURVE",
"263 593 OFFCURVE",
"283 593 CURVE SMOOTH",
"359 593 OFFCURVE",
"395 557 OFFCURVE",
"395 471 CURVE SMOOTH",
"395 385 OFFCURVE",
"359 354 OFFCURVE",
"288 354 CURVE SMOOTH"
);
}
);
};
color = 4;
layerId = "C8FFBC04-9D7C-494A-A42D-BACB8E26599D";
paths = (
{
closed = 1;
nodes = (
"239 0 LINE",
"239 198 LINE",
"256 198 OFFCURVE",
"267 197 OFFCURVE",
"286 197 CURVE SMOOTH",
"477 197 OFFCURVE",
"585 292 OFFCURVE",
"585 473 CURVE SMOOTH",
"585 665 OFFCURVE",
"477 750 OFFCURVE",
"264 750 CURVE SMOOTH",
"184 750 OFFCURVE",
"111 740 OFFCURVE",
"43 725 CURVE",
"43 0 LINE"
);
},
{
closed = 1;
nodes = (
"268 354 OFFCURVE",
"254 355 OFFCURVE",
"239 357 CURVE",
"239 589 LINE",
"252 592 OFFCURVE",
"263 593 OFFCURVE",
"283 593 CURVE SMOOTH",
"359 593 OFFCURVE",
"395 557 OFFCURVE",
"395 471 CURVE SMOOTH",
"395 385 OFFCURVE",
"359 354 OFFCURVE",
"288 354 CURVE SMOOTH"
);
}
);
width = 605;
},
{
background = {
paths = (
{
closed = 1;
nodes = (
"139 0 LINE",
"139 266 LINE",
"189 261 OFFCURVE",
"217 259 OFFCURVE",
"265 259 CURVE SMOOTH",
"486 259 OFFCURVE",
"581 348 OFFCURVE",
"581 505 CURVE SMOOTH",
"581 673 OFFCURVE",
"474 747 OFFCURVE",
"292 747 CURVE SMOOTH",
"231 747 OFFCURVE",
"178 741 OFFCURVE",
"105 727 CURVE",
"105 0 LINE"
);
},
{
closed = 1;
nodes = (
"213 292 OFFCURVE",
"182 295 OFFCURVE",
"139 301 CURVE",
"139 700 LINE",
"189 709 OFFCURVE",
"238 714 OFFCURVE",
"292 714 CURVE SMOOTH",
"456 714 OFFCURVE",
"545 650 OFFCURVE",
"545 504 CURVE SMOOTH",
"545 365 OFFCURVE",
"465 292 OFFCURVE",
"265 292 CURVE SMOOTH"
);
}
);
};
color = 4;
layerId = "E28BEEB5-BD92-4E7A-B4EA-FC5E5BBBF580";
paths = (
{
closed = 1;
nodes = (
"139 0 LINE",
"139 266 LINE",
"189 261 OFFCURVE",
"227 259 OFFCURVE",
"275 259 CURVE SMOOTH",
"506 259 OFFCURVE",
"601 348 OFFCURVE",
"601 505 CURVE SMOOTH",
"601 673 OFFCURVE",
"494 747 OFFCURVE",
"302 747 CURVE SMOOTH",
"231 747 OFFCURVE",
"175 741 OFFCURVE",
"105 727 CURVE",
"105 0 LINE"
);
},
{
closed = 1;
nodes = (
"223 292 OFFCURVE",
"182 295 OFFCURVE",
"139 301 CURVE",
"139 700 LINE",
"187 709 OFFCURVE",
"238 714 OFFCURVE",
"302 714 CURVE SMOOTH",
"476 714 OFFCURVE",
"565 650 OFFCURVE",
"565 504 CURVE SMOOTH",
"565 365 OFFCURVE",
"485 292 OFFCURVE",
"275 292 CURVE SMOOTH"
);
}
);
width = 651;
},
{
background = {
paths = (
{
closed = 1;
nodes = (
"303 0 LINE",
"303 195 LINE",
"322 195 OFFCURVE",
"346 194 OFFCURVE",
"367 194 CURVE SMOOTH",
"601 194 OFFCURVE",
"725 287 OFFCURVE",
"725 472 CURVE SMOOTH",
"725 665 OFFCURVE",
"600 750 OFFCURVE",
"338 750 CURVE SMOOTH",
"236 750 OFFCURVE",
"147 740 OFFCURVE",
"65 725 CURVE",
"65 0 LINE"
);
},
{
closed = 1;
nodes = (
"343 357 OFFCURVE",
"326 358 OFFCURVE",
"303 360 CURVE",
"303 583 LINE",
"322 586 OFFCURVE",
"339 587 OFFCURVE",
"361 587 CURVE SMOOTH",
"455 587 OFFCURVE",
"496 553 OFFCURVE",
"496 472 CURVE SMOOTH",
"496 386 OFFCURVE",
"455 357 OFFCURVE",
"367 357 CURVE SMOOTH"
);
}
);
};
color = 4;
layerId = "1E90A949-97C4-49F5-AA9A-AF35B6FD63CF";
paths = (
{
closed = 1;
nodes = (
"303 0 LINE",
"303 195 LINE",
"322 195 OFFCURVE",
"344 194 OFFCURVE",
"365 194 CURVE SMOOTH",
"601 194 OFFCURVE",
"725 287 OFFCURVE",
"725 472 CURVE SMOOTH",
"725 665 OFFCURVE",
"598 750 OFFCURVE",
"338 750 CURVE SMOOTH",
"236 750 OFFCURVE",
"147 740 OFFCURVE",
"65 725 CURVE",
"65 0 LINE"
);
},
{
closed = 1;
nodes = (
"343 357 OFFCURVE",
"326 358 OFFCURVE",
"303 361 CURVE",
"303 583 LINE",
"322 586 OFFCURVE",
"339 587 OFFCURVE",
"361 587 CURVE SMOOTH",
"455 587 OFFCURVE",
"496 553 OFFCURVE",
"496 472 CURVE SMOOTH",
"496 386 OFFCURVE",
"455 357 OFFCURVE",
"367 357 CURVE SMOOTH"
);
}
);
width = 756;
}
);
leftKerningGroup = KERN_I_2ND;
leftMetricsKey = H;
unicode = 0050;
userData = {
com.typemytype.robofont.layerData = {
};
};
},
{
color = 3;
glyphname = Thorn;
lastChange = "2016-12-04 22:28:00 +0000";
layers = (
{
background = {
paths = (
{
closed = 1;
nodes = (
"116 -123 LINE",
"116 140 LINE",
"145 137 OFFCURVE",
"173 136 OFFCURVE",
"204 136 CURVE SMOOTH",
"395 136 OFFCURVE",
"481 220 OFFCURVE",
"481 379 CURVE SMOOTH",
"481 547 OFFCURVE",
"395 624 OFFCURVE",
"225 624 CURVE SMOOTH",
"174 624 OFFCURVE",
"125 618 OFFCURVE",
"82 611 CURVE",
"82 -123 LINE"
);
},
{
closed = 1;
nodes = (
"176 169 OFFCURVE",
"146 170 OFFCURVE",
"116 174 CURVE",
"116 583 LINE",
"151 588 OFFCURVE",
"187 591 OFFCURVE",
"225 591 CURVE SMOOTH",
"375 591 OFFCURVE",
"445 527 OFFCURVE",
"445 377 CURVE SMOOTH",
"445 236 OFFCURVE",
"370 169 OFFCURVE",
"207 169 CURVE SMOOTH"
);
}
);
};
color = 4;
layerId = "ECFF4977-BDCC-4836-B4AC-1801CF0EB460";
paths = (
{
closed = 1;
nodes = (
"116 0 LINE",
"116 140 LINE",
"145 137 OFFCURVE",
"173 136 OFFCURVE",
"204 136 CURVE SMOOTH",
"395 136 OFFCURVE",
"481 220 OFFCURVE",
"481 379 CURVE SMOOTH",
"481 547 OFFCURVE",
"395 624 OFFCURVE",
"225 624 CURVE SMOOTH",
"184 624 OFFCURVE",
"142 620 OFFCURVE",
"116 616 CURVE",
"116 740 LINE",
"82 740 LINE",
"82 0 LINE"
);
},
{
closed = 1;
nodes = (
"176 169 OFFCURVE",
"146 170 OFFCURVE",
"116 174 CURVE",
"116 583 LINE",
"151 588 OFFCURVE",
"187 591 OFFCURVE",
"225 591 CURVE SMOOTH",
"375 591 OFFCURVE",
"445 527 OFFCURVE",
"445 377 CURVE SMOOTH",
"445 236 OFFCURVE",
"370 169 OFFCURVE",
"207 169 CURVE SMOOTH"
);
}
);
width = 532;
},
{
background = {
paths = (
{
closed = 1;
nodes = (
"239 0 LINE",
"239 105 LINE",
"256 105 OFFCURVE",
"268 104 OFFCURVE",
"288 104 CURVE SMOOTH",
"478 104 OFFCURVE",
"585 197 OFFCURVE",
"585 380 CURVE SMOOTH",
"585 572 OFFCURVE",
"477 657 OFFCURVE",
"264 657 CURVE SMOOTH",
"256 657 OFFCURVE",
"247 657 OFFCURVE",
"239 657 CURVE",
"239 740 LINE",
"43 740 LINE",
"43 0 LINE"
);
},
{
closed = 1;
nodes = (
"268 261 OFFCURVE",
"254 262 OFFCURVE",
"239 264 CURVE",
"239 496 LINE",
"252 499 OFFCURVE",
"263 500 OFFCURVE",
"283 500 CURVE SMOOTH",
"359 500 OFFCURVE",
"395 464 OFFCURVE",
"395 378 CURVE SMOOTH",
"395 292 OFFCURVE",
"359 261 OFFCURVE",
"288 261 CURVE SMOOTH"
);
}
);
};
color = 4;
layerId = "C8FFBC04-9D7C-494A-A42D-BACB8E26599D";
paths = (
{
closed = 1;
nodes = (
"239 0 LINE",
"239 105 LINE",
"256 105 OFFCURVE",
"268 104 OFFCURVE",
"288 104 CURVE SMOOTH",
"478 104 OFFCURVE",
"585 197 OFFCURVE",
"585 380 CURVE SMOOTH",
"585 572 OFFCURVE",
"477 657 OFFCURVE",
"266 657 CURVE SMOOTH",
"258 657 OFFCURVE",
"247 656 OFFCURVE",
"239 656 CURVE",
"239 740 LINE",
"43 740 LINE",
"43 0 LINE"
);
},
{
closed = 1;
nodes = (
"268 261 OFFCURVE",
"254 262 OFFCURVE",
"239 264 CURVE",
"239 496 LINE",
"252 499 OFFCURVE",
"263 500 OFFCURVE",
"283 500 CURVE SMOOTH",
"359 500 OFFCURVE",
"395 464 OFFCURVE",
"395 378 CURVE SMOOTH",
"395 292 OFFCURVE",
"359 261 OFFCURVE",
"288 261 CURVE SMOOTH"
);
}
);
width = 610;
},
{
background = {
paths = (
{
closed = 1;
nodes = (
"139 -123 LINE",
"139 143 LINE",
"189 138 OFFCURVE",
"227 136 OFFCURVE",
"275 136 CURVE SMOOTH",
"506 136 OFFCURVE",
"601 225 OFFCURVE",
"601 382 CURVE SMOOTH",
"601 550 OFFCURVE",
"494 624 OFFCURVE",
"302 624 CURVE SMOOTH",
"231 624 OFFCURVE",
"175 618 OFFCURVE",
"105 604 CURVE",
"105 -123 LINE"
);
},
{
closed = 1;
nodes = (
"223 169 OFFCURVE",
"182 172 OFFCURVE",
"139 178 CURVE",
"139 577 LINE",
"187 586 OFFCURVE",
"238 591 OFFCURVE",
"302 591 CURVE SMOOTH",
"476 591 OFFCURVE",
"565 527 OFFCURVE",
"565 381 CURVE SMOOTH",
"565 242 OFFCURVE",
"485 169 OFFCURVE",
"275 169 CURVE SMOOTH"
);
}
);
};
color = 4;
layerId = "E28BEEB5-BD92-4E7A-B4EA-FC5E5BBBF580";
paths = (
{
closed = 1;
nodes = (
"139 0 LINE",
"139 143 LINE",
"189 138 OFFCURVE",
"227 136 OFFCURVE",
"275 136 CURVE SMOOTH",
"506 136 OFFCURVE",
"601 225 OFFCURVE",
"601 382 CURVE SMOOTH",
"601 550 OFFCURVE",
"494 624 OFFCURVE",
"302 624 CURVE SMOOTH",
"231 624 OFFCURVE",
"183 618 OFFCURVE",
"139 610 CURVE",
"139 741 LINE",
"105 741 LINE",
"105 0 LINE"
);
},
{
closed = 1;
nodes = (
"223 169 OFFCURVE",
"182 172 OFFCURVE",
"139 178 CURVE",
"139 577 LINE",
"187 586 OFFCURVE",
"238 591 OFFCURVE",
"302 591 CURVE SMOOTH",
"476 591 OFFCURVE",
"565 527 OFFCURVE",
"565 381 CURVE SMOOTH",
"565 242 OFFCURVE",
"485 169 OFFCURVE",
"275 169 CURVE SMOOTH"
);
}
);
width = 656;
},
{
background = {
paths = (
{
closed = 1;
nodes = (
"303 0 LINE",
"303 740 LINE",
"65 740 LINE",
"65 0 LINE"
);
},
{
closed = 1;
nodes = (
"303 103 LINE",
"322 103 OFFCURVE",
"346 102 OFFCURVE",
"367 102 CURVE SMOOTH",
"601 102 OFFCURVE",
"725 195 OFFCURVE",
"725 380 CURVE SMOOTH",
"725 573 OFFCURVE",
"600 658 OFFCURVE",
"338 658 CURVE SMOOTH",
"236 658 OFFCURVE",
"147 648 OFFCURVE",
"65 633 CURVE"
);
},
{
closed = 1;
nodes = (
"343 265 OFFCURVE",
"326 266 OFFCURVE",
"303 268 CURVE",
"303 491 LINE",
"322 494 OFFCURVE",
"339 495 OFFCURVE",
"361 495 CURVE SMOOTH",
"455 495 OFFCURVE",
"496 461 OFFCURVE",
"496 380 CURVE SMOOTH",
"496 294 OFFCURVE",
"455 265 OFFCURVE",
"367 265 CURVE SMOOTH"
);
}
);
};
color = 4;
layerId = "1E90A949-97C4-49F5-AA9A-AF35B6FD63CF";
paths = (
{
closed = 1;
nodes = (
"303 0 LINE",
"303 103 LINE",
"322 103 OFFCURVE",
"346 102 OFFCURVE",
"367 102 CURVE SMOOTH",
"601 102 OFFCURVE",
"725 195 OFFCURVE",
"725 380 CURVE SMOOTH",
"725 573 OFFCURVE",
"600 658 OFFCURVE",
"343 658 CURVE SMOOTH",
"331 658 OFFCURVE",
"315 657 OFFCURVE",
"303 657 CURVE",
"303 740 LINE",
"65 740 LINE",
"65 0 LINE"
);
},
{
closed = 1;
nodes = (
"343 265 OFFCURVE",
"326 266 OFFCURVE",
"303 268 CURVE",
"303 491 LINE",
"322 494 OFFCURVE",
"339 495 OFFCURVE",
"361 495 CURVE SMOOTH",
"455 495 OFFCURVE",
"496 461 OFFCURVE",
"496 380 CURVE SMOOTH",
"496 294 OFFCURVE",
"455 265 OFFCURVE",
"367 265 CURVE SMOOTH"
);
}
);
width = 761;
}
);
leftKerningGroup = KERN_I_2ND;
leftMetricsKey = H;
rightMetricsKey = "=P+5";
unicode = 00DE;
userData = {
com.typemytype.robofont.layerData = {
};
};
},
{
color = 3;
glyphname = Q;
lastChange = "2016-12-04 21:25:49 +0000";
layers = (
{
background = {
paths = (
{
closed = 1;
nodes = (
"521 -57 LINE",
"429 -48 OFFCURVE",
"323 -29 OFFCURVE",
"246 11 CURVE",
"256 -4 LINE",
"442 -30 OFFCURVE",
"533 101 OFFCURVE",
"533 370 CURVE SMOOTH",
"533 649 OFFCURVE",
"439 749 OFFCURVE",
"291 749 CURVE SMOOTH",
"143 749 OFFCURVE",
"49 649 OFFCURVE",
"49 370 CURVE SMOOTH",
"49 54 OFFCURVE",
"157 -45 OFFCURVE",
"516 -91 CURVE"
);
},
{
closed = 1;
nodes = (
"167 24 OFFCURVE",
"85 103 OFFCURVE",
"85 372 CURVE SMOOTH",
"85 637 OFFCURVE",
"167 716 OFFCURVE",
"291 716 CURVE SMOOTH",
"415 716 OFFCURVE",
"497 637 OFFCURVE",
"497 368 CURVE SMOOTH",
"497 103 OFFCURVE",
"415 24 OFFCURVE",
"291 24 CURVE SMOOTH"
);
}
);
};
color = 4;
layerId = "ECFF4977-BDCC-4836-B4AC-1801CF0EB460";
paths = (
{
closed = 1;
nodes = (
"522 -57 LINE",
"429 -48 OFFCURVE",
"323 -29 OFFCURVE",
"246 11 CURVE",
"256 -4 LINE",
"442 -30 OFFCURVE",
"533 101 OFFCURVE",
"533 370 CURVE SMOOTH",
"533 649 OFFCURVE",
"439 749 OFFCURVE",
"291 749 CURVE SMOOTH",
"143 749 OFFCURVE",
"49 649 OFFCURVE",
"49 370 CURVE SMOOTH",
"49 54 OFFCURVE",
"157 -45 OFFCURVE",
"516 -90 CURVE"
);
},
{
closed = 1;
nodes = (
"167 24 OFFCURVE",
"85 103 OFFCURVE",
"85 372 CURVE SMOOTH",
"85 637 OFFCURVE",
"167 716 OFFCURVE",
"291 716 CURVE SMOOTH",
"415 716 OFFCURVE",
"497 637 OFFCURVE",
"497 368 CURVE SMOOTH",
"497 103 OFFCURVE",
"415 24 OFFCURVE",
"291 24 CURVE SMOOTH"
);
}
);
width = 582;
},
{
background = {
paths = (
{
closed = 1;
nodes = (
"541 -10 OFFCURVE",
"670 102 OFFCURVE",
"670 370 CURVE SMOOTH",
"670 638 OFFCURVE",
"538 750 OFFCURVE",
"348 750 CURVE SMOOTH",
"158 750 OFFCURVE",
"26 638 OFFCURVE",
"26 370 CURVE SMOOTH",
"26 102 OFFCURVE",
"155 -10 OFFCURVE",
"348 -10 CURVE SMOOTH"
);
},
{
closed = 1;
nodes = (
"269 152 OFFCURVE",
"226 207 OFFCURVE",
"226 374 CURVE SMOOTH",
"226 533 OFFCURVE",
"269 588 OFFCURVE",
"348 588 CURVE SMOOTH",
"427 588 OFFCURVE",
"470 533 OFFCURVE",
"470 366 CURVE SMOOTH",
"470 207 OFFCURVE",
"427 152 OFFCURVE",
"348 152 CURVE SMOOTH"
);
}
);
};
color = 4;
layerId = "C8FFBC04-9D7C-494A-A42D-BACB8E26599D";
paths = (
{
closed = 1;
nodes = (
"658 -18 LINE",
"574 -6 OFFCURVE",
"491 16 OFFCURVE",
"366 65 CURVE",
"302 17 LINE",
"536 -17 OFFCURVE",
"670 112 OFFCURVE",
"670 370 CURVE SMOOTH",
"670 638 OFFCURVE",
"538 750 OFFCURVE",
"348 750 CURVE SMOOTH",
"158 750 OFFCURVE",
"26 638 OFFCURVE",
"26 370 CURVE SMOOTH",
"26 92 OFFCURVE",
"171 -90 OFFCURVE",
"621 -177 CURVE"
);
},
{
closed = 1;
nodes = (
"269 152 OFFCURVE",
"226 207 OFFCURVE",
"226 374 CURVE SMOOTH",
"226 533 OFFCURVE",
"269 588 OFFCURVE",
"348 588 CURVE SMOOTH",
"427 588 OFFCURVE",
"470 533 OFFCURVE",
"470 366 CURVE SMOOTH",
"470 207 OFFCURVE",
"427 152 OFFCURVE",
"348 152 CURVE SMOOTH"
);
}
);
width = 696;
},
{
background = {
paths = (
{
closed = 1;
nodes = (
"695 -57 LINE",
"575 -51 OFFCURVE",
"434 -30 OFFCURVE",
"346 5 CURVE",
"341 -4 LINE",
"580 -28 OFFCURVE",
"714 98 OFFCURVE",
"714 370 CURVE SMOOTH",
"714 642 OFFCURVE",
"578 749 OFFCURVE",
"390 749 CURVE SMOOTH",
"202 749 OFFCURVE",
"66 636 OFFCURVE",
"66 370 CURVE SMOOTH",
"66 73 OFFCURVE",
"209 -49 OFFCURVE",
"695 -91 CURVE"
);
},
{
closed = 1;
nodes = (
"220 25 OFFCURVE",
"102 121 OFFCURVE",
"102 372 CURVE SMOOTH",
"102 619 OFFCURVE",
"220 715 OFFCURVE",
"390 715 CURVE SMOOTH",
"560 715 OFFCURVE",
"678 619 OFFCURVE",
"678 368 CURVE SMOOTH",
"678 121 OFFCURVE",
"560 25 OFFCURVE",
"390 25 CURVE SMOOTH"
);
}
);
};
color = 4;
layerId = "E28BEEB5-BD92-4E7A-B4EA-FC5E5BBBF580";
paths = (
{
closed = 1;
nodes = (
"698 -57 LINE",
"577 -49 OFFCURVE",
"434 -30 OFFCURVE",
"346 5 CURVE",
"341 -4 LINE",
"580 -28 OFFCURVE",
"714 98 OFFCURVE",
"714 370 CURVE SMOOTH",
"714 642 OFFCURVE",
"578 749 OFFCURVE",
"390 749 CURVE SMOOTH",
"202 749 OFFCURVE",
"66 636 OFFCURVE",
"66 370 CURVE SMOOTH",
"66 73 OFFCURVE",
"209 -49 OFFCURVE",
"694 -90 CURVE"
);
},
{
closed = 1;
nodes = (
"220 25 OFFCURVE",
"102 121 OFFCURVE",
"102 372 CURVE SMOOTH",
"102 619 OFFCURVE",
"220 715 OFFCURVE",
"390 715 CURVE SMOOTH",
"560 715 OFFCURVE",
"678 619 OFFCURVE",
"678 368 CURVE SMOOTH",
"678 121 OFFCURVE",
"560 25 OFFCURVE",
"390 25 CURVE SMOOTH"
);
}
);
width = 780;
},
{
background = {
paths = (
{
closed = 1;
nodes = (
"738 -10 OFFCURVE",
"902 137 OFFCURVE",
"902 370 CURVE SMOOTH",
"902 603 OFFCURVE",
"739 750 OFFCURVE",
"471 750 CURVE SMOOTH",
"203 750 OFFCURVE",
"40 605 OFFCURVE",
"40 370 CURVE SMOOTH",
"40 135 OFFCURVE",
"204 -10 OFFCURVE",
"471 -10 CURVE SMOOTH"
);
},
{
closed = 1;
nodes = (
"346 174 OFFCURVE",
"280 240 OFFCURVE",
"280 374 CURVE SMOOTH",
"280 500 OFFCURVE",
"349 566 OFFCURVE",
"471 566 CURVE SMOOTH",
"593 566 OFFCURVE",
"662 497 OFFCURVE",
"662 366 CURVE SMOOTH",
"662 243 OFFCURVE",
"596 174 OFFCURVE",
"471 174 CURVE SMOOTH"
);
},
{
closed = 1;
nodes = (
"893 -22 LINE",
"743 -6 OFFCURVE",
"616 21 OFFCURVE",
"495 62 CURVE",
"391 10 LINE",
"742 -33 OFFCURVE",
"902 137 OFFCURVE",
"902 370 CURVE SMOOTH",
"902 603 OFFCURVE",
"739 750 OFFCURVE",
"471 750 CURVE SMOOTH",
"203 750 OFFCURVE",
"40 605 OFFCURVE",
"40 370 CURVE SMOOTH",
"40 122 OFFCURVE",
"228 -107 OFFCURVE",
"858 -195 CURVE"
);
},
{
closed = 1;
nodes = (
"346 174 OFFCURVE",
"280 240 OFFCURVE",
"280 374 CURVE SMOOTH",
"280 500 OFFCURVE",
"349 566 OFFCURVE",
"471 566 CURVE SMOOTH",
"593 566 OFFCURVE",
"662 497 OFFCURVE",
"662 366 CURVE SMOOTH",
"662 243 OFFCURVE",
"596 174 OFFCURVE",
"471 174 CURVE SMOOTH"
);
}
);
};
color = 4;
layerId = "1E90A949-97C4-49F5-AA9A-AF35B6FD63CF";
paths = (
{
closed = 1;
nodes = (
"898 -22 LINE",
"743 -3 OFFCURVE",
"603 25 OFFCURVE",
"472 70 CURVE",
"391 14 LINE",
"744 -30 OFFCURVE",
"902 137 OFFCURVE",
"902 370 CURVE SMOOTH",
"902 603 OFFCURVE",
"739 750 OFFCURVE",
"471 750 CURVE SMOOTH",
"203 750 OFFCURVE",
"40 605 OFFCURVE",
"40 360 CURVE SMOOTH",
"40 112 OFFCURVE",
"208 -102 OFFCURVE",
"863 -197 CURVE"
);
},
{
closed = 1;
nodes = (
"344 174 OFFCURVE",
"280 238 OFFCURVE",
"280 374 CURVE SMOOTH",
"280 500 OFFCURVE",
"349 566 OFFCURVE",
"471 566 CURVE SMOOTH",
"593 566 OFFCURVE",
"662 497 OFFCURVE",
"662 366 CURVE SMOOTH",
"662 243 OFFCURVE",
"596 174 OFFCURVE",
"471 174 CURVE SMOOTH"
);
}
);
width = 942;
}
);
leftKerningGroup = KERN_O_2ND;
leftMetricsKey = O;
widthMetricsKey = O;
rightKerningGroup = KERN_O_1ST;
unicode = 0051;
userData = {
com.typemytype.robofont.layerData = {
};
};
},
{
color = 3;
glyphname = R;
lastChange = "2016-12-04 22:30:38 +0000";
layers = (
{
anchors = (
{
name = bottom;
position = "{298, 0}";
},
{
name = top;
position = "{263, 760}";
}
);
background = {
guideLines = (
{
position = "{226, 315}";
}
);
paths = (
{
closed = 1;
nodes = (
"2166 0 LINE",
"2166 331 LINE",
"2190 330 OFFCURVE",
"2214 329 OFFCURVE",
"2235 329 CURVE SMOOTH",
"2430 329 OFFCURVE",
"2517 407 OFFCURVE",
"2517 540 CURVE SMOOTH",
"2517 682 OFFCURVE",
"2431 747 OFFCURVE",
"2268 747 CURVE SMOOTH",
"2214 747 OFFCURVE",
"2175 742 OFFCURVE",
"2132 735 CURVE",
"2132 0 LINE"
);
},
{
closed = 1;
nodes = (
"2575 0 LINE",
"2360 356 LINE",
"2321 356 LINE",
"2536 0 LINE"
);
},
{
closed = 1;
nodes = (
"2216 362 OFFCURVE",
"2192 363 OFFCURVE",
"2166 365 CURVE",
"2166 705 LINE",
"2204 712 OFFCURVE",
"2237 714 OFFCURVE",
"2267 714 CURVE SMOOTH",
"2416 714 OFFCURVE",
"2481 659 OFFCURVE",
"2481 538 CURVE SMOOTH",
"2481 422 OFFCURVE",
"2412 362 OFFCURVE",
"2237 362 CURVE SMOOTH"
);
},
{
closed = 1;
nodes = (
"1666 0 LINE",
"1666 364 LINE",
"1690 364 OFFCURVE",
"1764 364 OFFCURVE",
"1795 364 CURVE SMOOTH",
"1946 364 OFFCURVE",
"2033 424 OFFCURVE",
"2033 555 CURVE SMOOTH",
"2033 687 OFFCURVE",
"1960 747 OFFCURVE",
"1788 747 CURVE SMOOTH",
"1736 747 OFFCURVE",
"1685 742 OFFCURVE",
"1632 732 CURVE",
"1632 0 LINE"
);
},
{
closed = 1;
nodes = (
"2075 0 LINE",
"1848 376 LINE",
"1809 376 LINE",
"2036 0 LINE"
);
},
{
closed = 1;
nodes = (
"1772 397 OFFCURVE",
"1692 397 OFFCURVE",
"1666 397 CURVE",
"1666 703 LINE",
"1706 711 OFFCURVE",
"1744 714 OFFCURVE",
"1786 714 CURVE SMOOTH",
"1940 714 OFFCURVE",
"1997 669 OFFCURVE",
"1997 555 CURVE SMOOTH",
"1997 456 OFFCURVE",
"1950 397 OFFCURVE",
"1793 397 CURVE SMOOTH"
);
},
{
closed = 1;
nodes = (
"1166 0 LINE",
"1166 345 LINE",
"1190 345 OFFCURVE",
"1254 345 OFFCURVE",
"1295 345 CURVE SMOOTH",
"1467 345 OFFCURVE",
"1554 416 OFFCURVE",
"1554 549 CURVE SMOOTH",
"1554 679 OFFCURVE",
"1474 747 OFFCURVE",
"1288 747 CURVE SMOOTH",
"1236 747 OFFCURVE",
"1185 742 OFFCURVE",
"1132 732 CURVE",
"1132 0 LINE"
);
},
{
closed = 1;
nodes = (
"1575 0 LINE",
"1348 357 LINE",
"1309 357 LINE",
"1536 0 LINE"
);
},
{
closed = 1;
nodes = (
"1262 378 OFFCURVE",
"1192 378 OFFCURVE",
"1166 378 CURVE",
"1166 703 LINE",
"1206 711 OFFCURVE",
"1244 714 OFFCURVE",
"1286 714 CURVE SMOOTH",
"1452 714 OFFCURVE",
"1518 662 OFFCURVE",
"1518 547 CURVE SMOOTH",
"1518 436 OFFCURVE",
"1455 378 OFFCURVE",
"1303 378 CURVE SMOOTH"
);
},
{
closed = 1;
nodes = (
"616 0 LINE",
"616 345 LINE",
"640 345 OFFCURVE",
"704 345 OFFCURVE",
"745 345 CURVE SMOOTH",
"917 345 OFFCURVE",
"1004 416 OFFCURVE",
"1004 549 CURVE SMOOTH",
"1004 679 OFFCURVE",
"924 747 OFFCURVE",
"738 747 CURVE SMOOTH",
"686 747 OFFCURVE",
"635 742 OFFCURVE",
"582 732 CURVE",
"582 0 LINE"
);
},
{
closed = 1;
nodes = (
"1025 0 LINE",
"798 357 LINE",
"759 357 LINE",
"986 0 LINE"
);
},
{
closed = 1;
nodes = (
"712 378 OFFCURVE",
"642 378 OFFCURVE",
"616 378 CURVE",
"616 703 LINE",
"656 711 OFFCURVE",
"694 714 OFFCURVE",
"736 714 CURVE SMOOTH",
"902 714 OFFCURVE",
"968 662 OFFCURVE",
"968 547 CURVE SMOOTH",
"968 436 OFFCURVE",
"905 378 OFFCURVE",
"753 378 CURVE SMOOTH"
);
},
{
closed = 1;
nodes = (
"116 0 LINE",
"116 329 LINE",
"140 327 OFFCURVE",
"164 326 OFFCURVE",
"203 326 CURVE SMOOTH",
"387 326 OFFCURVE",
"482 398 OFFCURVE",
"480 540 CURVE SMOOTH",
"480 677 OFFCURVE",
"400 747 OFFCURVE",
"234 747 CURVE SMOOTH",
"174 747 OFFCURVE",
"127 741 OFFCURVE",
"82 732 CURVE",
"82 0 LINE"
);
},
{
closed = 1;
nodes = (
"540 0 LINE",
"300 354 LINE",
"259 354 LINE",
"499 0 LINE"
);
},
{
closed = 1;
nodes = (
"171 358 OFFCURVE",
"150 359 OFFCURVE",
"116 361 CURVE",
"116 703 LINE",
"154 711 OFFCURVE",
"187 714 OFFCURVE",
"231 714 CURVE SMOOTH",
"385 714 OFFCURVE",
"446 657 OFFCURVE",
"446 539 CURVE SMOOTH",
"446 416 OFFCURVE",
"373 358 OFFCURVE",
"200 358 CURVE SMOOTH"
);
}
);
};
color = 4;
layerId = "ECFF4977-BDCC-4836-B4AC-1801CF0EB460";
paths = (
{
closed = 1;
nodes = (
"116 0 LINE",
"116 329 LINE",
"140 327 OFFCURVE",
"164 326 OFFCURVE",
"203 326 CURVE SMOOTH",
"387 326 OFFCURVE",
"482 398 OFFCURVE",
"480 540 CURVE SMOOTH",
"480 677 OFFCURVE",
"400 747 OFFCURVE",
"234 747 CURVE SMOOTH",
"174 747 OFFCURVE",
"127 741 OFFCURVE",
"82 734 CURVE",
"82 0 LINE"
);
},
{
closed = 1;
nodes = (
"540 0 LINE",
"289 349 LINE",
"250 349 LINE",
"500 0 LINE"
);
},
{
closed = 1;
nodes = (
"171 358 OFFCURVE",
"150 359 OFFCURVE",
"116 361 CURVE",
"116 705 LINE",
"154 711 OFFCURVE",
"187 714 OFFCURVE",
"231 714 CURVE SMOOTH",
"385 714 OFFCURVE",
"446 657 OFFCURVE",
"446 539 CURVE SMOOTH",
"446 416 OFFCURVE",
"373 358 OFFCURVE",
"200 358 CURVE SMOOTH"
);
}
);
width = 561;
},
{
anchors = (
{
name = bottom;
position = "{340, 0}";
},
{
name = top;
position = "{310, 760}";
}
);
background = {
paths = (
{
closed = 1;
nodes = (
"236 0 LINE",
"236 263 LINE",
"256 263 OFFCURVE",
"268 261 OFFCURVE",
"291 261 CURVE SMOOTH",
"466 261 OFFCURVE",
"583 345 OFFCURVE",
"583 505 CURVE SMOOTH",
"583 675 OFFCURVE",
"475 750 OFFCURVE",
"267 750 CURVE SMOOTH",
"184 750 OFFCURVE",
"111 740 OFFCURVE",
"43 725 CURVE",
"43 0 LINE"
);
},
{
closed = 1;
nodes = (
"658 0 LINE",
"430 340 LINE",
"225 340 LINE",
"449 0 LINE"
);
},
{
closed = 1;
nodes = (
"268 417 OFFCURVE",
"254 419 OFFCURVE",
"236 420 CURVE",
"236 590 LINE",
"252 593 OFFCURVE",
"269 596 OFFCURVE",
"295 596 CURVE SMOOTH",
"362 596 OFFCURVE",
"398 567 OFFCURVE",
"398 505 CURVE SMOOTH",
"398 440 OFFCURVE",
"362 417 OFFCURVE",
"291 417 CURVE SMOOTH"
);
}
);
};
color = 4;
layerId = "C8FFBC04-9D7C-494A-A42D-BACB8E26599D";
paths = (
{
closed = 1;
nodes = (
"236 0 LINE",
"236 252 LINE",
"254 252 OFFCURVE",
"268 251 OFFCURVE",
"291 251 CURVE SMOOTH",
"464 251 OFFCURVE",
"583 337 OFFCURVE",
"583 500 CURVE SMOOTH",
"583 668 OFFCURVE",
"478 750 OFFCURVE",
"267 750 CURVE SMOOTH",
"184 750 OFFCURVE",
"111 740 OFFCURVE",
"43 725 CURVE",
"43 0 LINE"
);
},
{
closed = 1;
nodes = (
"636 0 LINE",
"431 336 LINE",
"229 336 LINE",
"428 0 LINE"
);
},
{
closed = 1;
nodes = (
"268 404 OFFCURVE",
"254 405 OFFCURVE",
"236 407 CURVE",
"236 594 LINE",
"252 597 OFFCURVE",
"269 599 OFFCURVE",
"295 599 CURVE SMOOTH",
"359 599 OFFCURVE",
"398 568 OFFCURVE",
"398 500 CURVE SMOOTH",
"398 429 OFFCURVE",
"359 404 OFFCURVE",
"291 404 CURVE SMOOTH"
);
}
);
width = 617;
},
{
anchors = (
{
name = bottom;
position = "{359, 0}";
},
{
name = top;
position = "{336, 760}";
}
);
background = {
anchors = (
{
name = bottom;
position = "{341, 0}";
},
{
name = top;
position = "{336, 760}";
}
);
paths = (
{
closed = 1;
nodes = (
"139 0 LINE",
"139 332 LINE",
"189 328 OFFCURVE",
"228 325 OFFCURVE",
"285 325 CURVE SMOOTH",
"502 325 OFFCURVE",
"604 396 OFFCURVE",
"604 538 CURVE SMOOTH",
"604 687 OFFCURVE",
"511 747 OFFCURVE",
"308 747 CURVE SMOOTH",
"220 747 OFFCURVE",
"161 738 OFFCURVE",
"105 727 CURVE",
"105 0 LINE"
);
},
{
closed = 1;
nodes = (
"654 0 LINE",
"355 354 LINE",
"311 354 LINE",
"610 0 LINE"
);
},
{
closed = 1;
nodes = (
"221 358 OFFCURVE",
"193 360 OFFCURVE",
"139 365 CURVE",
"139 699 LINE",
"189 708 OFFCURVE",
"232 714 OFFCURVE",
"307 714 CURVE SMOOTH",
"492 714 OFFCURVE",
"570 670 OFFCURVE",
"570 536 CURVE SMOOTH",
"570 418 OFFCURVE",
"489 358 OFFCURVE",
"286 358 CURVE SMOOTH"
);
}
);
};
color = 4;
layerId = "E28BEEB5-BD92-4E7A-B4EA-FC5E5BBBF580";
paths = (
{
closed = 1;
nodes = (
"139 0 LINE",
"139 332 LINE",
"189 328 OFFCURVE",
"228 325 OFFCURVE",
"285 325 CURVE SMOOTH",
"502 325 OFFCURVE",
"604 396 OFFCURVE",
"604 538 CURVE SMOOTH",
"604 687 OFFCURVE",
"511 747 OFFCURVE",
"308 747 CURVE SMOOTH",
"220 747 OFFCURVE",
"161 738 OFFCURVE",
"105 727 CURVE",
"105 0 LINE"
);
},
{
closed = 1;
nodes = (
"654 0 LINE",
"354 354 LINE",
"312 354 LINE",
"611 0 LINE"
);
},
{
closed = 1;
nodes = (
"221 358 OFFCURVE",
"193 360 OFFCURVE",
"139 365 CURVE",
"139 699 LINE",
"189 708 OFFCURVE",
"232 714 OFFCURVE",
"307 714 CURVE SMOOTH",
"492 714 OFFCURVE",
"570 670 OFFCURVE",
"570 536 CURVE SMOOTH",
"570 418 OFFCURVE",
"489 358 OFFCURVE",
"286 358 CURVE SMOOTH"
);
}
);
width = 720;
},
{
anchors = (
{
name = bottom;
position = "{409, 0}";
},
{
name = top;
position = "{398, 760}";
}
);
background = {
paths = (
{
closed = 1;
nodes = (
"298 0 LINE",
"298 261 LINE",
"322 261 OFFCURVE",
"346 260 OFFCURVE",
"367 260 CURVE SMOOTH",
"582 260 OFFCURVE",
"716 340 OFFCURVE",
"716 504 CURVE SMOOTH",
"716 675 OFFCURVE",
"590 750 OFFCURVE",
"349 750 CURVE SMOOTH",
"262 750 OFFCURVE",
"144 735 OFFCURVE",
"65 716 CURVE",
"65 0 LINE"
);
},
{
closed = 1;
nodes = (
"793 0 LINE",
"539 340 LINE",
"282 340 LINE",
"532 0 LINE"
);
},
{
closed = 1;
nodes = (
"353 420 OFFCURVE",
"326 422 OFFCURVE",
"298 424 CURVE",
"298 581 LINE",
"322 584 OFFCURVE",
"349 588 OFFCURVE",
"371 588 CURVE SMOOTH",
"455 588 OFFCURVE",
"496 562 OFFCURVE",
"496 504 CURVE SMOOTH",
"496 442 OFFCURVE",
"455 420 OFFCURVE",
"377 420 CURVE SMOOTH"
);
}
);
};
color = 4;
layerId = "1E90A949-97C4-49F5-AA9A-AF35B6FD63CF";
paths = (
{
closed = 1;
nodes = (
"298 0 LINE",
"298 248 LINE",
"322 247 OFFCURVE",
"346 246 OFFCURVE",
"367 246 CURVE SMOOTH",
"579 246 OFFCURVE",
"716 332 OFFCURVE",
"716 499 CURVE SMOOTH",
"716 673 OFFCURVE",
"587 750 OFFCURVE",
"349 750 CURVE SMOOTH",
"262 750 OFFCURVE",
"144 735 OFFCURVE",
"65 716 CURVE",
"65 0 LINE"
);
},
{
closed = 1;
nodes = (
"791 0 LINE",
"541 340 LINE",
"284 340 LINE",
"530 0 LINE"
);
},
{
closed = 1;
nodes = (
"353 410 OFFCURVE",
"323 412 OFFCURVE",
"298 415 CURVE",
"298 581 LINE",
"320 585 OFFCURVE",
"349 588 OFFCURVE",
"371 588 CURVE SMOOTH",
"455 588 OFFCURVE",
"496 560 OFFCURVE",
"496 499 CURVE SMOOTH",
"496 434 OFFCURVE",
"455 410 OFFCURVE",
"377 410 CURVE SMOOTH"
);
}
);
width = 793;
}
);
leftKerningGroup = KERN_I_2ND;
leftMetricsKey = H;
rightKerningGroup = KERN_R_1ST;
unicode = 0052;
userData = {
com.typemytype.robofont.layerData = {
};
};
},
{
color = 3;
glyphname = S;
lastChange = "2016-12-04 22:31:25 +0000";
layers = (
{
anchors = (
{
name = bottom;
position = "{220, 0}";
},
{
name = top;
position = "{220, 760}";
}
);
background = {
guideLines = (
{
position = "{198, 749}";
}
);
paths = (
{
closed = 1;
nodes = (
"321 -9 OFFCURVE",
"399 61 OFFCURVE",
"399 189 CURVE SMOOTH",
"399 292 OFFCURVE",
"344 353 OFFCURVE",
"232 389 CURVE SMOOTH",
"107 429 OFFCURVE",
"70 469 OFFCURVE",
"70 562 CURVE SMOOTH",
"70 662 OFFCURVE",
"132 716 OFFCURVE",
"237 716 CURVE SMOOTH",
"286 716 OFFCURVE",
"325 710 OFFCURVE",
"372 695 CURVE",
"372 729 LINE",
"327 743 OFFCURVE",
"282 749 OFFCURVE",
"240 749 CURVE SMOOTH",
"115 749 OFFCURVE",
"34 682 OFFCURVE",
"34 560 CURVE SMOOTH",
"34 454 OFFCURVE",
"81 401 OFFCURVE",
"210 359 CURVE SMOOTH",
"324 323 OFFCURVE",
"363 280 OFFCURVE",
"363 186 CURVE SMOOTH",
"363 81 OFFCURVE",
"301 24 OFFCURVE",
"185 24 CURVE SMOOTH",
"137 24 OFFCURVE",
"95 32 OFFCURVE",
"41 50 CURVE",
"41 16 LINE",
"87 -1 OFFCURVE",
"135 -9 OFFCURVE",
"182 -9 CURVE SMOOTH"
);
}
);
};
color = 4;
layerId = "ECFF4977-BDCC-4836-B4AC-1801CF0EB460";
paths = (
{
closed = 1;
nodes = (
"321 -9 OFFCURVE",
"399 61 OFFCURVE",
"399 188 CURVE SMOOTH",
"399 291 OFFCURVE",
"348 352 OFFCURVE",
"227 391 CURVE SMOOTH",
"112 428 OFFCURVE",
"70 466 OFFCURVE",
"70 562 CURVE SMOOTH",
"70 661 OFFCURVE",
"128 716 OFFCURVE",
"247 716 CURVE SMOOTH",
"289 716 OFFCURVE",
"329 711 OFFCURVE",
"372 697 CURVE",
"372 731 LINE",
"338 743 OFFCURVE",
"288 749 OFFCURVE",
"249 749 CURVE SMOOTH",
"109 749 OFFCURVE",
"34 678 OFFCURVE",
"34 560 CURVE SMOOTH",
"34 453 OFFCURVE",
"88 398 OFFCURVE",
"210 359 CURVE SMOOTH",
"324 323 OFFCURVE",
"363 278 OFFCURVE",
"363 186 CURVE SMOOTH",
"363 78 OFFCURVE",
"301 24 OFFCURVE",
"185 24 CURVE SMOOTH",
"140 24 OFFCURVE",
"93 32 OFFCURVE",
"41 50 CURVE",
"41 16 LINE",
"88 -1 OFFCURVE",
"140 -9 OFFCURVE",
"182 -9 CURVE SMOOTH"
);
}
);
width = 433;
},
{
anchors = (
{
name = bottom;
position = "{267, 0}";
},
{
name = top;
position = "{267, 760}";
}
);
background = {
paths = (
{
closed = 1;
nodes = (
"407 -10 OFFCURVE",
"514 83 OFFCURVE",
"514 228 CURVE SMOOTH",
"514 348 OFFCURVE",
"444 414 OFFCURVE",
"325 449 CURVE SMOOTH",
"223 478 OFFCURVE",
"204 494 OFFCURVE",
"204 527 CURVE SMOOTH",
"204 560 OFFCURVE",
"230 588 OFFCURVE",
"340 588 CURVE SMOOTH",
"381 588 OFFCURVE",
"433 582 OFFCURVE",
"473 572 CURVE",
"473 733 LINE",
"431 743 OFFCURVE",
"376 750 OFFCURVE",
"321 750 CURVE SMOOTH",
"108 750 OFFCURVE",
"9 659 OFFCURVE",
"9 512 CURVE SMOOTH",
"9 396 OFFCURVE",
"81 323 OFFCURVE",
"187 294 CURVE SMOOTH",
"297 265 OFFCURVE",
"319 245 OFFCURVE",
"319 210 CURVE SMOOTH",
"319 175 OFFCURVE",
"292 152 OFFCURVE",
"211 152 CURVE SMOOTH",
"153 152 OFFCURVE",
"87 164 OFFCURVE",
"32 180 CURVE",
"32 19 LINE",
"86 1 OFFCURVE",
"162 -10 OFFCURVE",
"217 -10 CURVE SMOOTH"
);
}
);
};
color = 4;
layerId = "C8FFBC04-9D7C-494A-A42D-BACB8E26599D";
paths = (
{
closed = 1;
nodes = (
"407 -10 OFFCURVE",
"514 83 OFFCURVE",
"514 228 CURVE SMOOTH",
"514 349 OFFCURVE",
"444 416 OFFCURVE",
"325 451 CURVE SMOOTH",
"223 481 OFFCURVE",
"206 496 OFFCURVE",
"206 527 CURVE SMOOTH",
"206 558 OFFCURVE",
"232 586 OFFCURVE",
"340 586 CURVE SMOOTH",
"381 586 OFFCURVE",
"433 580 OFFCURVE",
"473 570 CURVE",
"473 733 LINE",
"431 743 OFFCURVE",
"376 750 OFFCURVE",
"321 750 CURVE SMOOTH",
"108 750 OFFCURVE",
"9 659 OFFCURVE",
"9 512 CURVE SMOOTH",
"9 395 OFFCURVE",
"81 321 OFFCURVE",
"187 292 CURVE SMOOTH",
"297 262 OFFCURVE",
"317 243 OFFCURVE",
"317 210 CURVE SMOOTH",
"317 177 OFFCURVE",
"290 154 OFFCURVE",
"211 154 CURVE SMOOTH",
"153 154 OFFCURVE",
"87 166 OFFCURVE",
"32 182 CURVE",
"32 19 LINE",
"86 0 OFFCURVE",
"162 -10 OFFCURVE",
"217 -10 CURVE SMOOTH"
);
}
);
width = 523;
},
{
anchors = (
{
name = bottom;
position = "{289, 0}";
},
{
name = top;
position = "{289, 760}";
}
);
background = {
guideLines = (
{
position = "{217, 749}";
}
);
paths = (
{
closed = 1;
nodes = (
"424 -9 OFFCURVE",
"523 63 OFFCURVE",
"523 194 CURVE SMOOTH",
"523 294 OFFCURVE",
"463 354 OFFCURVE",
"292 386 CURVE SMOOTH",
"136 416 OFFCURVE",
"84 457 OFFCURVE",
"84 552 CURVE SMOOTH",
"84 658 OFFCURVE",
"160 716 OFFCURVE",
"307 716 CURVE SMOOTH",
"367 716 OFFCURVE",
"428 707 OFFCURVE",
"488 688 CURVE",
"488 722 LINE",
"437 739 OFFCURVE",
"370 749 OFFCURVE",
"307 749 CURVE SMOOTH",
"138 749 OFFCURVE",
"48 676 OFFCURVE",
"48 550 CURVE SMOOTH",
"48 445 OFFCURVE",
"111 386 OFFCURVE",
"285 352 CURVE SMOOTH",
"436 322 OFFCURVE",
"487 283 OFFCURVE",
"487 192 CURVE SMOOTH",
"487 82 OFFCURVE",
"408 24 OFFCURVE",
"254 24 CURVE SMOOTH",
"194 24 OFFCURVE",
"127 33 OFFCURVE",
"55 57 CURVE",
"55 23 LINE",
"119 1 OFFCURVE",
"190 -9 OFFCURVE",
"251 -9 CURVE SMOOTH"
);
}
);
};
color = 4;
layerId = "E28BEEB5-BD92-4E7A-B4EA-FC5E5BBBF580";
paths = (
{
closed = 1;
nodes = (
"426 -9 OFFCURVE",
"523 62 OFFCURVE",
"523 192 CURVE SMOOTH",
"523 294 OFFCURVE",
"465 353 OFFCURVE",
"292 386 CURVE SMOOTH",
"135 416 OFFCURVE",
"84 457 OFFCURVE",
"84 554 CURVE SMOOTH",
"84 658 OFFCURVE",
"159 716 OFFCURVE",
"307 716 CURVE SMOOTH",
"369 716 OFFCURVE",
"430 707 OFFCURVE",
"492 688 CURVE",
"492 722 LINE",
"435 740 OFFCURVE",
"372 749 OFFCURVE",
"309 749 CURVE SMOOTH",
"135 749 OFFCURVE",
"48 672 OFFCURVE",
"48 552 CURVE SMOOTH",
"48 441 OFFCURVE",
"111 386 OFFCURVE",
"285 352 CURVE SMOOTH",
"436 322 OFFCURVE",
"487 283 OFFCURVE",
"487 191 CURVE SMOOTH",
"487 82 OFFCURVE",
"410 24 OFFCURVE",
"254 24 CURVE SMOOTH",
"196 24 OFFCURVE",
"129 33 OFFCURVE",
"57 57 CURVE",
"57 23 LINE",
"121 1 OFFCURVE",
"192 -9 OFFCURVE",
"253 -9 CURVE SMOOTH"
);
}
);
width = 571;
},
{
anchors = (
{
name = bottom;
position = "{368, 0}";
},
{
name = top;
position = "{368, 760}";
}
);
background = {
paths = (
{
closed = 1;
nodes = (
"540 -10 OFFCURVE",
"673 83 OFFCURVE",
"673 233 CURVE SMOOTH",
"673 357 OFFCURVE",
"605 423 OFFCURVE",
"438 453 CURVE SMOOTH",
"292 479 OFFCURVE",
"279 491 OFFCURVE",
"279 518 CURVE SMOOTH",
"279 545 OFFCURVE",
"306 567 OFFCURVE",
"445 567 CURVE SMOOTH",
"503 567 OFFCURVE",
"582 559 OFFCURVE",
"632 547 CURVE",
"632 733 LINE",
"579 743 OFFCURVE",
"507 750 OFFCURVE",
"433 750 CURVE SMOOTH",
"169 750 OFFCURVE",
"46 662 OFFCURVE",
"46 508 CURVE SMOOTH",
"46 390 OFFCURVE",
"112 315 OFFCURVE",
"267 290 CURVE SMOOTH",
"419 265 OFFCURVE",
"440 249 OFFCURVE",
"440 218 CURVE SMOOTH",
"440 189 OFFCURVE",
"419 173 OFFCURVE",
"316 173 CURVE SMOOTH",
"253 173 OFFCURVE",
"142 186 OFFCURVE",
"74 205 CURVE",
"74 19 LINE",
"143 3 OFFCURVE",
"223 -10 OFFCURVE",
"318 -10 CURVE SMOOTH"
);
}
);
};
color = 4;
layerId = "1E90A949-97C4-49F5-AA9A-AF35B6FD63CF";
paths = (
{
closed = 1;
nodes = (
"540 -10 OFFCURVE",
"673 83 OFFCURVE",
"673 233 CURVE SMOOTH",
"673 358 OFFCURVE",
"597 424 OFFCURVE",
"418 458 CURVE SMOOTH",
"296 481 OFFCURVE",
"281 493 OFFCURVE",
"281 520 CURVE SMOOTH",
"281 547 OFFCURVE",
"310 569 OFFCURVE",
"438 569 CURVE SMOOTH",
"501 569 OFFCURVE",
"580 559 OFFCURVE",
"630 545 CURVE",
"630 729 LINE",
"577 741 OFFCURVE",
"505 750 OFFCURVE",
"426 750 CURVE SMOOTH",
"171 750 OFFCURVE",
"48 664 OFFCURVE",
"48 510 CURVE SMOOTH",
"48 391 OFFCURVE",
"123 312 OFFCURVE",
"287 286 CURVE SMOOTH",
"419 265 OFFCURVE",
"440 249 OFFCURVE",
"440 216 CURVE SMOOTH",
"440 187 OFFCURVE",
"419 171 OFFCURVE",
"316 171 CURVE SMOOTH",
"253 171 OFFCURVE",
"139 184 OFFCURVE",
"69 206 CURVE",
"69 22 LINE",
"140 3 OFFCURVE",
"223 -10 OFFCURVE",
"318 -10 CURVE SMOOTH"
);
}
);
width = 700;
}
);
leftKerningGroup = KERN_S;
rightKerningGroup = KERN_S;
unicode = 0053;
userData = {
com.typemytype.robofont.layerData = {
};
};
},
{
color = 3;
glyphname = Germandbls;
lastChange = "2016-12-04 22:31:33 +0000";
layers = (
{
background = {
paths = (
{
closed = 1;
nodes = (
"148 749 OFFCURVE",
"82 667 OFFCURVE",
"82 494 CURVE SMOOTH",
"82 0 LINE",
"116 0 LINE",
"116 499 LINE SMOOTH",
"116 645 OFFCURVE",
"169 716 OFFCURVE",
"304 716 CURVE SMOOTH",
"439 716 OFFCURVE",
"492 645 OFFCURVE",
"492 499 CURVE SMOOTH",
"492 0 LINE",
"526 0 LINE",
"526 494 LINE SMOOTH",
"526 667 OFFCURVE",
"460 749 OFFCURVE",
"304 749 CURVE SMOOTH"
);
},
{
closed = 1;
nodes = (
"604 -9 OFFCURVE",
"682 61 OFFCURVE",
"682 189 CURVE SMOOTH",
"682 292 OFFCURVE",
"627 353 OFFCURVE",
"515 389 CURVE SMOOTH",
"390 429 OFFCURVE",
"353 469 OFFCURVE",
"353 562 CURVE SMOOTH",
"353 662 OFFCURVE",
"415 716 OFFCURVE",
"520 716 CURVE SMOOTH",
"569 716 OFFCURVE",
"608 710 OFFCURVE",
"655 695 CURVE",
"655 729 LINE",
"610 743 OFFCURVE",
"565 749 OFFCURVE",
"523 749 CURVE SMOOTH",
"398 749 OFFCURVE",
"317 682 OFFCURVE",
"317 560 CURVE SMOOTH",
"317 454 OFFCURVE",
"364 401 OFFCURVE",
"493 359 CURVE SMOOTH",
"607 322 OFFCURVE",
"646 280 OFFCURVE",
"646 186 CURVE SMOOTH",
"646 81 OFFCURVE",
"584 24 OFFCURVE",
"468 24 CURVE SMOOTH",
"420 24 OFFCURVE",
"378 32 OFFCURVE",
"324 50 CURVE",
"324 16 LINE",
"370 -1 OFFCURVE",
"418 -9 OFFCURVE",
"465 -9 CURVE SMOOTH"
);
}
);
};
color = 4;
layerId = "ECFF4977-BDCC-4836-B4AC-1801CF0EB460";
paths = (
{
closed = 1;
nodes = (
"587 -9 OFFCURVE",
"665 61 OFFCURVE",
"665 188 CURVE SMOOTH",
"665 291 OFFCURVE",
"614 352 OFFCURVE",
"493 391 CURVE SMOOTH",
"378 428 OFFCURVE",
"336 466 OFFCURVE",
"336 562 CURVE SMOOTH",
"336 661 OFFCURVE",
"394 716 OFFCURVE",
"513 716 CURVE SMOOTH",
"555 716 OFFCURVE",
"595 711 OFFCURVE",
"638 697 CURVE",
"638 731 LINE",
"604 743 OFFCURVE",
"554 749 OFFCURVE",
"515 749 CURVE SMOOTH",
"375 749 OFFCURVE",
"300 678 OFFCURVE",
"300 560 CURVE SMOOTH",
"300 453 OFFCURVE",
"354 398 OFFCURVE",
"476 359 CURVE SMOOTH",
"590 323 OFFCURVE",
"629 278 OFFCURVE",
"629 186 CURVE SMOOTH",
"629 78 OFFCURVE",
"567 24 OFFCURVE",
"451 24 CURVE SMOOTH",
"406 24 OFFCURVE",
"359 32 OFFCURVE",
"307 50 CURVE",
"307 16 LINE",
"354 -1 OFFCURVE",
"406 -9 OFFCURVE",
"448 -9 CURVE SMOOTH"
);
},
{
closed = 1;
nodes = (
"116 0 LINE",
"116 499 LINE SMOOTH",
"116 645 OFFCURVE",
"169 716 OFFCURVE",
"304 716 CURVE SMOOTH",
"335 716 OFFCURVE",
"362 712 OFFCURVE",
"386 704 CURVE",
"419 726 LINE",
"388 741 OFFCURVE",
"349 749 OFFCURVE",
"304 749 CURVE SMOOTH",
"148 749 OFFCURVE",
"82 667 OFFCURVE",
"82 494 CURVE SMOOTH",
"82 0 LINE"
);
}
);
width = 699;
},
{
background = {
paths = (
{
closed = 1;
nodes = (
"134 750 OFFCURVE",
"43 661 OFFCURVE",
"43 458 CURVE SMOOTH",
"43 0 LINE",
"239 0 LINE",
"239 480 LINE SMOOTH",
"239 555 OFFCURVE",
"267 586 OFFCURVE",
"314 586 CURVE SMOOTH",
"360 586 OFFCURVE",
"388 555 OFFCURVE",
"388 480 CURVE SMOOTH",
"388 0 LINE",
"580 0 LINE",
"580 438 LINE SMOOTH",
"580 661 OFFCURVE",
"492 750 OFFCURVE",
"314 750 CURVE SMOOTH"
);
},
{
closed = 1;
nodes = (
"717 -10 OFFCURVE",
"824 83 OFFCURVE",
"824 228 CURVE SMOOTH",
"824 348 OFFCURVE",
"754 414 OFFCURVE",
"635 449 CURVE SMOOTH",
"533 479 OFFCURVE",
"514 494 OFFCURVE",
"514 527 CURVE SMOOTH",
"514 560 OFFCURVE",
"540 588 OFFCURVE",
"650 588 CURVE SMOOTH",
"691 588 OFFCURVE",
"743 582 OFFCURVE",
"783 572 CURVE",
"783 733 LINE",
"741 743 OFFCURVE",
"686 750 OFFCURVE",
"631 750 CURVE SMOOTH",
"418 750 OFFCURVE",
"319 659 OFFCURVE",
"319 512 CURVE SMOOTH",
"319 396 OFFCURVE",
"391 323 OFFCURVE",
"497 294 CURVE SMOOTH",
"607 264 OFFCURVE",
"629 245 OFFCURVE",
"629 210 CURVE SMOOTH",
"629 175 OFFCURVE",
"602 152 OFFCURVE",
"521 152 CURVE SMOOTH",
"463 152 OFFCURVE",
"397 164 OFFCURVE",
"342 180 CURVE",
"342 19 LINE",
"396 1 OFFCURVE",
"472 -10 OFFCURVE",
"527 -10 CURVE SMOOTH"
);
}
);
};
color = 4;
layerId = "C8FFBC04-9D7C-494A-A42D-BACB8E26599D";
paths = (
{
closed = 1;
nodes = (
"716 -10 OFFCURVE",
"819 83 OFFCURVE",
"819 228 CURVE SMOOTH",
"819 348 OFFCURVE",
"752 410 OFFCURVE",
"637 449 CURVE SMOOTH",
"548 479 OFFCURVE",
"529 494 OFFCURVE",
"529 527 CURVE SMOOTH",
"529 560 OFFCURVE",
"554 588 OFFCURVE",
"652 588 CURVE SMOOTH",
"691 588 OFFCURVE",
"741 582 OFFCURVE",
"780 572 CURVE",
"780 733 LINE",
"739 743 OFFCURVE",
"686 750 OFFCURVE",
"634 750 CURVE SMOOTH",
"429 750 OFFCURVE",
"334 659 OFFCURVE",
"334 512 CURVE SMOOTH",
"334 396 OFFCURVE",
"403 325 OFFCURVE",
"505 294 CURVE SMOOTH",
"603 264 OFFCURVE",
"624 245 OFFCURVE",
"624 210 CURVE SMOOTH",
"624 175 OFFCURVE",
"598 152 OFFCURVE",
"528 152 CURVE SMOOTH",
"472 152 OFFCURVE",
"409 164 OFFCURVE",
"356 180 CURVE",
"356 19 LINE",
"408 1 OFFCURVE",
"481 -10 OFFCURVE",
"534 -10 CURVE SMOOTH"
);
},
{
closed = 1;
nodes = (
"239 0 LINE",
"239 503 LINE SMOOTH",
"239 562 OFFCURVE",
"267 589 OFFCURVE",
"314 589 CURVE SMOOTH",
"337 589 OFFCURVE",
"355 582 OFFCURVE",
"372 567 CURVE",
"491 707 LINE",
"451 733 OFFCURVE",
"391 750 OFFCURVE",
"314 750 CURVE SMOOTH",
"134 750 OFFCURVE",
"43 651 OFFCURVE",
"43 478 CURVE SMOOTH",
"43 0 LINE"
);
}
);
width = 828;
},
{
background = {
paths = (
{
closed = 1;
nodes = (
"769 -9 OFFCURVE",
"868 63 OFFCURVE",
"868 194 CURVE SMOOTH",
"868 294 OFFCURVE",
"808 354 OFFCURVE",
"637 386 CURVE SMOOTH",
"481 415 OFFCURVE",
"429 457 OFFCURVE",
"429 552 CURVE SMOOTH",
"429 658 OFFCURVE",
"505 716 OFFCURVE",
"652 716 CURVE SMOOTH",
"712 716 OFFCURVE",
"773 707 OFFCURVE",
"833 688 CURVE",
"833 722 LINE",
"782 739 OFFCURVE",
"715 749 OFFCURVE",
"652 749 CURVE SMOOTH",
"483 749 OFFCURVE",
"392 676 OFFCURVE",
"393 550 CURVE SMOOTH",
"394 445 OFFCURVE",
"456 387 OFFCURVE",
"630 352 CURVE SMOOTH",
"781 322 OFFCURVE",
"832 283 OFFCURVE",
"832 192 CURVE SMOOTH",
"832 82 OFFCURVE",
"753 24 OFFCURVE",
"599 24 CURVE SMOOTH",
"539 24 OFFCURVE",
"472 33 OFFCURVE",
"400 57 CURVE",
"400 23 LINE",
"464 1 OFFCURVE",
"535 -9 OFFCURVE",
"596 -9 CURVE SMOOTH"
);
},
{
closed = 1;
nodes = (
"139 0 LINE",
"139 462 LINE SMOOTH",
"139 641 OFFCURVE",
"218 716 OFFCURVE",
"388 716 CURVE SMOOTH",
"436 716 OFFCURVE",
"476 710 OFFCURVE",
"510 698 CURVE",
"548 716 LINE",
"507 739 OFFCURVE",
"454 749 OFFCURVE",
"388 749 CURVE SMOOTH",
"197 749 OFFCURVE",
"105 663 OFFCURVE",
"105 457 CURVE SMOOTH",
"105 0 LINE"
);
}
);
};
color = 4;
layerId = "E28BEEB5-BD92-4E7A-B4EA-FC5E5BBBF580";
paths = (
{
closed = 1;
nodes = (
"772 -9 OFFCURVE",
"869 62 OFFCURVE",
"869 192 CURVE SMOOTH",
"869 294 OFFCURVE",
"811 353 OFFCURVE",
"638 386 CURVE SMOOTH",
"481 416 OFFCURVE",
"430 457 OFFCURVE",
"430 554 CURVE SMOOTH",
"430 658 OFFCURVE",
"505 716 OFFCURVE",
"653 716 CURVE SMOOTH",
"715 716 OFFCURVE",
"776 707 OFFCURVE",
"838 688 CURVE",
"838 722 LINE",
"781 740 OFFCURVE",
"718 749 OFFCURVE",
"655 749 CURVE SMOOTH",
"481 749 OFFCURVE",
"394 672 OFFCURVE",
"394 552 CURVE SMOOTH",
"394 441 OFFCURVE",
"457 387 OFFCURVE",
"631 352 CURVE SMOOTH",
"782 322 OFFCURVE",
"833 283 OFFCURVE",
"833 191 CURVE SMOOTH",
"833 82 OFFCURVE",
"756 24 OFFCURVE",
"600 24 CURVE SMOOTH",
"542 24 OFFCURVE",
"475 33 OFFCURVE",
"403 57 CURVE",
"403 23 LINE",
"467 1 OFFCURVE",
"538 -9 OFFCURVE",
"599 -9 CURVE SMOOTH"
);
},
{
closed = 1;
nodes = (
"139 0 LINE",
"139 462 LINE SMOOTH",
"139 641 OFFCURVE",
"218 716 OFFCURVE",
"388 716 CURVE SMOOTH",
"436 716 OFFCURVE",
"476 710 OFFCURVE",
"510 698 CURVE",
"548 716 LINE",
"507 739 OFFCURVE",
"454 749 OFFCURVE",
"388 749 CURVE SMOOTH",
"197 749 OFFCURVE",
"105 663 OFFCURVE",
"105 457 CURVE SMOOTH",
"105 0 LINE"
);
}
);
width = 917;
},
{
background = {
paths = (
{
closed = 1;
nodes = (
"164 750 OFFCURVE",
"65 617 OFFCURVE",
"65 413 CURVE SMOOTH",
"65 0 LINE",
"303 0 LINE",
"303 432 LINE SMOOTH",
"303 515 OFFCURVE",
"340 562 OFFCURVE",
"414 562 CURVE SMOOTH",
"488 562 OFFCURVE",
"525 515 OFFCURVE",
"525 432 CURVE SMOOTH",
"525 0 LINE",
"759 0 LINE",
"759 393 LINE SMOOTH",
"759 617 OFFCURVE",
"659 750 OFFCURVE",
"414 750 CURVE SMOOTH"
);
},
{
closed = 1;
nodes = (
"885 -10 OFFCURVE",
"1018 83 OFFCURVE",
"1018 233 CURVE SMOOTH",
"1018 358 OFFCURVE",
"942 424 OFFCURVE",
"763 458 CURVE SMOOTH",
"641 481 OFFCURVE",
"626 493 OFFCURVE",
"626 520 CURVE SMOOTH",
"626 547 OFFCURVE",
"655 569 OFFCURVE",
"783 569 CURVE SMOOTH",
"846 569 OFFCURVE",
"925 559 OFFCURVE",
"975 545 CURVE",
"975 729 LINE",
"922 741 OFFCURVE",
"850 750 OFFCURVE",
"771 750 CURVE SMOOTH",
"516 750 OFFCURVE",
"393 664 OFFCURVE",
"393 510 CURVE SMOOTH",
"393 391 OFFCURVE",
"468 312 OFFCURVE",
"632 286 CURVE SMOOTH",
"764 265 OFFCURVE",
"785 249 OFFCURVE",
"785 216 CURVE SMOOTH",
"785 187 OFFCURVE",
"764 171 OFFCURVE",
"661 171 CURVE SMOOTH",
"598 171 OFFCURVE",
"484 184 OFFCURVE",
"414 206 CURVE",
"414 22 LINE",
"485 3 OFFCURVE",
"568 -10 OFFCURVE",
"663 -10 CURVE SMOOTH"
);
}
);
};
color = 4;
layerId = "1E90A949-97C4-49F5-AA9A-AF35B6FD63CF";
paths = (
{
closed = 1;
nodes = (
"914 -10 OFFCURVE",
"1041 83 OFFCURVE",
"1041 233 CURVE SMOOTH",
"1041 358 OFFCURVE",
"968 421 OFFCURVE",
"798 458 CURVE SMOOTH",
"692 481 OFFCURVE",
"678 493 OFFCURVE",
"678 520 CURVE SMOOTH",
"678 547 OFFCURVE",
"705 569 OFFCURVE",
"817 569 CURVE SMOOTH",
"877 569 OFFCURVE",
"952 559 OFFCURVE",
"1000 545 CURVE",
"1000 729 LINE",
"950 741 OFFCURVE",
"881 750 OFFCURVE",
"806 750 CURVE SMOOTH",
"563 750 OFFCURVE",
"446 664 OFFCURVE",
"446 510 CURVE SMOOTH",
"446 391 OFFCURVE",
"517 315 OFFCURVE",
"674 286 CURVE SMOOTH",
"789 265 OFFCURVE",
"809 249 OFFCURVE",
"809 216 CURVE SMOOTH",
"809 187 OFFCURVE",
"789 171 OFFCURVE",
"701 171 CURVE SMOOTH",
"641 171 OFFCURVE",
"533 184 OFFCURVE",
"466 206 CURVE",
"466 22 LINE",
"534 3 OFFCURVE",
"613 -10 OFFCURVE",
"703 -10 CURVE SMOOTH"
);
},
{
closed = 1;
nodes = (
"303 0 LINE",
"303 451 LINE SMOOTH",
"303 524 OFFCURVE",
"340 568 OFFCURVE",
"414 568 CURVE SMOOTH",
"450 568 OFFCURVE",
"478 557 OFFCURVE",
"506 540 CURVE",
"637 692 LINE",
"573 730 OFFCURVE",
"500 750 OFFCURVE",
"414 750 CURVE SMOOTH",
"174 750 OFFCURVE",
"65 623 OFFCURVE",
"65 423 CURVE SMOOTH",
"65 0 LINE"
);
}
);
width = 1068;
}
);
leftMetricsKey = H;
rightMetricsKey = S;
unicode = 1E9E;
},
{
color = 3;
glyphname = Schwa;
lastChange = "2016-12-04 21:25:49 +0000";
layers = (
{
anchors = (
{
name = bottom;
position = "{292, 0}";
},
{
name = top;
position = "{292, 760}";
}
);
background = {
paths = (
{
closed = 1;
nodes = (
"438 -9 OFFCURVE",
"534 91 OFFCURVE",
"534 370 CURVE SMOOTH",
"534 649 OFFCURVE",
"440 749 OFFCURVE",
"292 749 CURVE SMOOTH",
"144 749 OFFCURVE",
"50 649 OFFCURVE",
"50 370 CURVE SMOOTH",
"50 91 OFFCURVE",
"146 -9 OFFCURVE",
"292 -9 CURVE SMOOTH"
);
},
{
closed = 1;
nodes = (
"168 24 OFFCURVE",
"86 103 OFFCURVE",
"86 372 CURVE SMOOTH",
"86 637 OFFCURVE",
"168 716 OFFCURVE",
"292 716 CURVE SMOOTH",
"416 716 OFFCURVE",
"498 637 OFFCURVE",
"498 368 CURVE SMOOTH",
"498 103 OFFCURVE",
"416 24 OFFCURVE",
"292 24 CURVE SMOOTH"
);
}
);
};
color = 4;
layerId = "ECFF4977-BDCC-4836-B4AC-1801CF0EB460";
paths = (
{
closed = 1;
nodes = (
"438 -9 OFFCURVE",
"534 91 OFFCURVE",
"534 370 CURVE SMOOTH",
"534 651 OFFCURVE",
"430 749 OFFCURVE",
"242 749 CURVE SMOOTH",
"185 749 OFFCURVE",
"133 743 OFFCURVE",
"78 729 CURVE",
"78 695 LINE",
"132 711 OFFCURVE",
"190 716 OFFCURVE",
"239 716 CURVE SMOOTH",
"416 716 OFFCURVE",
"498 639 OFFCURVE",
"498 369 CURVE SMOOTH",
"498 103 OFFCURVE",
"416 24 OFFCURVE",
"286 24 CURVE SMOOTH",
"156 24 OFFCURVE",
"80 103 OFFCURVE",
"80 370 CURVE",
"68 357 LINE",
"512 357 LINE",
"512 390 LINE",
"44 390 LINE",
"44 370 LINE SMOOTH",
"44 93 OFFCURVE",
"134 -9 OFFCURVE",
"286 -9 CURVE SMOOTH"
);
}
);
width = 583;
},
{
anchors = (
{
name = bottom;
position = "{346, 0}";
},
{
name = top;
position = "{346, 740}";
}
);
background = {
paths = (
{
closed = 1;
nodes = (
"536 -10 OFFCURVE",
"665 102 OFFCURVE",
"665 370 CURVE SMOOTH",
"665 638 OFFCURVE",
"533 750 OFFCURVE",
"343 750 CURVE SMOOTH",
"153 750 OFFCURVE",
"21 638 OFFCURVE",
"21 370 CURVE SMOOTH",
"21 102 OFFCURVE",
"150 -10 OFFCURVE",
"343 -10 CURVE SMOOTH"
);
},
{
closed = 1;
nodes = (
"264 152 OFFCURVE",
"221 207 OFFCURVE",
"221 374 CURVE SMOOTH",
"221 533 OFFCURVE",
"264 588 OFFCURVE",
"343 588 CURVE SMOOTH",
"422 588 OFFCURVE",
"465 533 OFFCURVE",
"465 366 CURVE SMOOTH",
"465 207 OFFCURVE",
"422 152 OFFCURVE",
"343 152 CURVE SMOOTH"
);
}
);
};
color = 4;
layerId = "C8FFBC04-9D7C-494A-A42D-BACB8E26599D";
paths = (
{
closed = 1;
nodes = (
"520 -10 OFFCURVE",
"657 109 OFFCURVE",
"657 360 CURVE SMOOTH",
"657 625 OFFCURVE",
"526 750 OFFCURVE",
"265 750 CURVE SMOOTH",
"203 750 OFFCURVE",
"127 743 OFFCURVE",
"67 729 CURVE",
"67 568 LINE",
"121 582 OFFCURVE",
"188 590 OFFCURVE",
"245 590 CURVE SMOOTH",
"400 590 OFFCURVE",
"462 536 OFFCURVE",
"462 356 CURVE SMOOTH",
"462 193 OFFCURVE",
"427 148 OFFCURVE",
"344 148 CURVE SMOOTH",
"255 148 OFFCURVE",
"223 199 OFFCURVE",
"223 356 CURVE",
"145 282 LINE",
"531 282 LINE",
"531 429 LINE",
"21 429 LINE",
"21 360 LINE SMOOTH",
"21 99 OFFCURVE",
"160 -10 OFFCURVE",
"343 -10 CURVE SMOOTH"
);
}
);
width = 683;
},
{
anchors = (
{
name = bottom;
position = "{391, 0}";
},
{
name = top;
position = "{391, 760}";
}
);
background = {
anchors = (
{
name = bottom;
position = "{391, 0}";
},
{
name = top;
position = "{391, 760}";
}
);
paths = (
{
closed = 1;
nodes = (
"494 -9 OFFCURVE",
"640 88 OFFCURVE",
"640 369 CURVE SMOOTH",
"640 636 OFFCURVE",
"501 749 OFFCURVE",
"288 749 CURVE SMOOTH",
"217 749 OFFCURVE",
"161 740 OFFCURVE",
"100 722 CURVE",
"100 688 LINE",
"160 706 OFFCURVE",
"224 716 OFFCURVE",
"289 716 CURVE SMOOTH",
"485 716 OFFCURVE",
"604 619 OFFCURVE",
"604 371 CURVE SMOOTH",
"604 109 OFFCURVE",
"479 24 OFFCURVE",
"296 24 CURVE SMOOTH",
"230 24 OFFCURVE",
"174 32 OFFCURVE",
"100 58 CURVE",
"100 24 LINE",
"162 1 OFFCURVE",
"224 -9 OFFCURVE",
"297 -9 CURVE SMOOTH"
);
}
);
};
color = 4;
layerId = "E28BEEB5-BD92-4E7A-B4EA-FC5E5BBBF580";
paths = (
{
closed = 1;
nodes = (
"582 -9 OFFCURVE",
"715 98 OFFCURVE",
"715 369 CURVE SMOOTH",
"715 637 OFFCURVE",
"560 749 OFFCURVE",
"316 749 CURVE SMOOTH",
"244 749 OFFCURVE",
"173 742 OFFCURVE",
"100 722 CURVE",
"100 688 LINE",
"172 708 OFFCURVE",
"253 716 OFFCURVE",
"317 716 CURVE SMOOTH",
"542 716 OFFCURVE",
"679 619 OFFCURVE",
"679 368 CURVE SMOOTH",
"679 121 OFFCURVE",
"561 25 OFFCURVE",
"395 25 CURVE SMOOTH",
"215 25 OFFCURVE",
"97 121 OFFCURVE",
"97 368 CURVE",
"79 357 LINE",
"694 357 LINE",
"694 390 LINE",
"61 390 LINE",
"61 360 LINE SMOOTH",
"61 98 OFFCURVE",
"197 -9 OFFCURVE",
"395 -9 CURVE SMOOTH"
);
}
);
width = 781;
},
{
anchors = (
{
name = bottom;
position = "{403, 0}";
},
{
name = top;
position = "{403, 740}";
}
);
background = {
paths = (
{
closed = 1;
nodes = (
"1732 -10 OFFCURVE",
"1896 137 OFFCURVE",
"1896 370 CURVE SMOOTH",
"1896 603 OFFCURVE",
"1733 750 OFFCURVE",
"1465 750 CURVE SMOOTH",
"1197 750 OFFCURVE",
"1034 605 OFFCURVE",
"1034 370 CURVE SMOOTH",
"1034 135 OFFCURVE",
"1198 -10 OFFCURVE",
"1465 -10 CURVE SMOOTH"
);
},
{
closed = 1;
nodes = (
"1340 174 OFFCURVE",
"1274 240 OFFCURVE",
"1274 374 CURVE SMOOTH",
"1274 500 OFFCURVE",
"1343 566 OFFCURVE",
"1465 566 CURVE SMOOTH",
"1587 566 OFFCURVE",
"1656 497 OFFCURVE",
"1656 366 CURVE SMOOTH",
"1656 243 OFFCURVE",
"1590 174 OFFCURVE",
"1465 174 CURVE SMOOTH"
);
},
{
closed = 1;
nodes = (
"633 -10 OFFCURVE",
"795 121 OFFCURVE",
"795 366 CURVE SMOOTH",
"795 601 OFFCURVE",
"628 750 OFFCURVE",
"277 750 CURVE SMOOTH",
"222 750 OFFCURVE",
"154 745 OFFCURVE",
"96 734 CURVE",
"96 546 LINE",
"145 555 OFFCURVE",
"202 560 OFFCURVE",
"259 560 CURVE SMOOTH",
"475 560 OFFCURVE",
"553 491 OFFCURVE",
"553 362 CURVE SMOOTH",
"553 248 OFFCURVE",
"478 178 OFFCURVE",
"303 178 CURVE SMOOTH",
"257 178 OFFCURVE",
"202 182 OFFCURVE",
"159 188 CURVE",
"288 77 LINE",
"288 360 LINE",
"67 360 LINE",
"67 10 LINE",
"140 -2 OFFCURVE",
"213 -10 OFFCURVE",
"289 -10 CURVE SMOOTH"
);
}
);
};
color = 4;
layerId = "1E90A949-97C4-49F5-AA9A-AF35B6FD63CF";
paths = (
{
closed = 1;
nodes = (
"732 -10 OFFCURVE",
"885 137 OFFCURVE",
"885 360 CURVE SMOOTH",
"885 625 OFFCURVE",
"710 750 OFFCURVE",
"351 750 CURVE SMOOTH",
"268 750 OFFCURVE",
"177 743 OFFCURVE",
"96 729 CURVE",
"96 545 LINE",
"169 559 OFFCURVE",
"258 567 OFFCURVE",
"334 567 CURVE SMOOTH",
"541 567 OFFCURVE",
"654 513 OFFCURVE",
"654 356 CURVE SMOOTH",
"654 211 OFFCURVE",
"593 162 OFFCURVE",
"470 162 CURVE SMOOTH",
"333 162 OFFCURVE",
"275 217 OFFCURVE",
"275 356 CURVE",
"201 275 LINE",
"717 275 LINE",
"717 436 LINE",
"35 436 LINE",
"35 370 LINE SMOOTH",
"35 135 OFFCURVE",
"198 -10 OFFCURVE",
"467 -10 CURVE SMOOTH"
);
}
);
width = 925;
}
);
leftMetricsKey = "=O-5";
rightKerningGroup = KERN_O_1ST;
rightMetricsKey = O;
unicode = 018F;
userData = {
com.typemytype.robofont.layerData = {
};
};
},
{
color = 3;
glyphname = T;
lastChange = "2016-12-04 22:53:08 +0000";
layers = (
{
anchors = (
{
name = bottom;
position = "{245, 0}";
},
{
name = center;
position = "{245, 400}";
},
{
name = top;
position = "{245, 760}";
}
);
background = {
anchors = (
{
name = bottom;
position = "{248, 0}";
},
{
name = topUC;
position = "{247, 760}";
}
);
paths = (
{
closed = 1;
nodes = (
"56 0 LINE",
"56 364 LINE",
"434 364 LINE",
"434 0 LINE",
"468 0 LINE",
"468 740 LINE",
"434 740 LINE",
"434 397 LINE",
"56 397 LINE",
"56 740 LINE",
"22 740 LINE",
"22 0 LINE"
);
}
);
};
color = 4;
layerId = "ECFF4977-BDCC-4836-B4AC-1801CF0EB460";
paths = (
{
closed = 1;
nodes = (
"262 0 LINE",
"262 707 LINE",
"486 707 LINE",
"486 740 LINE",
"4 740 LINE",
"4 707 LINE",
"228 707 LINE",
"228 0 LINE"
);
}
);
width = 490;
},
{
anchors = (
{
name = bottom;
position = "{296, 0}";
},
{
name = center;
position = "{296, 350}";
},
{
name = top;
position = "{296, 760}";
}
);
background = {
anchors = (
{
name = bottom;
position = "{274, 0}";
},
{
name = top;
position = "{268, 805}";
}
);
paths = (
{
closed = 1;
nodes = (
"192 0 LINE",
"192 288 LINE",
"395 288 LINE",
"395 0 LINE",
"591 0 LINE",
"591 740 LINE",
"395 740 LINE",
"395 467 LINE",
"192 467 LINE",
"192 740 LINE",
"-4 740 LINE",
"-4 0 LINE"
);
}
);
};
color = 4;
layerId = "C8FFBC04-9D7C-494A-A42D-BACB8E26599D";
paths = (
{
closed = 1;
nodes = (
"394 0 LINE",
"394 567 LINE",
"590 567 LINE",
"590 740 LINE",
"1 740 LINE",
"1 567 LINE",
"197 567 LINE",
"197 0 LINE"
);
}
);
width = 591;
},
{
anchors = (
{
name = bottom;
position = "{308, 0}";
},
{
name = center;
position = "{308, 400}";
},
{
name = top;
position = "{308, 760}";
}
);
background = {
anchors = (
{
name = bottom;
position = "{308, 0}";
},
{
name = center;
position = "{308, 400}";
},
{
name = top;
position = "{308, 760}";
}
);
paths = (
{
closed = 1;
nodes = (
"56 0 LINE",
"56 364 LINE",
"560 364 LINE",
"560 0 LINE",
"594 0 LINE",
"594 740 LINE",
"560 740 LINE",
"560 397 LINE",
"56 397 LINE",
"56 740 LINE",
"22 740 LINE",
"22 0 LINE"
);
}
);
};
color = 4;
layerId = "E28BEEB5-BD92-4E7A-B4EA-FC5E5BBBF580";
paths = (
{
closed = 1;
nodes = (
"325 0 LINE",
"325 707 LINE",
"609 707 LINE",
"609 740 LINE",
"7 740 LINE",
"7 707 LINE",
"291 707 LINE",
"291 0 LINE"
);
}
);
width = 616;
},
{
anchors = (
{
name = bottom;
position = "{382, 0}";
},
{
name = center;
position = "{382, 350}";
},
{
name = top;
position = "{382, 760}";
}
);
background = {
anchors = (
{
name = bottom;
position = "{380, -110}";
},
{
name = topUC;
position = "{383, 885}";
}
);
paths = (
{
closed = 1;
nodes = (
"235 0 LINE",
"235 277 LINE",
"526 277 LINE",
"526 0 LINE",
"764 0 LINE",
"764 740 LINE",
"526 740 LINE",
"526 478 LINE",
"235 478 LINE",
"235 740 LINE",
"-3 740 LINE",
"-3 0 LINE"
);
}
);
};
color = 4;
layerId = "1E90A949-97C4-49F5-AA9A-AF35B6FD63CF";
paths = (
{
closed = 1;
nodes = (
"501 0 LINE",
"501 556 LINE",
"754 556 LINE",
"754 740 LINE",
"10 740 LINE",
"10 556 LINE",
"263 556 LINE",
"263 0 LINE"
);
}
);
width = 764;
}
);
leftKerningGroup = KERN_T;
rightKerningGroup = KERN_T;
unicode = 0054;
userData = {
com.typemytype.robofont.layerData = {
};
};
},
{
color = 4;
glyphname = Tbar;
lastChange = "2016-12-04 22:48:14 +0000";
layers = (
{
background = {
components = (
{
name = T;
transform = "{1, 0, 0, 1, 4, 0}";
}
);
paths = (
{
closed = 1;
nodes = (
"103 375 LINE",
"365 375 LINE",
"365 401 LINE",
"103 401 LINE"
);
}
);
};
color = 4;
components = (
{
name = T;
},
{
name = strokeshortcomb.case;
transform = "{1, 0, 0, 1, 45, -140}";
}
);
layerId = "ECFF4977-BDCC-4836-B4AC-1801CF0EB460";
width = 490;
},
{
background = {
components = (
{
name = T;
},
{
name = strokeshortcomb.case;
}
);
};
components = (
{
name = T;
},
{
name = strokeshortcomb.case;
transform = "{1, 0, 0, 1, 26, -190}";
}
);
layerId = "C8FFBC04-9D7C-494A-A42D-BACB8E26599D";
width = 591;
},
{
background = {
components = (
{
name = T;
},
{
name = strokeshortcomb.case;
transform = "{1, 0, 0, 1, 56, -140}";
}
);
};
color = 4;
components = (
{
name = T;
},
{
name = strokeshortcomb.case;
transform = "{1, 0, 0, 1, 59, -140}";
}
);
layerId = "E28BEEB5-BD92-4E7A-B4EA-FC5E5BBBF580";
width = 618;
},
{
background = {
components = (
{
name = T;
transform = "{1, 0, 0, 1, 5, 0}";
}
);
paths = (
{
closed = 1;
nodes = (
"83 300 LINE",
"656 300 LINE",
"656 427 LINE",
"83 427 LINE"
);
}
);
};
components = (
{
name = T;
},
{
name = strokeshortcomb.case;
transform = "{1, 0, 0, 1, 12, -190}";
}
);
layerId = "1E90A949-97C4-49F5-AA9A-AF35B6FD63CF";
width = 764;
}
);
leftKerningGroup = KERN_T;
rightKerningGroup = KERN_T;
unicode = 0166;
},
{
color = 3;
glyphname = U;
lastChange = "2016-12-04 22:48:35 +0000";
layers = (
{
anchors = (
{
name = bottom;
position = "{300, 0}";
},
{
name = ogonek;
position = "{359, 0}";
},
{
name = top;
position = "{300, 760}";
},
{
name = topright;
position = "{488, 740}";
}
);
background = {
paths = (
{
closed = 1;
nodes = (
"456 -9 OFFCURVE",
"522 73 OFFCURVE",
"522 246 CURVE SMOOTH",
"522 740 LINE",
"488 740 LINE",
"488 241 LINE SMOOTH",
"488 95 OFFCURVE",
"435 24 OFFCURVE",
"300 24 CURVE SMOOTH",
"165 24 OFFCURVE",
"112 95 OFFCURVE",
"112 241 CURVE SMOOTH",
"112 740 LINE",
"78 740 LINE",
"78 246 LINE SMOOTH",
"78 73 OFFCURVE",
"144 -9 OFFCURVE",
"300 -9 CURVE SMOOTH"
);
}
);
};
color = 4;
layerId = "ECFF4977-BDCC-4836-B4AC-1801CF0EB460";
paths = (
{
closed = 1;
nodes = (
"456 -9 OFFCURVE",
"521 73 OFFCURVE",
"521 246 CURVE SMOOTH",
"521 740 LINE",
"488 740 LINE",
"488 241 LINE SMOOTH",
"488 95 OFFCURVE",
"435 24 OFFCURVE",
"300 24 CURVE SMOOTH",
"165 24 OFFCURVE",
"112 95 OFFCURVE",
"112 241 CURVE SMOOTH",
"112 740 LINE",
"78 740 LINE",
"78 246 LINE SMOOTH",
"78 73 OFFCURVE",
"144 -9 OFFCURVE",
"300 -9 CURVE SMOOTH"
);
}
);
width = 599;
},
{
anchors = (
{
name = bottom;
position = "{334, 0}";
},
{
name = ogonek;
position = "{460, 0}";
},
{
name = top;
position = "{334, 760}";
},
{
name = topright;
position = "{467, 740}";
}
);
background = {
paths = (
{
closed = 1;
nodes = (
"529 -10 OFFCURVE",
"625 79 OFFCURVE",
"625 302 CURVE SMOOTH",
"625 740 LINE",
"433 740 LINE",
"433 280 LINE SMOOTH",
"433 182 OFFCURVE",
"396 151 OFFCURVE",
"334 151 CURVE SMOOTH",
"272 151 OFFCURVE",
"234 182 OFFCURVE",
"234 280 CURVE SMOOTH",
"234 740 LINE",
"38 740 LINE",
"38 302 LINE SMOOTH",
"38 79 OFFCURVE",
"137 -10 OFFCURVE",
"334 -10 CURVE SMOOTH"
);
}
);
};
color = 4;
layerId = "C8FFBC04-9D7C-494A-A42D-BACB8E26599D";
paths = (
{
closed = 1;
nodes = (
"529 -10 OFFCURVE",
"625 79 OFFCURVE",
"625 302 CURVE SMOOTH",
"625 740 LINE",
"433 740 LINE",
"433 280 LINE SMOOTH",
"433 185 OFFCURVE",
"396 154 OFFCURVE",
"334 154 CURVE SMOOTH",
"272 154 OFFCURVE",
"234 185 OFFCURVE",
"234 280 CURVE SMOOTH",
"234 740 LINE",
"38 740 LINE",
"38 302 LINE SMOOTH",
"38 79 OFFCURVE",
"137 -10 OFFCURVE",
"334 -10 CURVE SMOOTH"
);
}
);
width = 663;
},
{
anchors = (
{
name = bottom;
position = "{384, 0}";
},
{
name = ogonek;
position = "{460, 2}";
},
{
name = top;
position = "{384, 760}";
},
{
name = topright;
position = "{633, 740}";
}
);
background = {
paths = (
{
closed = 1;
nodes = (
"575 -9 OFFCURVE",
"667 77 OFFCURVE",
"667 283 CURVE SMOOTH",
"667 740 LINE",
"633 740 LINE",
"633 278 LINE SMOOTH",
"633 99 OFFCURVE",
"554 24 OFFCURVE",
"384 24 CURVE SMOOTH",
"214 24 OFFCURVE",
"135 99 OFFCURVE",
"135 278 CURVE SMOOTH",
"135 740 LINE",
"101 740 LINE",
"101 283 LINE SMOOTH",
"101 77 OFFCURVE",
"193 -9 OFFCURVE",
"384 -9 CURVE SMOOTH"
);
}
);
};
color = 4;
layerId = "E28BEEB5-BD92-4E7A-B4EA-FC5E5BBBF580";
paths = (
{
closed = 1;
nodes = (
"575 -9 OFFCURVE",
"666 77 OFFCURVE",
"666 283 CURVE SMOOTH",
"666 740 LINE",
"633 740 LINE",
"633 278 LINE SMOOTH",
"633 99 OFFCURVE",
"554 24 OFFCURVE",
"384 24 CURVE SMOOTH",
"214 24 OFFCURVE",
"135 99 OFFCURVE",
"135 278 CURVE SMOOTH",
"135 740 LINE",
"101 740 LINE",
"101 283 LINE SMOOTH",
"101 77 OFFCURVE",
"193 -9 OFFCURVE",
"384 -9 CURVE SMOOTH"
);
}
);
width = 767;
},
{
anchors = (
{
name = bottom;
position = "{441, 0}";
},
{
name = ogonek;
position = "{570, 0}";
},
{
name = top;
position = "{441, 760}";
},
{
name = topright;
position = "{582, 740}";
}
);
background = {
anchors = (
{
name = bottom;
position = "{439, -110}";
},
{
name = ogonek;
position = "{439, 54}";
},
{
name = topUC;
position = "{442, 885}";
}
);
paths = (
{
closed = 1;
nodes = (
"296 0 LINE",
"296 277 LINE",
"587 277 LINE",
"587 0 LINE",
"825 0 LINE",
"825 740 LINE",
"587 740 LINE",
"587 478 LINE",
"296 478 LINE",
"296 740 LINE",
"58 740 LINE",
"58 0 LINE"
);
}
);
};
color = 4;
layerId = "1E90A949-97C4-49F5-AA9A-AF35B6FD63CF";
paths = (
{
closed = 1;
nodes = (
"707 -10 OFFCURVE",
"816 123 OFFCURVE",
"816 347 CURVE SMOOTH",
"816 740 LINE",
"582 740 LINE",
"582 328 LINE SMOOTH",
"582 225 OFFCURVE",
"535 178 OFFCURVE",
"441 178 CURVE SMOOTH",
"347 178 OFFCURVE",
"300 225 OFFCURVE",
"300 328 CURVE SMOOTH",
"300 740 LINE",
"62 740 LINE",
"62 347 LINE SMOOTH",
"62 123 OFFCURVE",
"170 -10 OFFCURVE",
"441 -10 CURVE SMOOTH"
);
}
);
width = 878;
}
);
leftKerningGroup = KERN_U;
rightKerningGroup = KERN_U;
unicode = 0055;
userData = {
com.typemytype.robofont.layerData = {
};
};
},
{
color = 3;
glyphname = Uhorn;
lastChange = "2016-12-04 22:48:42 +0000";
layers = (
{
anchors = (
{
name = bottom;
position = "{300, 0}";
},
{
name = top;
position = "{300, 760}";
}
);
background = {
paths = (
{
closed = 1;
nodes = (
"626 846 OFFCURVE",
"622 865 OFFCURVE",
"614 888 CURVE",
"581 888 LINE",
"588 865 OFFCURVE",
"593 845 OFFCURVE",
"593 817 CURVE SMOOTH",
"593 762 OFFCURVE",
"554 740 OFFCURVE",
"504 740 CURVE SMOOTH",
"488 740 LINE",
"488 241 LINE SMOOTH",
"488 95 OFFCURVE",
"435 24 OFFCURVE",
"300 24 CURVE SMOOTH",
"165 24 OFFCURVE",
"112 95 OFFCURVE",
"112 241 CURVE SMOOTH",
"112 740 LINE",
"78 740 LINE",
"78 246 LINE SMOOTH",
"78 73 OFFCURVE",
"144 -9 OFFCURVE",
"300 -9 CURVE SMOOTH",
"456 -9 OFFCURVE",
"521 73 OFFCURVE",
"521 246 CURVE SMOOTH",
"521 707 LINE",
"581 711 OFFCURVE",
"626 748 OFFCURVE",
"626 816 CURVE SMOOTH"
);
}
);
};
color = 4;
layerId = "ECFF4977-BDCC-4836-B4AC-1801CF0EB460";
paths = (
{
closed = 1;
nodes = (
"626 846 OFFCURVE",
"622 865 OFFCURVE",
"614 888 CURVE",
"581 888 LINE",
"588 865 OFFCURVE",
"593 845 OFFCURVE",
"593 817 CURVE SMOOTH",
"593 762 OFFCURVE",
"554 740 OFFCURVE",
"504 740 CURVE SMOOTH",
"488 740 LINE",
"488 241 LINE SMOOTH",
"488 95 OFFCURVE",
"435 24 OFFCURVE",
"300 24 CURVE SMOOTH",
"165 24 OFFCURVE",
"112 95 OFFCURVE",
"112 241 CURVE SMOOTH",
"112 740 LINE",
"78 740 LINE",
"78 246 LINE SMOOTH",
"78 73 OFFCURVE",
"144 -9 OFFCURVE",
"300 -9 CURVE SMOOTH",
"456 -9 OFFCURVE",
"521 73 OFFCURVE",
"521 246 CURVE SMOOTH",
"521 709 LINE",
"581 712 OFFCURVE",
"626 748 OFFCURVE",
"626 816 CURVE SMOOTH"
);
}
);
width = 599;
},
{
anchors = (
{
name = bottom;
position = "{332, 0}";
},
{
name = top;
position = "{332, 760}";
}
);
background = {
paths = (
{
closed = 1;
nodes = (
"529 -10 OFFCURVE",
"625 79 OFFCURVE",
"625 302 CURVE SMOOTH",
"625 740 LINE",
"433 740 LINE",
"433 280 LINE SMOOTH",
"433 185 OFFCURVE",
"396 154 OFFCURVE",
"334 154 CURVE SMOOTH",
"272 154 OFFCURVE",
"234 185 OFFCURVE",
"234 280 CURVE SMOOTH",
"234 740 LINE",
"38 740 LINE",
"38 302 LINE SMOOTH",
"38 79 OFFCURVE",
"137 -10 OFFCURVE",
"334 -10 CURVE SMOOTH"
);
},
{
closed = 1;
nodes = (
"542 652 LINE SMOOTH",
"638 652 OFFCURVE",
"708 692 OFFCURVE",
"708 806 CURVE SMOOTH",
"708 836 OFFCURVE",
"706 863 OFFCURVE",
"698 888 CURVE",
"565 888 LINE",
"571 862 OFFCURVE",
"573 839 OFFCURVE",
"573 818 CURVE SMOOTH",
"573 759 OFFCURVE",
"547 740 OFFCURVE",
"500 740 CURVE SMOOTH",
"467 740 LINE",
"467 652 LINE"
);
}
);
};
color = 4;
layerId = "C8FFBC04-9D7C-494A-A42D-BACB8E26599D";
widthMetricsKey = "=U+5";
paths = (
{
closed = 1;
nodes = (
"708 836 OFFCURVE",
"706 863 OFFCURVE",
"698 888 CURVE",
"565 888 LINE",
"571 862 OFFCURVE",
"573 839 OFFCURVE",
"573 818 CURVE SMOOTH",
"573 759 OFFCURVE",
"547 740 OFFCURVE",
"500 740 CURVE SMOOTH",
"433 740 LINE",
"433 280 LINE SMOOTH",
"433 185 OFFCURVE",
"396 154 OFFCURVE",
"334 154 CURVE SMOOTH",
"272 154 OFFCURVE",
"234 185 OFFCURVE",
"234 280 CURVE SMOOTH",
"234 740 LINE",
"38 740 LINE",
"38 302 LINE SMOOTH",
"38 79 OFFCURVE",
"137 -10 OFFCURVE",
"334 -10 CURVE SMOOTH",
"529 -10 OFFCURVE",
"625 79 OFFCURVE",
"625 302 CURVE SMOOTH",
"625 666 LINE",
"676 685 OFFCURVE",
"708 729 OFFCURVE",
"708 806 CURVE SMOOTH"
);
}
);
width = 668;
},
{
anchors = (
{
name = bottom;
position = "{384, 0}";
},
{
name = top;
position = "{384, 760}";
}
);
background = {
paths = (
{
closed = 1;
nodes = (
"793 846 OFFCURVE",
"789 865 OFFCURVE",
"780 888 CURVE",
"747 888 LINE",
"755 865 OFFCURVE",
"760 845 OFFCURVE",
"760 817 CURVE SMOOTH",
"760 763 OFFCURVE",
"721 740 OFFCURVE",
"650 740 CURVE SMOOTH",
"633 740 LINE",
"633 278 LINE SMOOTH",
"633 99 OFFCURVE",
"554 24 OFFCURVE",
"384 24 CURVE SMOOTH",
"214 24 OFFCURVE",
"135 99 OFFCURVE",
"135 278 CURVE SMOOTH",
"135 740 LINE",
"101 740 LINE",
"101 283 LINE SMOOTH",
"101 77 OFFCURVE",
"193 -9 OFFCURVE",
"384 -9 CURVE SMOOTH",
"575 -9 OFFCURVE",
"666 77 OFFCURVE",
"666 283 CURVE SMOOTH",
"666 707 LINE",
"748 711 OFFCURVE",
"793 751 OFFCURVE",
"793 816 CURVE SMOOTH"
);
}
);
};
color = 4;
layerId = "E28BEEB5-BD92-4E7A-B4EA-FC5E5BBBF580";
paths = (
{
closed = 1;
nodes = (
"793 846 OFFCURVE",
"789 865 OFFCURVE",
"780 888 CURVE",
"747 888 LINE",
"755 865 OFFCURVE",
"760 845 OFFCURVE",
"760 817 CURVE SMOOTH",
"760 763 OFFCURVE",
"721 740 OFFCURVE",
"650 740 CURVE SMOOTH",
"633 740 LINE",
"633 278 LINE SMOOTH",
"633 99 OFFCURVE",
"554 24 OFFCURVE",
"384 24 CURVE SMOOTH",
"214 24 OFFCURVE",
"135 99 OFFCURVE",
"135 278 CURVE SMOOTH",
"135 740 LINE",
"101 740 LINE",
"101 283 LINE SMOOTH",
"101 77 OFFCURVE",
"193 -9 OFFCURVE",
"384 -9 CURVE SMOOTH",
"575 -9 OFFCURVE",
"666 77 OFFCURVE",
"666 283 CURVE SMOOTH",
"666 708 LINE",
"748 711 OFFCURVE",
"793 751 OFFCURVE",
"793 816 CURVE SMOOTH"
);
}
);
width = 767;
},
{
anchors = (
{
name = bottom;
position = "{439, 0}";
},
{
name = top;
position = "{439, 760}";
}
);
background = {
paths = (
{
closed = 1;
nodes = (
"707 -10 OFFCURVE",
"816 123 OFFCURVE",
"816 347 CURVE SMOOTH",
"816 740 LINE",
"582 740 LINE",
"582 328 LINE SMOOTH",
"582 225 OFFCURVE",
"535 178 OFFCURVE",
"441 178 CURVE SMOOTH",
"347 178 OFFCURVE",
"300 225 OFFCURVE",
"300 328 CURVE SMOOTH",
"300 740 LINE",
"62 740 LINE",
"62 347 LINE SMOOTH",
"62 123 OFFCURVE",
"170 -10 OFFCURVE",
"441 -10 CURVE SMOOTH"
);
},
{
closed = 1;
nodes = (
"730 641 LINE SMOOTH",
"838 641 OFFCURVE",
"907 697 OFFCURVE",
"907 812 CURVE SMOOTH",
"907 833 OFFCURVE",
"906 856 OFFCURVE",
"898 888 CURVE",
"753 888 LINE",
"758 855 OFFCURVE",
"759 836 OFFCURVE",
"759 818 CURVE SMOOTH",
"759 759 OFFCURVE",
"724 740 OFFCURVE",
"650 740 CURVE SMOOTH",
"582 740 LINE",
"582 641 LINE"
);
}
);
};
color = 4;
layerId = "1E90A949-97C4-49F5-AA9A-AF35B6FD63CF";
paths = (
{
closed = 1;
nodes = (
"907 833 OFFCURVE",
"906 856 OFFCURVE",
"898 888 CURVE",
"753 888 LINE",
"758 855 OFFCURVE",
"759 836 OFFCURVE",
"759 818 CURVE SMOOTH",
"759 759 OFFCURVE",
"724 740 OFFCURVE",
"650 740 CURVE SMOOTH",
"582 740 LINE",
"582 328 LINE SMOOTH",
"582 225 OFFCURVE",
"535 178 OFFCURVE",
"441 178 CURVE SMOOTH",
"347 178 OFFCURVE",
"300 225 OFFCURVE",
"300 328 CURVE SMOOTH",
"300 740 LINE",
"62 740 LINE",
"62 347 LINE SMOOTH",
"62 123 OFFCURVE",
"170 -10 OFFCURVE",
"441 -10 CURVE SMOOTH",
"707 -10 OFFCURVE",
"816 123 OFFCURVE",
"816 347 CURVE SMOOTH",
"816 656 LINE",
"873 680 OFFCURVE",
"907 732 OFFCURVE",
"907 812 CURVE SMOOTH"
);
}
);
width = 878;
}
);
leftMetricsKey = U;
widthMetricsKey = U;
unicode = 01AF;
},
{
color = 3;
glyphname = Uogonek;
lastChange = "2016-12-04 22:48:50 +0000";
layers = (
{
background = {
paths = (
{
closed = 1;
nodes = (
"456 -9 OFFCURVE",
"521 73 OFFCURVE",
"521 246 CURVE SMOOTH",
"521 740 LINE",
"488 740 LINE",
"488 241 LINE SMOOTH",
"488 95 OFFCURVE",
"435 24 OFFCURVE",
"300 24 CURVE SMOOTH",
"165 24 OFFCURVE",
"112 95 OFFCURVE",
"112 241 CURVE SMOOTH",
"112 740 LINE",
"78 740 LINE",
"78 246 LINE SMOOTH",
"78 73 OFFCURVE",
"144 -9 OFFCURVE",
"300 -9 CURVE SMOOTH"
);
},
{
closed = 1;
nodes = (
"366 -200 OFFCURVE",
"390 -194 OFFCURVE",
"415 -181 CURVE",
"415 -154 LINE",
"384 -169 OFFCURVE",
"362 -174 OFFCURVE",
"341 -174 CURVE SMOOTH",
"295 -174 OFFCURVE",
"271 -155 OFFCURVE",
"271 -114 CURVE SMOOTH",
"271 -74 OFFCURVE",
"294 -28 OFFCURVE",
"399 6 CURVE",
"345 13 LINE",
"272 -20 OFFCURVE",
"243 -64 OFFCURVE",
"243 -116 CURVE SMOOTH",
"243 -171 OFFCURVE",
"279 -200 OFFCURVE",
"342 -200 CURVE SMOOTH"
);
}
);
};
color = 4;
layerId = "ECFF4977-BDCC-4836-B4AC-1801CF0EB460";
paths = (
{
closed = 1;
nodes = (
"366 -200 OFFCURVE",
"390 -194 OFFCURVE",
"415 -181 CURVE",
"415 -154 LINE",
"384 -169 OFFCURVE",
"362 -174 OFFCURVE",
"341 -174 CURVE SMOOTH",
"295 -174 OFFCURVE",
"271 -155 OFFCURVE",
"271 -114 CURVE SMOOTH",
"271 -75 OFFCURVE",
"293 -29 OFFCURVE",
"390 3 CURVE SMOOTH",
"491 36 OFFCURVE",
"521 126 OFFCURVE",
"521 246 CURVE SMOOTH",
"521 740 LINE",
"488 740 LINE",
"488 241 LINE SMOOTH",
"488 95 OFFCURVE",
"435 24 OFFCURVE",
"300 24 CURVE SMOOTH",
"165 24 OFFCURVE",
"112 95 OFFCURVE",
"112 241 CURVE SMOOTH",
"112 740 LINE",
"78 740 LINE",
"78 246 LINE SMOOTH",
"78 73 OFFCURVE",
"144 -9 OFFCURVE",
"300 -9 CURVE SMOOTH",
"320 -9 LINE",
"316 -2 LINE",
"264 -33 OFFCURVE",
"243 -72 OFFCURVE",
"243 -116 CURVE SMOOTH",
"243 -171 OFFCURVE",
"279 -200 OFFCURVE",
"342 -200 CURVE SMOOTH"
);
}
);
width = 599;
},
{
background = {
paths = (
{
closed = 1;
nodes = (
"529 -10 OFFCURVE",
"625 79 OFFCURVE",
"625 302 CURVE SMOOTH",
"625 740 LINE",
"433 740 LINE",
"433 280 LINE SMOOTH",
"433 185 OFFCURVE",
"396 154 OFFCURVE",
"334 154 CURVE SMOOTH",
"272 154 OFFCURVE",
"234 185 OFFCURVE",
"234 280 CURVE SMOOTH",
"234 740 LINE",
"38 740 LINE",
"38 302 LINE SMOOTH",
"38 79 OFFCURVE",
"137 -10 OFFCURVE",
"334 -10 CURVE SMOOTH"
);
},
{
closed = 1;
nodes = (
"412 -230 OFFCURVE",
"440 -224 OFFCURVE",
"466 -215 CURVE",
"466 -140 LINE",
"442 -149 OFFCURVE",
"420 -153 OFFCURVE",
"401 -153 CURVE SMOOTH",
"355 -153 OFFCURVE",
"337 -136 OFFCURVE",
"337 -108 CURVE SMOOTH",
"337 -72 OFFCURVE",
"356 -34 OFFCURVE",
"467 9 CURVE",
"404 43 LINE",
"272 -4 OFFCURVE",
"229 -52 OFFCURVE",
"229 -119 CURVE SMOOTH",
"229 -187 OFFCURVE",
"275 -230 OFFCURVE",
"375 -230 CURVE SMOOTH"
);
}
);
};
color = 4;
layerId = "C8FFBC04-9D7C-494A-A42D-BACB8E26599D";
paths = (
{
closed = 1;
nodes = (
"412 -230 OFFCURVE",
"440 -224 OFFCURVE",
"466 -215 CURVE",
"466 -140 LINE",
"442 -149 OFFCURVE",
"420 -153 OFFCURVE",
"401 -153 CURVE SMOOTH",
"355 -153 OFFCURVE",
"337 -136 OFFCURVE",
"337 -108 CURVE SMOOTH",
"337 -72 OFFCURVE",
"355 -31 OFFCURVE",
"470 10 CURVE SMOOTH",
"572 46 OFFCURVE",
"625 137 OFFCURVE",
"625 302 CURVE SMOOTH",
"625 740 LINE",
"433 740 LINE",
"433 280 LINE SMOOTH",
"433 185 OFFCURVE",
"396 154 OFFCURVE",
"334 154 CURVE SMOOTH",
"272 154 OFFCURVE",
"234 185 OFFCURVE",
"234 280 CURVE SMOOTH",
"234 740 LINE",
"38 740 LINE",
"38 302 LINE SMOOTH",
"38 79 OFFCURVE",
"137 -10 OFFCURVE",
"334 -10 CURVE SMOOTH",
"353 -10 LINE",
"371 31 LINE",
"266 -13 OFFCURVE",
"229 -58 OFFCURVE",
"229 -119 CURVE SMOOTH",
"229 -187 OFFCURVE",
"275 -230 OFFCURVE",
"375 -230 CURVE SMOOTH"
);
}
);
width = 663;
},
{
background = {
paths = (
{
closed = 1;
nodes = (
"575 -9 OFFCURVE",
"666 77 OFFCURVE",
"666 283 CURVE SMOOTH",
"666 740 LINE",
"633 740 LINE",
"633 278 LINE SMOOTH",
"633 99 OFFCURVE",
"554 24 OFFCURVE",
"384 24 CURVE SMOOTH",
"214 24 OFFCURVE",
"135 99 OFFCURVE",
"135 278 CURVE SMOOTH",
"135 740 LINE",
"101 740 LINE",
"101 283 LINE SMOOTH",
"101 77 OFFCURVE",
"193 -9 OFFCURVE",
"384 -9 CURVE SMOOTH"
);
},
{
closed = 1;
nodes = (
"466 -198 OFFCURVE",
"498 -191 OFFCURVE",
"529 -178 CURVE",
"529 -151 LINE",
"490 -165 OFFCURVE",
"464 -172 OFFCURVE",
"433 -172 CURVE SMOOTH",
"381 -172 OFFCURVE",
"353 -150 OFFCURVE",
"353 -112 CURVE SMOOTH",
"353 -72 OFFCURVE",
"375 -32 OFFCURVE",
"490 2 CURVE",
"454 16 LINE",
"352 -17 OFFCURVE",
"325 -62 OFFCURVE",
"325 -113 CURVE SMOOTH",
"325 -166 OFFCURVE",
"364 -198 OFFCURVE",
"435 -198 CURVE SMOOTH"
);
}
);
};
color = 4;
layerId = "E28BEEB5-BD92-4E7A-B4EA-FC5E5BBBF580";
paths = (
{
closed = 1;
nodes = (
"466 -198 OFFCURVE",
"498 -191 OFFCURVE",
"529 -178 CURVE",
"529 -151 LINE",
"490 -165 OFFCURVE",
"464 -172 OFFCURVE",
"433 -172 CURVE SMOOTH",
"381 -172 OFFCURVE",
"353 -150 OFFCURVE",
"353 -110 CURVE SMOOTH",
"353 -62 OFFCURVE",
"393 -22 OFFCURVE",
"489 2 CURVE SMOOTH",
"609 32 OFFCURVE",
"666 119 OFFCURVE",
"666 283 CURVE SMOOTH",
"666 740 LINE",
"633 740 LINE",
"633 278 LINE SMOOTH",
"633 99 OFFCURVE",
"554 24 OFFCURVE",
"384 24 CURVE SMOOTH",
"214 24 OFFCURVE",
"135 99 OFFCURVE",
"135 278 CURVE SMOOTH",
"135 740 LINE",
"101 740 LINE",
"101 283 LINE SMOOTH",
"101 77 OFFCURVE",
"193 -9 OFFCURVE",
"384 -9 CURVE SMOOTH",
"409 -9 LINE",
"406 -3 LINE",
"346 -29 OFFCURVE",
"325 -71 OFFCURVE",
"325 -109 CURVE SMOOTH",
"325 -166 OFFCURVE",
"362 -198 OFFCURVE",
"435 -198 CURVE SMOOTH"
);
}
);
width = 767;
},
{
background = {
paths = (
{
closed = 1;
nodes = (
"707 -10 OFFCURVE",
"816 123 OFFCURVE",
"816 347 CURVE SMOOTH",
"816 740 LINE",
"582 740 LINE",
"582 328 LINE SMOOTH",
"582 225 OFFCURVE",
"535 178 OFFCURVE",
"441 178 CURVE SMOOTH",
"347 178 OFFCURVE",
"300 225 OFFCURVE",
"300 328 CURVE SMOOTH",
"300 740 LINE",
"62 740 LINE",
"62 347 LINE SMOOTH",
"62 123 OFFCURVE",
"170 -10 OFFCURVE",
"441 -10 CURVE SMOOTH"
);
},
{
closed = 1;
nodes = (
"527 -230 OFFCURVE",
"558 -224 OFFCURVE",
"587 -215 CURVE",
"587 -135 LINE",
"559 -144 OFFCURVE",
"537 -147 OFFCURVE",
"521 -147 CURVE SMOOTH",
"469 -147 OFFCURVE",
"447 -128 OFFCURVE",
"447 -98 CURVE SMOOTH",
"447 -61 OFFCURVE",
"478 -27 OFFCURVE",
"602 11 CURVE",
"514 39 LINE",
"366 7 OFFCURVE",
"319 -52 OFFCURVE",
"319 -117 CURVE SMOOTH",
"319 -185 OFFCURVE",
"372 -230 OFFCURVE",
"485 -230 CURVE SMOOTH"
);
}
);
};
color = 4;
layerId = "1E90A949-97C4-49F5-AA9A-AF35B6FD63CF";
paths = (
{
closed = 1;
nodes = (
"527 -230 OFFCURVE",
"558 -224 OFFCURVE",
"587 -215 CURVE",
"587 -135 LINE",
"559 -144 OFFCURVE",
"537 -147 OFFCURVE",
"521 -147 CURVE SMOOTH",
"469 -147 OFFCURVE",
"447 -128 OFFCURVE",
"447 -98 CURVE SMOOTH",
"447 -59 OFFCURVE",
"478 -27 OFFCURVE",
"602 11 CURVE SMOOTH",
"752 57 OFFCURVE",
"816 175 OFFCURVE",
"816 347 CURVE SMOOTH",
"816 740 LINE",
"582 740 LINE",
"582 328 LINE SMOOTH",
"582 225 OFFCURVE",
"535 178 OFFCURVE",
"441 178 CURVE SMOOTH",
"347 178 OFFCURVE",
"300 225 OFFCURVE",
"300 328 CURVE SMOOTH",
"300 740 LINE",
"62 740 LINE",
"62 347 LINE SMOOTH",
"62 123 OFFCURVE",
"170 -10 OFFCURVE",
"441 -10 CURVE SMOOTH",
"469 -10 LINE",
"488 34 LINE",
"360 0 OFFCURVE",
"319 -56 OFFCURVE",
"319 -117 CURVE SMOOTH",
"319 -185 OFFCURVE",
"372 -230 OFFCURVE",
"485 -230 CURVE SMOOTH"
);
}
);
width = 878;
}
);
leftKerningGroup = KERN_U;
leftMetricsKey = U;
widthMetricsKey = U;
rightKerningGroup = KERN_U;
unicode = 0172;
},
{
color = 3;
glyphname = V;
lastChange = "2016-12-04 22:49:24 +0000";
layers = (
{
background = {
paths = (
{
closed = 1;
nodes = (
"508 740 LINE",
"269 20 LINE",
"281 20 LINE",
"42 740 LINE",
"5 740 LINE",
"253 0 LINE",
"296 0 LINE",
"544 740 LINE"
);
}
);
};
color = 4;
layerId = "ECFF4977-BDCC-4836-B4AC-1801CF0EB460";
paths = (
{
closed = 1;
nodes = (
"298 0 LINE",
"544 740 LINE",
"509 740 LINE",
"271 20 LINE",
"279 20 LINE",
"42 740 LINE",
"5 740 LINE",
"251 0 LINE"
);
}
);
width = 549;
},
{
background = {
paths = (
{
closed = 1;
nodes = (
"443 0 LINE",
"629 740 LINE",
"443 740 LINE",
"305 167 LINE",
"314 167 LINE",
"173 740 LINE",
"-17 740 LINE",
"173 0 LINE"
);
}
);
};
color = 4;
layerId = "C8FFBC04-9D7C-494A-A42D-BACB8E26599D";
paths = (
{
closed = 1;
nodes = (
"469 0 LINE",
"648 740 LINE",
"461 740 LINE",
"305 75 LINE",
"343 75 LINE",
"191 740 LINE",
"-10 740 LINE",
"169 0 LINE"
);
}
);
width = 638;
},
{
background = {
anchors = (
{
name = bottom;
position = "{346, 0}";
},
{
name = top;
position = "{346, 760}";
}
);
paths = (
{
closed = 1;
nodes = (
"645 740 LINE",
"340 20 LINE",
"352 20 LINE",
"47 740 LINE",
"9 740 LINE",
"324 0 LINE",
"367 0 LINE",
"682 740 LINE"
);
}
);
};
color = 4;
layerId = "E28BEEB5-BD92-4E7A-B4EA-FC5E5BBBF580";
paths = (
{
closed = 1;
nodes = (
"369 0 LINE",
"682 740 LINE",
"646 740 LINE",
"343 20 LINE",
"351 20 LINE",
"47 740 LINE",
"9 740 LINE",
"322 0 LINE"
);
}
);
width = 691;
},
{
background = {
paths = (
{
closed = 1;
nodes = (
"601 0 LINE",
"861 740 LINE",
"629 740 LINE",
"409 98 LINE",
"460 98 LINE",
"245 740 LINE",
"-3 740 LINE",
"257 0 LINE"
);
}
);
};
color = 4;
layerId = "1E90A949-97C4-49F5-AA9A-AF35B6FD63CF";
paths = (
{
closed = 1;
nodes = (
"601 0 LINE",
"861 740 LINE",
"627 740 LINE",
"407 98 LINE",
"463 98 LINE",
"248 740 LINE",
"-3 740 LINE",
"257 0 LINE"
);
}
);
width = 858;
}
);
unicode = 0056;
userData = {
com.typemytype.robofont.layerData = {
};
};
},
{
color = 3;
glyphname = W;
lastChange = "2016-12-04 22:50:05 +0000";
layers = (
{
anchors = (
{
name = bottom;
position = "{445, 0}";
},
{
name = top;
position = "{445, 760}";
}
);
background = {
anchors = (
{
name = topUC;
position = "{443, 760}";
}
);
paths = (
{
closed = 1;
nodes = (
"216 0 LINE",
"263 0 LINE",
"415 581 LINE",
"441 688 LINE",
"445 688 LINE",
"468 581 LINE",
"608 0 LINE",
"655 0 LINE",
"849 740 LINE",
"815 740 LINE",
"670 186 LINE",
"635 43 LINE",
"631 43 LINE",
"599 186 LINE",
"466 740 LINE",
"423 740 LINE",
"278 186 LINE",
"243 43 LINE",
"239 43 LINE",
"207 186 LINE",
"74 740 LINE",
"38 740 LINE"
);
}
);
};
color = 4;
layerId = "ECFF4977-BDCC-4836-B4AC-1801CF0EB460";
paths = (
{
closed = 1;
nodes = (
"265 0 LINE",
"448 715 LINE",
"441 715 LINE",
"623 0 LINE",
"670 0 LINE",
"859 740 LINE",
"825 740 LINE",
"643 20 LINE",
"651 20 LINE",
"468 740 LINE",
"421 740 LINE",
"238 20 LINE",
"246 20 LINE",
"65 740 LINE",
"29 740 LINE",
"218 0 LINE"
);
}
);
width = 888;
},
{
anchors = (
{
name = bottom;
position = "{506, 0}";
},
{
name = top;
position = "{506, 760}";
}
);
background = {
paths = (
{
closed = 1;
nodes = (
"691 75 LINE",
"746 75 LINE",
"612 740 LINE",
"413 740 LINE",
"270 75 LINE",
"329 75 LINE",
"198 740 LINE",
"1 740 LINE",
"158 0 LINE",
"417 0 LINE",
"521 478 LINE",
"492 478 LINE",
"595 0 LINE",
"854 0 LINE",
"1011 740 LINE",
"828 740 LINE"
);
}
);
};
color = 4;
layerId = "C8FFBC04-9D7C-494A-A42D-BACB8E26599D";
paths = (
{
closed = 1;
nodes = (
"407 0 LINE",
"537 600 LINE",
"487 600 LINE",
"605 0 LINE",
"859 0 LINE",
"1011 740 LINE",
"828 740 LINE",
"696 69 LINE",
"749 69 LINE",
"619 740 LINE",
"407 740 LINE",
"267 69 LINE",
"324 69 LINE",
"198 740 LINE",
"1 740 LINE",
"153 0 LINE"
);
}
);
width = 1012;
},
{
anchors = (
{
name = bottom;
position = "{565, 0}";
},
{
name = top;
position = "{565, 760}";
}
);
background = {
anchors = (
{
name = bottom;
position = "{565, 0}";
},
{
name = top;
position = "{565, 760}";
}
);
paths = (
{
closed = 1;
nodes = (
"329 0 LINE",
"569 717 LINE",
"559 717 LINE",
"800 0 LINE",
"847 0 LINE",
"1090 740 LINE",
"1054 740 LINE",
"820 20 LINE",
"828 20 LINE",
"588 740 LINE",
"541 740 LINE",
"302 20 LINE",
"310 20 LINE",
"75 740 LINE",
"38 740 LINE",
"282 0 LINE"
);
}
);
};
color = 4;
layerId = "E28BEEB5-BD92-4E7A-B4EA-FC5E5BBBF580";
paths = (
{
closed = 1;
nodes = (
"329 0 LINE",
"569 717 LINE",
"559 717 LINE",
"800 0 LINE",
"847 0 LINE",
"1090 740 LINE",
"1055 740 LINE",
"820 20 LINE",
"828 20 LINE",
"588 740 LINE",
"541 740 LINE",
"302 20 LINE",
"310 20 LINE",
"75 740 LINE",
"38 740 LINE",
"282 0 LINE"
);
}
);
width = 1129;
},
{
anchors = (
{
name = bottom;
position = "{691, 0}";
},
{
name = top;
position = "{691, 760}";
}
);
background = {
paths = (
{
closed = 1;
nodes = (
"537 0 LINE",
"727 618 LINE",
"662 618 LINE",
"845 0 LINE",
"1145 0 LINE",
"1366 740 LINE",
"1141 740 LINE",
"963 118 LINE",
"1007 118 LINE",
"826 740 LINE",
"568 740 LINE",
"378 118 LINE",
"429 118 LINE",
"255 740 LINE",
"16 740 LINE",
"237 0 LINE"
);
}
);
};
color = 4;
layerId = "1E90A949-97C4-49F5-AA9A-AF35B6FD63CF";
paths = (
{
closed = 1;
nodes = (
"537 0 LINE",
"727 618 LINE",
"662 618 LINE",
"845 0 LINE",
"1145 0 LINE",
"1366 740 LINE",
"1140 740 LINE",
"962 118 LINE",
"1008 118 LINE",
"827 740 LINE",
"567 740 LINE",
"377 118 LINE",
"430 118 LINE",
"256 740 LINE",
"16 740 LINE",
"237 0 LINE"
);
}
);
width = 1382;
}
);
leftKerningGroup = KERN_W;
rightKerningGroup = KERN_W;
unicode = 0057;
userData = {
com.typemytype.robofont.layerData = {
};
};
},
{
color = 3;
glyphname = X;
lastChange = "2016-12-04 22:52:25 +0000";
layers = (
{
background = {
paths = (
{
closed = 1;
nodes = (
"16 0 LINE",
"56 0 LINE",
"517 740 LINE",
"477 740 LINE"
);
},
{
closed = 1;
nodes = (
"21 740 LINE",
"481 0 LINE",
"522 0 LINE",
"61 740 LINE"
);
},
{
closed = 1;
nodes = (
"84 0 LINE",
"84 364 LINE",
"462 364 LINE",
"462 0 LINE",
"496 0 LINE",
"496 740 LINE",
"462 740 LINE",
"462 397 LINE",
"84 397 LINE",
"84 740 LINE",
"50 740 LINE",
"50 0 LINE"
);
}
);
};
color = 4;
layerId = "ECFF4977-BDCC-4836-B4AC-1801CF0EB460";
paths = (
{
closed = 1;
nodes = (
"522 0 LINE",
"289 374 LINE",
"269 405 LINE",
"61 740 LINE",
"21 740 LINE",
"249 374 LINE",
"269 342 LINE",
"481 0 LINE"
);
},
{
closed = 1;
nodes = (
"56 0 LINE",
"269 342 LINE",
"289 374 LINE",
"517 740 LINE",
"477 740 LINE",
"269 405 LINE",
"249 374 LINE",
"16 0 LINE"
);
}
);
width = 538;
},
{
background = {
paths = (
{
closed = 1;
nodes = (
"665 0 LINE",
"211 740 LINE",
"-2 740 LINE",
"454 0 LINE"
);
},
{
closed = 1;
nodes = (
"184 0 LINE",
"642 740 LINE",
"432 740 LINE",
"-27 0 LINE"
);
},
{
closed = 1;
nodes = (
"1565 0 LINE",
"1332 391 LINE",
"1221 543 LINE",
"1108 740 LINE",
"901 740 LINE",
"1110 389 LINE",
"1219 237 LINE",
"1357 0 LINE"
);
},
{
closed = 1;
nodes = (
"1081 0 LINE",
"1219 237 LINE",
"1332 391 LINE",
"1539 740 LINE",
"1335 740 LINE",
"1221 543 LINE",
"1110 389 LINE",
"876 0 LINE"
);
}
);
};
color = 4;
layerId = "C8FFBC04-9D7C-494A-A42D-BACB8E26599D";
paths = (
{
closed = 1;
nodes = (
"665 0 LINE",
"435 389 LINE",
"321 548 LINE",
"210 740 LINE",
"-4 740 LINE",
"207 388 LINE",
"321 232 LINE",
"454 0 LINE"
);
},
{
closed = 1;
nodes = (
"187 0 LINE",
"321 232 LINE",
"435 389 LINE",
"642 740 LINE",
"432 740 LINE",
"321 548 LINE",
"207 388 LINE",
"-27 0 LINE"
);
}
);
width = 643;
},
{
background = {
anchors = (
{
name = bottom;
position = "{338, 0}";
},
{
name = top;
position = "{338, 760}";
}
);
paths = (
{
closed = 1;
nodes = (
"661 0 LINE",
"360 374 LINE",
"339 401 LINE",
"66 740 LINE",
"21 740 LINE",
"317 373 LINE",
"338 346 LINE",
"616 0 LINE"
);
},
{
closed = 1;
nodes = (
"60 0 LINE",
"338 346 LINE",
"360 374 LINE",
"656 740 LINE",
"613 740 LINE",
"339 401 LINE",
"317 373 LINE",
"16 0 LINE"
);
}
);
};
color = 4;
layerId = "E28BEEB5-BD92-4E7A-B4EA-FC5E5BBBF580";
paths = (
{
closed = 1;
nodes = (
"661 0 LINE",
"360 374 LINE",
"339 401 LINE",
"66 740 LINE",
"21 740 LINE",
"317 373 LINE",
"338 346 LINE",
"616 0 LINE"
);
},
{
closed = 1;
nodes = (
"60 0 LINE",
"338 346 LINE",
"360 374 LINE",
"656 740 LINE",
"613 740 LINE",
"339 401 LINE",
"317 373 LINE",
"16 0 LINE"
);
}
);
width = 678;
},
{
background = {
paths = (
{
closed = 1;
nodes = (
"840 0 LINE",
"258 740 LINE",
"-5 740 LINE",
"577 0 LINE"
);
},
{
closed = 1;
nodes = (
"221 0 LINE",
"810 740 LINE",
"554 740 LINE",
"-35 0 LINE"
);
}
);
};
color = 4;
layerId = "1E90A949-97C4-49F5-AA9A-AF35B6FD63CF";
paths = (
{
closed = 1;
nodes = (
"832 0 LINE",
"537 391 LINE",
"400 543 LINE",
"254 740 LINE",
"-10 740 LINE",
"258 387 LINE",
"395 235 LINE",
"568 0 LINE"
);
},
{
closed = 1;
nodes = (
"223 0 LINE",
"395 235 LINE",
"537 391 LINE",
"800 740 LINE",
"545 740 LINE",
"400 543 LINE",
"258 387 LINE",
"-33 0 LINE"
);
}
);
width = 798;
}
);
unicode = 0058;
userData = {
com.typemytype.robofont.layerData = {
};
};
},
{
color = 3;
glyphname = Y;
lastChange = "2016-12-04 22:53:10 +0000";
layers = (
{
anchors = (
{
name = bottom;
position = "{245, 0}";
},
{
name = top;
position = "{245, 760}";
},
{
name = topleft;
position = "{6, 740}";
}
);
background = {
paths = (
{
closed = 1;
nodes = (
"1055 740 LINE",
"838 392 LINE",
"852 392 LINE",
"636 740 LINE",
"597 740 LINE",
"836 356 LINE",
"828 384 LINE",
"828 0 LINE",
"862 0 LINE",
"862 384 LINE",
"854 356 LINE",
"1093 740 LINE"
);
},
{
closed = 1;
nodes = (
"520 740 LINE",
"236 358 LINE",
"256 358 LINE",
"-28 740 LINE",
"-72 740 LINE",
"238 326 LINE",
"228 353 LINE",
"228 0 LINE",
"262 0 LINE",
"262 353 LINE",
"252 326 LINE",
"562 740 LINE"
);
}
);
};
color = 4;
layerId = "ECFF4977-BDCC-4836-B4AC-1801CF0EB460";
paths = (
{
closed = 1;
nodes = (
"262 0 LINE",
"262 354 LINE",
"254 326 LINE",
"497 740 LINE",
"459 740 LINE",
"238 362 LINE",
"252 362 LINE",
"28 740 LINE",
"-11 740 LINE",
"236 326 LINE",
"228 354 LINE",
"228 0 LINE"
);
}
);
width = 490;
},
{
anchors = (
{
name = bottom;
position = "{296, 0}";
},
{
name = top;
position = "{297, 760}";
},
{
name = topleft;
position = "{-24, 740}";
}
);
background = {
paths = (
{
closed = 1;
nodes = (
"394 0 LINE",
"394 385 LINE",
"354 230 LINE",
"623 740 LINE",
"436 740 LINE",
"280 435 LINE",
"325 435 LINE",
"166 740 LINE",
"-39 740 LINE",
"238 230 LINE",
"198 388 LINE",
"198 0 LINE"
);
}
);
};
color = 4;
layerId = "C8FFBC04-9D7C-494A-A42D-BACB8E26599D";
paths = (
{
closed = 1;
nodes = (
"394 0 LINE",
"394 385 LINE",
"354 230 LINE",
"625 740 LINE",
"437 740 LINE",
"277 435 LINE",
"327 435 LINE",
"168 740 LINE",
"-37 740 LINE",
"238 230 LINE",
"198 388 LINE",
"198 0 LINE"
);
}
);
width = 591;
},
{
anchors = (
{
name = bottom;
position = "{308, 0}";
},
{
name = top;
position = "{308, 760}";
},
{
name = topleft;
position = "{5, 740}";
}
);
background = {
anchors = (
{
name = bottom;
position = "{308, 0}";
},
{
name = top;
position = "{308, 760}";
},
{
name = topleft;
position = "{5, 740}";
}
);
paths = (
{
closed = 1;
nodes = (
"325 0 LINE",
"325 353 LINE",
"315 326 LINE",
"625 740 LINE",
"583 740 LINE",
"299 358 LINE",
"319 358 LINE",
"35 740 LINE",
"-9 740 LINE",
"301 326 LINE",
"291 353 LINE",
"291 0 LINE"
);
}
);
};
color = 4;
layerId = "E28BEEB5-BD92-4E7A-B4EA-FC5E5BBBF580";
paths = (
{
closed = 1;
nodes = (
"325 0 LINE",
"325 353 LINE",
"315 326 LINE",
"623 740 LINE",
"581 740 LINE",
"299 358 LINE",
"319 358 LINE",
"33 740 LINE",
"-11 740 LINE",
"301 326 LINE",
"291 353 LINE",
"291 0 LINE"
);
}
);
width = 616;
},
{
anchors = (
{
name = bottom;
position = "{391, 0}";
},
{
name = top;
position = "{391, 760}";
},
{
name = topleft;
position = "{15, 740}";
}
);
background = {
paths = (
{
closed = 1;
nodes = (
"513 0 LINE",
"513 388 LINE",
"465 233 LINE",
"793 740 LINE",
"563 740 LINE",
"367 436 LINE",
"429 436 LINE",
"228 740 LINE",
"-19 740 LINE",
"323 233 LINE",
"275 391 LINE",
"275 0 LINE"
);
}
);
};
color = 4;
layerId = "1E90A949-97C4-49F5-AA9A-AF35B6FD63CF";
paths = (
{
closed = 1;
nodes = (
"513 0 LINE",
"513 388 LINE",
"467 233 LINE",
"795 740 LINE",
"561 740 LINE",
"365 436 LINE",
"431 436 LINE",
"230 740 LINE",
"-21 740 LINE",
"321 233 LINE",
"275 391 LINE",
"275 0 LINE"
);
}
);
width = 784;
}
);
leftKerningGroup = KERN_Y;
rightKerningGroup = KERN_Y;
unicode = 0059;
userData = {
com.typemytype.robofont.layerData = {
};
};
},
